  0
SECTION
  2
HEADER
  9
$ACADVER
  1
AC1009
  9
$INSBASE
 10
0
 20
0
 30
0
  9
$EXTMIN
 10
0
 20
0
  9
$EXTMAX
 10
148.5
 20
105
  9
$LIMMIN
 10
0
 20
0
  9
$LIMMAX
 10
148.5
 20
105
  9
$LTSCALE
 40
0.5
  0
ENDSEC
  0
SECTION
  2
TABLES
  0
TABLE
  2
LTYPE
 70
     9
  0
LTYPE
  2
CONTINUOUS
 70
    64
  3
実線
 72
    65
 73
     0
 40
0.0
  0
LTYPE
  2
DASHED1
 70
    64
  3
--  --  --  --  --  --  --  --  
 72
    65
 73
     2
 40
2.5
 49
1.25
 49
-1.25
  0
LTYPE
  2
DASHED2
 70
    64
  3
----    ----    ----    ----    
 72
    65
 73
     2
 40
5.0
 49
2.5
 49
-2.5
  0
LTYPE
  2
DASHED3
 70
    64
  3
------  ------  ------  ------  
 72
    65
 73
     2
 40
5.0
 49
3.75
 49
-1.25
  0
LTYPE
  2
CENTER1
 70
    64
  3
----- - ----- - ----- - ----- - 
 72
    65
 73
     4
 40
10.0
 49
6.25
 49
-1.25
 49
1.25
 49
-1.25
  0
LTYPE
  2
CENTER2
 70
    64
  3
----------  --  ----------  --  
 72
    65
 73
     4
 40
20.0
 49
12.5
 49
-2.5
 49
2.5
 49
-2.5
  0
LTYPE
  2
PHANTOM1
 70
    64
  3
--- - - --- - - --- - - --- - - 
 72
    65
 73
     6
 40
10.0
 49
3.25
 49
-1.25
 49
1.25
 49
-1.25
 49
1.25
 49
-1.25
  0
LTYPE
  2
PHANTOM2
 70
    64
  3
--------  -  -  --------  -  -  
 72
    65
 73
     6
 40
20.0
 49
10.0
 49
-2.5
 49
1.25
 49
-2.5
 49
1.25
 49
-2.5
  0
LTYPE
  2
DOT
 70
    64
  3
-   -   -   -   -   -   -   -   
 72
    65
 73
     2
 40
2.5
 49
0.625
 49
-1.875
  0
LTYPE
  2
DUMMY
 70
    64
  3
ダミー
 72
    65
 73
     0
 40
0.0
  0
LTYPE
  2
RAND1
 70
    64
  3
ランダム線1
 72
    65
 73
     4
 40
10.0
 49
1.0
 49
-2.0
 49
3.0
 49
-4.0
  0
LTYPE
  2
RAND2
 70
    64
  3
ランダム線2
 72
    65
 73
     4
 40
14.0
 49
2.0
 49
-3.0
 49
4.0
 49
-5.0
  0
LTYPE
  2
RAND3
 70
    64
  3
ランダム線3
 72
    65
 73
     4
 40
18.0
 49
3.0
 49
-4.0
 49
5.0
 49
-6.0
  0
LTYPE
  2
RAND4
 70
    64
  3
ランダム線4
 72
    65
 73
     4
 40
22.0
 49
4.0
 49
-5.0
 49
6.0
 49
-7.0
  0
LTYPE
  2
RAND5
 70
    64
  3
ランダム線5
 72
    65
 73
     4
 40
26.0
 49
5.0
 49
-6.0
 49
7.0
 49
-8.0
  0
LTYPE
  2
LONG1
 70
    64
  3
----------  --  ----------  --  
 72
    65
 73
     4
 40
40.0
 49
32.5
 49
-2.5
 49
2.5
 49
-2.5
  0
LTYPE
  2
LONG2
 70
    64
  3
--------  -  -  --------  -  -  
 72
    65
 73
     6
 40
40.0
 49
30.0
 49
-2.5
 49
1.25
 49
-2.5
 49
1.25
 49
-2.5
  0
LTYPE
  2
LONG3
 70
    64
  3
+++++++++++++++..+++++++++++++++
 72
    65
 73
     2
 40
40.0
 49
37.5
 49
-2.5
  0
LTYPE
  2
LONG4
 70
    64
  3
+++++++++++++++..+++++++++++++++
 72
    65
 73
     2
 40
80.0
 49
75.0
 49
-5.0
  0
LTYPE
  2
LONG5
 70
    64
  3
----------  --  ----------  --  
 72
    65
 73
     4
 40
60.0
 49
37.5
 49
-7.5
 49
7.5
 49
-7.5
  0
LTYPE
  2
dashed
 70
   64
  3
-------   -------------   ------
 72
   65
 73
    2
 40
7.5
 49
6
 49
-1.5
  0
LTYPE
  2
dashed_spaced
 70
   64
  3
----        --------        ----
 72
   65
 73
    2
 40
12
 49
6
 49
-6
  0
LTYPE
  2
long_dashed_dotted
 70
   64
  3
------------- --- --------------
 72
   65
 73
    4
 40
15.25
 49
12
 49
-1.5
 49
0.25
 49
-1.5
  0
LTYPE
  2
long_dashed_double-dotted
 70
   64
  3
----------- --- --- ------------
 72
   65
 73
    6
 40
17
 49
12
 49
-1.5
 49
0.25
 49
-1.5
 49
0.25
 49
-1.5
  0
LTYPE
  2
long_dashed_triplicate-dotted
 70
   64
  3
--------- --- --- --- ----------
 72
   65
 73
    8
 40
18.75
 49
12
 49
-1.5
 49
0.25
 49
-1.5
 49
0.25
 49
-1.5
 49
0.25
 49
-1.5
  0
LTYPE
  2
dotted
 70
   64
  3
   -       -       -       -    
 72
   65
 73
    2
 40
1.75
 49
0.25
 49
-1.5
  0
LTYPE
  2
chain
 70
   64
  3
-------------- -- --------------
 72
   65
 73
    4
 40
18.5
 49
12
 49
-1.5
 49
3.5
 49
-1.5
  0
LTYPE
  2
chain_double_dash
 70
   64
  3
------------ -- -- -------------
 72
   65
 73
    6
 40
23.5
 49
12
 49
-1.5
 49
3.5
 49
-1.5
 49
3.5
 49
-1.5
  0
LTYPE
  2
dashed_dotted
 70
   64
  3
-----------     -     ----------
 72
   65
 73
    4
 40
9.25
 49
6
 49
-1.5
 49
0.25
 49
-1.5
  0
LTYPE
  2
double-dashed_dotted
 70
   64
  3
------   -----------   -   -----
 72
   65
 73
    6
 40
16.75
 49
6
 49
-1.5
 49
6
 49
-1.5
 49
0.25
 49
-1.5
  0
LTYPE
  2
dashed_double-dotted
 70
   64
  3
---------    -    -    ---------
 72
   65
 73
    6
 40
11
 49
6
 49
-1.5
 49
0.25
 49
-1.5
 49
0.25
 49
-1.5
  0
LTYPE
  2
double-dashed_double-dotted
 70
   64
  3
-----   ---------   -   -   ----
 72
   65
 73
    8
 40
18.5
 49
6
 49
-1.5
 49
6
 49
-1.5
 49
0.25
 49
-1.5
 49
0.25
 49
-1.5
  0
LTYPE
  2
dashed_triplicate-dotted
 70
   64
  3
-------    -    -    -    ------
 72
   65
 73
    8
 40
12.75
 49
6
 49
-1.5
 49
0.25
 49
-1.5
 49
0.25
 49
-1.5
 49
0.25
 49
-1.5
  0
LTYPE
  2
double-dashed_triplicate-dotted
 70
   64
  3
-----  ---------  -  -  -  -----
 72
   65
 73
   10
 40
20.25
 49
6
 49
-1.5
 49
6
 49
-1.5
 49
0.25
 49
-1.5
 49
0.25
 49
-1.5
 49
0.25
 49
-1.5
  0
LTYPE
  2
undefined
 70
   64
  3
--------------------------------
 72
   65
 73
    0
 40
0
  0
ENDTAB
  0
TABLE
  2
STYLE
  5
3
100
AcDbSymbolTable
 70
     1
  0
STYLE
  5
10
100
AcDbSymbolTableRecord
100
AcDbTextStyleTableRecord
  2
STANDARD
 70
     0
 40
0.0
 41
1.0
 50
0.0
 71
     0
 42
0.2
  3
txt
  4
bigfont.shx
  0
STYLE
  5
26
100
AcDbSymbolTableRecord
100
AcDbTextStyleTableRecord
  2
TATEGAKI
 70
    68
 40
0.0
 41
1.0
 50
0.0
 71
     0
 42
1.0
  3
txt
  4
bigfont.shx
  0
ENDTAB
  0
TABLE
  2
LAYER
 70
    2
  0
LAYER
  2
_0-7_22
 70
   64
 62
    7
  6
CONTINUOUS
  0
LAYER
  2
ADD_LINE
 70
   64
 62
    7
  6
CONTINUOUS
  0
ENDTAB
  0
ENDSEC
  0
SECTION
  2
BLOCKS
  0
ENDSEC
  0
SECTION
  2
ENTITIES
  0
CIRCLE
  8
_0-7_22
  6
CONTINUOUS
 62
    1
 10
59.972900207208681
 20
123.02485406818536
 40
1.7500000000000002
  0
CIRCLE
  8
_0-7_22
  6
CONTINUOUS
 62
    1
 10
59.972900207208681
 20
30.314854068185383
 40
1.7500000000000002
  0
CIRCLE
  8
_0-7_22
  6
CONTINUOUS
 62
    1
 10
11.712900207208691
 20
30.314854068185383
 40
1.7500000000000002
  0
CIRCLE
  8
_0-7_22
  6
CONTINUOUS
 62
    1
 10
-60.677099792791296
 20
123.02485406818535
 40
1.7500000000000002
  0
CIRCLE
  8
_0-7_22
  6
CONTINUOUS
 62
    1
 10
-181.32709979279127
 20
123.02485406818533
 40
1.7500000000000002
  0
CIRCLE
  8
_0-7_22
  6
CONTINUOUS
 62
    1
 10
-181.32709979279127
 20
30.314854068185326
 40
1.7500000000000002
  0
CIRCLE
  8
_0-7_22
  6
CONTINUOUS
 62
    1
 10
-133.06709979279128
 20
30.314854068185326
 40
1.7500000000000002
  0
CIRCLE
  8
_0-7_22
  6
CONTINUOUS
 62
    1
 10
-100.0470997927913
 20
64.604854068185247
 40
1.7500000000000002
  0
CIRCLE
  8
_0-7_22
  6
CONTINUOUS
 62
    1
 10
-21.307099792791291
 20
64.604854068185276
 40
1.7500000000000002
  0
CIRCLE
  8
_0-7_22
  6
CONTINUOUS
 62
    7
 10
-18.993140715624008
 20
-69.276470748646503
 40
1.7500000000000002
  0
CIRCLE
  8
_0-7_22
  6
CONTINUOUS
 62
    7
 10
-12.617099792791237
 20
-21.035145931814625
 40
1.7500000000000002
  0
CIRCLE
  8
_0-7_22
  6
CONTINUOUS
 62
    7
 10
-93.897099792791238
 20
-21.035145931814625
 40
1.7500000000000002
  0
CIRCLE
  8
_0-7_22
  6
CONTINUOUS
 62
    7
 10
-93.897099792791238
 20
-69.295145931814616
 40
1.7500000000000002
  0
CIRCLE
  8
_0-7_22
  6
CONTINUOUS
 62
    7
 10
60.052900207208609
 20
-68.165145931814649
 40
1.7500000000000002
  0
CIRCLE
  8
_0-7_22
  6
CONTINUOUS
 62
    7
 10
23.552900207208609
 20
-68.165145931814649
 40
1.7500000000000002
  0
CIRCLE
  8
_0-7_22
  6
CONTINUOUS
 62
    7
 10
60.052900207208609
 20
16.834854068185351
 40
1.7500000000000002
  0
CIRCLE
  8
_0-7_22
  6
CONTINUOUS
 62
    7
 10
23.552900207208609
 20
16.834854068185351
 40
1.7500000000000002
  0
CIRCLE
  8
_0-7_22
  6
CONTINUOUS
 62
    7
 10
-181.32709979279127
 20
123.02485406818533
 40
3.5
  0
CIRCLE
  8
_0-7_22
  6
CONTINUOUS
 62
    7
 10
-60.677099792791296
 20
123.02485406818535
 40
3.5
  0
CIRCLE
  8
_0-7_22
  6
CONTINUOUS
 62
    7
 10
59.972900207208681
 20
123.02485406818536
 40
3.5
  0
CIRCLE
  8
_0-7_22
  6
CONTINUOUS
 62
    7
 10
-21.307099792791291
 20
64.604854068185276
 40
3.5
  0
CIRCLE
  8
_0-7_22
  6
CONTINUOUS
 62
    7
 10
-100.0470997927913
 20
64.604854068185247
 40
3.5
  0
CIRCLE
  8
_0-7_22
  6
CONTINUOUS
 62
    7
 10
59.972900207208681
 20
30.314854068185383
 40
3.5
  0
CIRCLE
  8
_0-7_22
  6
CONTINUOUS
 62
    7
 10
60.052900207208609
 20
16.834854068185351
 40
3.5
  0
CIRCLE
  8
_0-7_22
  6
CONTINUOUS
 62
    7
 10
23.552900207208609
 20
16.834854068185351
 40
3.5
  0
CIRCLE
  8
_0-7_22
  6
CONTINUOUS
 62
    7
 10
11.712900207208691
 20
30.314854068185383
 40
3.5
  0
CIRCLE
  8
_0-7_22
  6
CONTINUOUS
 62
    7
 10
-133.06709979279128
 20
30.314854068185326
 40
3.5
  0
CIRCLE
  8
_0-7_22
  6
CONTINUOUS
 62
    7
 10
-181.32709979279127
 20
30.314854068185326
 40
3.5
  0
CIRCLE
  8
_0-7_22
  6
CONTINUOUS
 62
    7
 10
-12.617099792791237
 20
-21.035145931814625
 40
3.5
  0
CIRCLE
  8
_0-7_22
  6
CONTINUOUS
 62
    7
 10
-93.897099792791238
 20
-21.035145931814625
 40
3.5
  0
CIRCLE
  8
_0-7_22
  6
CONTINUOUS
 62
    7
 10
-93.897099792791238
 20
-69.295145931814616
 40
3.5
  0
CIRCLE
  8
_0-7_22
  6
CONTINUOUS
 62
    7
 10
-18.993140715624008
 20
-69.276470748646503
 40
3.5
  0
CIRCLE
  8
_0-7_22
  6
CONTINUOUS
 62
    7
 10
23.552900207208609
 20
-68.165145931814649
 40
3.5
  0
CIRCLE
  8
_0-7_22
  6
CONTINUOUS
 62
    7
 10
60.052900207208609
 20
-68.165145931814649
 40
3.5
  0
LINE
  8
_0-7_22
  6
CONTINUOUS
 62
    7
 10
69.95790020720861
 20
131.83485406818534
 11
69.95790020720861
 21
-78.165145931814664
  0
LINE
  8
_0-7_22
  6
CONTINUOUS
 62
    7
 10
-190.04209979279125
 20
-78.165145931814664
 11
-190.04209979279125
 21
131.83485406818534
  0
LINE
  8
_0-7_22
  6
CONTINUOUS
 62
    7
 10
-190.04209979279125
 20
131.83485406818534
 11
69.95790020720861
 21
131.83485406818534
  0
LINE
  8
_0-7_22
  6
CONTINUOUS
 62
    7
 10
-190.04209979279125
 20
-78.165145931814664
 11
69.95790020720861
 21
-78.165145931814664
  0
ENDSEC
  0
EOF
