  0
SECTION
  2
HEADER
  9
$ACADVER
  1
AC1009
  9
$INSBASE
 10
0
 20
0
 30
0
  9
$EXTMIN
 10
0
 20
0
  9
$EXTMAX
 10
148.5
 20
105
  9
$LIMMIN
 10
0
 20
0
  9
$LIMMAX
 10
148.5
 20
105
  9
$LTSCALE
 40
0.5
  0
ENDSEC
  0
SECTION
  2
TABLES
  0
TABLE
  2
LTYPE
 70
     9
  0
LTYPE
  2
CONTINUOUS
 70
    64
  3
実線
 72
    65
 73
     0
 40
0.0
  0
LTYPE
  2
DASHED1
 70
    64
  3
--  --  --  --  --  --  --  --  
 72
    65
 73
     2
 40
2.5
 49
1.25
 49
-1.25
  0
LTYPE
  2
DASHED2
 70
    64
  3
----    ----    ----    ----    
 72
    65
 73
     2
 40
5.0
 49
2.5
 49
-2.5
  0
LTYPE
  2
DASHED3
 70
    64
  3
------  ------  ------  ------  
 72
    65
 73
     2
 40
5.0
 49
3.75
 49
-1.25
  0
LTYPE
  2
CENTER1
 70
    64
  3
----- - ----- - ----- - ----- - 
 72
    65
 73
     4
 40
10.0
 49
6.25
 49
-1.25
 49
1.25
 49
-1.25
  0
LTYPE
  2
CENTER2
 70
    64
  3
----------  --  ----------  --  
 72
    65
 73
     4
 40
20.0
 49
12.5
 49
-2.5
 49
2.5
 49
-2.5
  0
LTYPE
  2
PHANTOM1
 70
    64
  3
--- - - --- - - --- - - --- - - 
 72
    65
 73
     6
 40
10.0
 49
3.25
 49
-1.25
 49
1.25
 49
-1.25
 49
1.25
 49
-1.25
  0
LTYPE
  2
PHANTOM2
 70
    64
  3
--------  -  -  --------  -  -  
 72
    65
 73
     6
 40
20.0
 49
10.0
 49
-2.5
 49
1.25
 49
-2.5
 49
1.25
 49
-2.5
  0
LTYPE
  2
DOT
 70
    64
  3
-   -   -   -   -   -   -   -   
 72
    65
 73
     2
 40
2.5
 49
0.625
 49
-1.875
  0
LTYPE
  2
DUMMY
 70
    64
  3
ダミー
 72
    65
 73
     0
 40
0.0
  0
LTYPE
  2
RAND1
 70
    64
  3
ランダム線1
 72
    65
 73
     4
 40
10.0
 49
1.0
 49
-2.0
 49
3.0
 49
-4.0
  0
LTYPE
  2
RAND2
 70
    64
  3
ランダム線2
 72
    65
 73
     4
 40
14.0
 49
2.0
 49
-3.0
 49
4.0
 49
-5.0
  0
LTYPE
  2
RAND3
 70
    64
  3
ランダム線3
 72
    65
 73
     4
 40
18.0
 49
3.0
 49
-4.0
 49
5.0
 49
-6.0
  0
LTYPE
  2
RAND4
 70
    64
  3
ランダム線4
 72
    65
 73
     4
 40
22.0
 49
4.0
 49
-5.0
 49
6.0
 49
-7.0
  0
LTYPE
  2
RAND5
 70
    64
  3
ランダム線5
 72
    65
 73
     4
 40
26.0
 49
5.0
 49
-6.0
 49
7.0
 49
-8.0
  0
LTYPE
  2
LONG1
 70
    64
  3
----------  --  ----------  --  
 72
    65
 73
     4
 40
40.0
 49
32.5
 49
-2.5
 49
2.5
 49
-2.5
  0
LTYPE
  2
LONG2
 70
    64
  3
--------  -  -  --------  -  -  
 72
    65
 73
     6
 40
40.0
 49
30.0
 49
-2.5
 49
1.25
 49
-2.5
 49
1.25
 49
-2.5
  0
LTYPE
  2
LONG3
 70
    64
  3
+++++++++++++++..+++++++++++++++
 72
    65
 73
     2
 40
40.0
 49
37.5
 49
-2.5
  0
LTYPE
  2
LONG4
 70
    64
  3
+++++++++++++++..+++++++++++++++
 72
    65
 73
     2
 40
80.0
 49
75.0
 49
-5.0
  0
LTYPE
  2
LONG5
 70
    64
  3
----------  --  ----------  --  
 72
    65
 73
     4
 40
60.0
 49
37.5
 49
-7.5
 49
7.5
 49
-7.5
  0
LTYPE
  2
dashed
 70
   64
  3
-------   -------------   ------
 72
   65
 73
    2
 40
7.5
 49
6
 49
-1.5
  0
LTYPE
  2
dashed_spaced
 70
   64
  3
----        --------        ----
 72
   65
 73
    2
 40
12
 49
6
 49
-6
  0
LTYPE
  2
long_dashed_dotted
 70
   64
  3
------------- --- --------------
 72
   65
 73
    4
 40
15.25
 49
12
 49
-1.5
 49
0.25
 49
-1.5
  0
LTYPE
  2
long_dashed_double-dotted
 70
   64
  3
----------- --- --- ------------
 72
   65
 73
    6
 40
17
 49
12
 49
-1.5
 49
0.25
 49
-1.5
 49
0.25
 49
-1.5
  0
LTYPE
  2
long_dashed_triplicate-dotted
 70
   64
  3
--------- --- --- --- ----------
 72
   65
 73
    8
 40
18.75
 49
12
 49
-1.5
 49
0.25
 49
-1.5
 49
0.25
 49
-1.5
 49
0.25
 49
-1.5
  0
LTYPE
  2
dotted
 70
   64
  3
   -       -       -       -    
 72
   65
 73
    2
 40
1.75
 49
0.25
 49
-1.5
  0
LTYPE
  2
chain
 70
   64
  3
-------------- -- --------------
 72
   65
 73
    4
 40
18.5
 49
12
 49
-1.5
 49
3.5
 49
-1.5
  0
LTYPE
  2
chain_double_dash
 70
   64
  3
------------ -- -- -------------
 72
   65
 73
    6
 40
23.5
 49
12
 49
-1.5
 49
3.5
 49
-1.5
 49
3.5
 49
-1.5
  0
LTYPE
  2
dashed_dotted
 70
   64
  3
-----------     -     ----------
 72
   65
 73
    4
 40
9.25
 49
6
 49
-1.5
 49
0.25
 49
-1.5
  0
LTYPE
  2
double-dashed_dotted
 70
   64
  3
------   -----------   -   -----
 72
   65
 73
    6
 40
16.75
 49
6
 49
-1.5
 49
6
 49
-1.5
 49
0.25
 49
-1.5
  0
LTYPE
  2
dashed_double-dotted
 70
   64
  3
---------    -    -    ---------
 72
   65
 73
    6
 40
11
 49
6
 49
-1.5
 49
0.25
 49
-1.5
 49
0.25
 49
-1.5
  0
LTYPE
  2
double-dashed_double-dotted
 70
   64
  3
-----   ---------   -   -   ----
 72
   65
 73
    8
 40
18.5
 49
6
 49
-1.5
 49
6
 49
-1.5
 49
0.25
 49
-1.5
 49
0.25
 49
-1.5
  0
LTYPE
  2
dashed_triplicate-dotted
 70
   64
  3
-------    -    -    -    ------
 72
   65
 73
    8
 40
12.75
 49
6
 49
-1.5
 49
0.25
 49
-1.5
 49
0.25
 49
-1.5
 49
0.25
 49
-1.5
  0
LTYPE
  2
double-dashed_triplicate-dotted
 70
   64
  3
-----  ---------  -  -  -  -----
 72
   65
 73
   10
 40
20.25
 49
6
 49
-1.5
 49
6
 49
-1.5
 49
0.25
 49
-1.5
 49
0.25
 49
-1.5
 49
0.25
 49
-1.5
  0
LTYPE
  2
undefined
 70
   64
  3
--------------------------------
 72
   65
 73
    0
 40
0
  0
ENDTAB
  0
TABLE
  2
STYLE
  5
3
100
AcDbSymbolTable
 70
     1
  0
STYLE
  5
10
100
AcDbSymbolTableRecord
100
AcDbTextStyleTableRecord
  2
STANDARD
 70
     0
 40
0.0
 41
1.0
 50
0.0
 71
     0
 42
0.2
  3
txt
  4
bigfont.shx
  0
STYLE
  5
26
100
AcDbSymbolTableRecord
100
AcDbTextStyleTableRecord
  2
TATEGAKI
 70
    68
 40
0.0
 41
1.0
 50
0.0
 71
     0
 42
1.0
  3
txt
  4
bigfont.shx
  0
ENDTAB
  0
TABLE
  2
LAYER
 70
    3
  0
LAYER
  2
_0-8_23
 70
   64
 62
    7
  6
CONTINUOUS
  0
LAYER
  2
_0-9_24
 70
   64
 62
    7
  6
CONTINUOUS
  0
LAYER
  2
ADD_LINE
 70
   64
 62
    7
  6
CONTINUOUS
  0
ENDTAB
  0
ENDSEC
  0
SECTION
  2
BLOCKS
  0
ENDSEC
  0
SECTION
  2
ENTITIES
  0
LINE
  8
_0-8_23
  6
CONTINUOUS
 62
    5
 10
152.71128600027396
 20
43.368293879271846
 11
105.72128600027392
 21
43.368293879271846
  0
LINE
  8
_0-8_23
  6
CONTINUOUS
 62
    5
 10
98.101286000273944
 20
33.208293879271849
 11
159.06128600027398
 21
33.208293879271849
  0
LINE
  8
_0-8_23
  6
CONTINUOUS
 62
    5
 10
98.101286000273944
 20
40.828293879271854
 11
95.561286000273952
 21
40.828293879271854
  0
LINE
  8
_0-8_23
  6
CONTINUOUS
 62
    5
 10
95.561286000273952
 20
40.828293879271854
 11
95.561286000273952
 21
31.938293879271839
  0
LINE
  8
_0-8_23
  6
CONTINUOUS
 62
    5
 10
95.561286000273952
 20
31.938293879271839
 11
167.95128600027397
 21
31.938293879271839
  0
LINE
  8
_0-8_23
  6
CONTINUOUS
 62
    5
 10
167.95128600027397
 20
31.938293879271839
 11
167.95128600027397
 21
270.69829387927177
  0
LINE
  8
_0-8_23
  6
CONTINUOUS
 62
    5
 10
167.95128600027397
 20
270.69829387927177
 11
100.64128600027396
 21
270.69829387927177
  0
LINE
  8
_0-8_23
  6
CONTINUOUS
 62
    5
 10
100.64128600027396
 20
270.69829387927177
 11
100.64128600027396
 21
214.81829387927181
  0
LINE
  8
_0-8_23
  6
CONTINUOUS
 62
    5
 10
100.64128600027396
 20
214.81829387927181
 11
86.671286000274023
 21
214.81829387927181
  0
LINE
  8
_0-8_23
  6
CONTINUOUS
 62
    5
 10
86.671286000274023
 20
212.27829387927181
 11
96.831286000273963
 21
212.27829387927181
  0
LINE
  8
_0-8_23
  6
CONTINUOUS
 62
    5
 10
86.671286000273994
 20
209.73829387927179
 11
96.831286000273963
 21
209.73829387927179
  0
LINE
  8
_0-8_23
  6
CONTINUOUS
 62
    5
 10
86.671286000273994
 20
207.1982938792718
 11
96.831286000273963
 21
207.1982938792718
  0
LINE
  8
_0-8_23
  6
CONTINUOUS
 62
    5
 10
86.671286000273994
 20
204.65829387927181
 11
103.18128600027396
 21
204.65829387927181
  0
LINE
  8
_0-8_23
  6
CONTINUOUS
 62
    5
 10
103.18128600027396
 20
204.65829387927181
 11
103.18128600027396
 21
186.87829387927181
  0
LINE
  8
_0-8_23
  6
CONTINUOUS
 62
    5
 10
103.18128600027396
 20
186.87829387927181
 11
95.561286000273981
 21
186.87829387927181
  0
LINE
  8
_0-8_23
  6
CONTINUOUS
 62
    5
 10
86.671286000273994
 20
202.11829387927182
 11
101.91128600027395
 21
202.11829387927182
  0
LINE
  8
_0-8_23
  6
CONTINUOUS
 62
    5
 10
101.91128600027395
 20
202.11829387927182
 11
101.91128600027395
 21
189.4182938792718
  0
LINE
  8
_0-8_23
  6
CONTINUOUS
 62
    5
 10
101.91128600027395
 20
189.4182938792718
 11
95.561286000273981
 21
189.4182938792718
  0
LINE
  8
_0-8_23
  6
CONTINUOUS
 62
    5
 10
86.671286000273994
 20
199.5782938792718
 11
100.64128600027396
 21
199.5782938792718
  0
LINE
  8
_0-8_23
  6
CONTINUOUS
 62
    5
 10
100.64128600027396
 20
199.5782938792718
 11
100.64128600027396
 21
191.95829387927182
  0
LINE
  8
_0-8_23
  6
CONTINUOUS
 62
    5
 10
100.64128600027396
 20
191.95829387927182
 11
95.561286000273981
 21
191.95829387927182
  0
LINE
  8
_0-8_23
  6
CONTINUOUS
 62
    5
 10
89.122723828040137
 20
197.03829387927181
 11
98.101286000273973
 21
197.03829387927181
  0
LINE
  8
_0-8_23
  6
CONTINUOUS
 62
    5
 10
98.101286000273973
 20
197.03829387927181
 11
98.101286000273973
 21
194.49829387927181
  0
LINE
  8
_0-8_23
  6
CONTINUOUS
 62
    5
 10
98.101286000273973
 20
194.49829387927181
 11
95.561286000273981
 21
194.49829387927181
  0
LINE
  8
_0-8_23
  6
CONTINUOUS
 62
    5
 10
95.561286000273981
 20
194.49829387927181
 11
95.561286000273981
 21
181.79829387927182
  0
LINE
  8
_0-8_23
  6
CONTINUOUS
 62
    5
 10
95.561286000273981
 20
194.49829387927181
 11
91.751286000273979
 21
194.49829387927181
  0
LINE
  8
_0-8_23
  6
CONTINUOUS
 62
    5
 10
91.751286000273979
 20
194.49829387927181
 11
91.751286000273979
 21
184.33829387927182
  0
LINE
  8
_0-8_23
  6
CONTINUOUS
 62
    5
 10
91.751286000273979
 20
184.33829387927182
 11
86.671286000273994
 21
184.33829387927182
  0
LINE
  8
_0-8_23
  6
CONTINUOUS
 62
    5
 10
91.751286000273979
 20
184.33829387927182
 11
91.751286000273979
 21
181.79829387927182
  0
LINE
  8
_0-8_23
  6
CONTINUOUS
 62
    5
 10
91.751286000273979
 20
181.79829387927182
 11
86.671286000273994
 21
181.79829387927182
  0
LINE
  8
_0-8_23
  6
CONTINUOUS
 62
    5
 10
90.481286000273997
 20
181.79829387927182
 11
90.481286000273997
 21
179.2582938792718
  0
LINE
  8
_0-8_23
  6
CONTINUOUS
 62
    5
 10
90.481286000273997
 20
179.2582938792718
 11
98.101286000273973
 21
179.2582938792718
  0
LINE
  8
_0-8_23
  6
CONTINUOUS
 62
    5
 10
98.101286000273973
 20
179.2582938792718
 11
98.101286000273973
 21
181.79829387927182
  0
LINE
  8
_0-8_23
  6
CONTINUOUS
 62
    5
 10
98.101286000273973
 20
181.79829387927182
 11
95.561286000273981
 21
181.79829387927182
  0
LINE
  8
_0-8_23
  6
CONTINUOUS
 62
    5
 10
95.561286000273981
 20
184.33829387927182
 11
101.91128600027395
 21
184.33829387927182
  0
LINE
  8
_0-8_23
  6
CONTINUOUS
 62
    5
 10
105.08628600027396
 20
183.06829387927181
 11
105.08628600027396
 21
208.46829387927181
  0
LINE
  8
_0-8_23
  6
CONTINUOUS
 62
    5
 10
106.35628600027394
 20
169.09829387927181
 11
86.671286000273994
 21
169.09829387927181
  0
LINE
  8
_0-8_23
  6
CONTINUOUS
 62
    5
 10
106.35628600027394
 20
169.09829387927181
 11
106.35628600027394
 21
251.64829387927179
  0
LINE
  8
_0-8_23
  6
CONTINUOUS
 62
    5
 10
86.671286000273994
 20
166.55829387927182
 11
107.62628600027392
 21
166.55829387927182
  0
LINE
  8
_0-8_23
  6
CONTINUOUS
 62
    5
 10
107.62628600027395
 20
166.55829387927182
 11
107.62628600027395
 21
235.1382938792718
  0
LINE
  8
_0-8_23
  6
CONTINUOUS
 62
    5
 10
86.671286000273994
 20
164.01829387927182
 11
108.89628600027393
 21
164.01829387927182
  0
LINE
  8
_0-8_23
  6
CONTINUOUS
 62
    5
 10
108.89628600027393
 20
164.01829387927182
 11
108.89628600027393
 21
224.9782938792718
  0
LINE
  8
_0-8_23
  6
CONTINUOUS
 62
    5
 10
110.80128600027393
 20
208.46829387927181
 11
110.80128600027393
 21
165.28829387927181
  0
LINE
  8
_0-8_23
  6
CONTINUOUS
 62
    5
 10
86.671286000273994
 20
161.4782938792718
 11
112.07128600027391
 21
161.4782938792718
  0
LINE
  8
_0-8_23
  6
CONTINUOUS
 62
    5
 10
134.93128600027393
 20
268.15829387927181
 11
152.71128600027396
 21
268.15829387927181
  0
LINE
  8
_0-8_23
  6
CONTINUOUS
 62
    5
 10
152.71128600027396
 20
268.15829387927181
 11
152.71128600027396
 21
265.61829387927179
  0
LINE
  8
_0-8_23
  6
CONTINUOUS
 62
    5
 10
152.71128600027396
 20
265.61829387927179
 11
150.17128600027397
 21
265.61829387927179
  0
LINE
  8
_0-8_23
  6
CONTINUOUS
 62
    5
 10
150.17128600027397
 20
265.61829387927179
 11
150.17128600027397
 21
263.07829387927177
  0
LINE
  8
_0-8_23
  6
CONTINUOUS
 62
    5
 10
150.17128600027397
 20
263.07829387927177
 11
153.981286000274
 21
263.07829387927177
  0
LINE
  8
_0-8_23
  6
CONTINUOUS
 62
    5
 10
152.46128600027396
 20
260.53829387927181
 11
112.07128600027391
 21
260.53829387927181
  0
LINE
  8
_0-8_23
  6
CONTINUOUS
 62
    5
 10
152.46128600027396
 20
257.99829387927178
 11
137.47128600027395
 21
257.99829387927178
  0
LINE
  8
_0-8_23
  6
CONTINUOUS
 62
    5
 10
152.46128600027396
 20
255.45829387927179
 11
137.47128600027395
 21
255.45829387927179
  0
LINE
  8
_0-8_23
  6
CONTINUOUS
 62
    5
 10
152.46128600027396
 20
252.9182938792718
 11
141.28128600027395
 21
252.9182938792718
  0
LINE
  8
_0-8_23
  6
CONTINUOUS
 62
    5
 10
152.46128600027396
 20
250.37829387927178
 11
141.28128600027395
 21
250.37829387927178
  0
LINE
  8
_0-8_23
  6
CONTINUOUS
 62
    5
 10
152.46128600027396
 20
247.83829387927179
 11
142.55128600027393
 21
247.83829387927179
  0
LINE
  8
_0-8_23
  6
CONTINUOUS
 62
    5
 10
165.41128600027395
 20
268.15829387927181
 11
165.41128600027395
 21
33.208293879271849
  0
LINE
  8
_0-8_23
  6
CONTINUOUS
 62
    5
 10
165.41128600027395
 20
33.208293879271849
 11
164.14128600027396
 21
33.208293879271849
  0
LINE
  8
_0-8_23
  6
CONTINUOUS
 62
    5
 10
161.60128600027394
 20
58.608293879271855
 11
162.87128600027398
 21
58.608293879271855
  0
LINE
  8
_0-8_23
  6
CONTINUOUS
 62
    5
 10
162.87128600027398
 20
58.696856051505705
 11
162.87128600027398
 21
151.31829387927181
  0
LINE
  8
_0-8_23
  6
CONTINUOUS
 62
    5
 10
162.87128600027398
 20
240.21829387927178
 11
162.87128600027398
 21
156.39829387927182
  0
LINE
  8
_0-8_23
  6
CONTINUOUS
 62
    5
 10
162.87128600027398
 20
156.39829387927182
 11
140.01128600027391
 21
156.39829387927182
  0
LINE
  8
_0-8_23
  6
CONTINUOUS
 62
    5
 10
160.33128600027396
 20
213.5482938792718
 11
160.33128600027396
 21
158.93829387927181
  0
LINE
  8
_0-8_23
  6
CONTINUOUS
 62
    5
 10
160.33128600027396
 20
158.93829387927181
 11
140.01128600027391
 21
158.93829387927181
  0
LINE
  8
_0-8_23
  6
CONTINUOUS
 62
    5
 10
157.79128600027397
 20
186.87829387927181
 11
157.79128600027397
 21
161.4782938792718
  0
LINE
  8
_0-8_23
  6
CONTINUOUS
 62
    5
 10
157.79128600027394
 20
161.4782938792718
 11
140.01128600027391
 21
161.4782938792718
  0
LINE
  8
_0-8_23
  6
CONTINUOUS
 62
    5
 10
140.01128600027391
 20
161.4782938792718
 11
117.1512860002739
 21
184.33829387927182
  0
LINE
  8
_0-8_23
  6
CONTINUOUS
 62
    5
 10
140.01128600027391
 20
158.93829387927181
 11
117.1512860002739
 21
181.79829387927182
  0
LINE
  8
_0-8_23
  6
CONTINUOUS
 62
    5
 10
140.01128600027391
 20
156.39829387927182
 11
117.1512860002739
 21
179.2582938792718
  0
LINE
  8
_0-8_23
  6
CONTINUOUS
 62
    5
 10
140.01128600027391
 20
153.85829387927183
 11
117.1512860002739
 21
176.71829387927181
  0
LINE
  8
_0-8_23
  6
CONTINUOUS
 62
    5
 10
140.01128600027391
 20
151.31829387927181
 11
117.1512860002739
 21
174.17829387927182
  0
LINE
  8
_0-8_23
  6
CONTINUOUS
 62
    5
 10
140.01128600027391
 20
148.77829387927181
 11
117.1512860002739
 21
171.63829387927183
  0
LINE
  8
_0-8_23
  6
CONTINUOUS
 62
    5
 10
140.01128600027391
 20
146.23829387927182
 11
117.1512860002739
 21
169.09829387927181
  0
LINE
  8
_0-8_23
  6
CONTINUOUS
 62
    5
 10
140.01128600027391
 20
153.85829387927183
 11
165.41128600027395
 21
153.85829387927183
  0
LINE
  8
_0-8_23
  6
CONTINUOUS
 62
    5
 10
140.01128600027391
 20
151.31829387927181
 11
162.87128600027398
 21
151.31829387927181
  0
LINE
  8
_0-8_23
  6
CONTINUOUS
 62
    5
 10
140.01128600027391
 20
148.77829387927181
 11
160.33128600027396
 21
148.77829387927181
  0
LINE
  8
_0-8_23
  6
CONTINUOUS
 62
    5
 10
140.01128600027391
 20
146.23829387927182
 11
157.79128600027394
 21
146.23829387927182
  0
LINE
  8
_0-8_23
  6
CONTINUOUS
 62
    5
 10
160.33128600027396
 20
108.13829387927183
 11
160.33128600027396
 21
148.77829387927181
  0
LINE
  8
_0-8_23
  6
CONTINUOUS
 62
    5
 10
157.79128600027394
 20
134.80829387927182
 11
157.79128600027394
 21
146.23829387927182
  0
LINE
  8
_0-8_23
  6
CONTINUOUS
 62
    5
 10
117.1512860002739
 20
169.09829387927181
 11
110.80128600027393
 21
169.09829387927181
  0
LINE
  8
_0-8_23
  6
CONTINUOUS
 62
    5
 10
117.1512860002739
 20
171.63829387927183
 11
110.80128600027393
 21
171.63829387927183
  0
LINE
  8
_0-8_23
  6
CONTINUOUS
 62
    5
 10
117.1512860002739
 20
174.17829387927182
 11
110.80128600027393
 21
174.17829387927182
  0
LINE
  8
_0-8_23
  6
CONTINUOUS
 62
    5
 10
117.1512860002739
 20
176.71829387927181
 11
110.80128600027393
 21
176.71829387927181
  0
LINE
  8
_0-8_23
  6
CONTINUOUS
 62
    5
 10
117.1512860002739
 20
179.2582938792718
 11
110.80128600027393
 21
179.2582938792718
  0
LINE
  8
_0-8_23
  6
CONTINUOUS
 62
    5
 10
117.1512860002739
 20
181.79829387927182
 11
110.80128600027393
 21
181.79829387927182
  0
LINE
  8
_0-8_23
  6
CONTINUOUS
 62
    5
 10
117.1512860002739
 20
184.33829387927182
 11
110.80128600027393
 21
184.33829387927182
  0
LINE
  8
_0-8_23
  6
CONTINUOUS
 62
    5
 10
138.74128600027393
 20
165.28829387927181
 11
115.88128600027392
 21
188.14829387927182
  0
LINE
  8
_0-8_23
  6
CONTINUOUS
 62
    5
 10
152.71128600027396
 20
165.28829387927181
 11
138.74128600027393
 21
165.28829387927181
  0
LINE
  8
_0-8_23
  6
CONTINUOUS
 62
    5
 10
152.71128600027396
 20
165.28829387927181
 11
152.71128600027396
 21
183.06829387927181
  0
LINE
  8
_0-8_23
  6
CONTINUOUS
 62
    5
 10
152.71128600027396
 20
183.06829387927181
 11
148.90128600027396
 21
183.06829387927181
  0
LINE
  8
_0-8_23
  6
CONTINUOUS
 62
    5
 10
152.71128600027396
 20
180.52829387927181
 11
129.85128600027392
 21
180.52829387927181
  0
LINE
  8
_0-8_23
  6
CONTINUOUS
 62
    5
 10
152.71128600027396
 20
177.98829387927182
 11
134.93128600027393
 21
177.98829387927182
  0
LINE
  8
_0-8_23
  6
CONTINUOUS
 62
    5
 10
152.71128600027396
 20
175.44829387927183
 11
136.45128600027391
 21
175.44829387927183
  0
LINE
  8
_0-8_23
  6
CONTINUOUS
 62
    5
 10
152.71128600027396
 20
172.90829387927181
 11
136.45128600027391
 21
172.90829387927181
  0
LINE
  8
_0-8_23
  6
CONTINUOUS
 62
    5
 10
152.71128600027396
 20
167.82829387927183
 11
136.20128600027391
 21
167.82829387927183
  0
LINE
  8
_0-8_23
  6
CONTINUOUS
 62
    5
 10
136.20128600027391
 20
167.82829387927183
 11
136.20128600027391
 21
170.36829387927182
  0
LINE
  8
_0-8_23
  6
CONTINUOUS
 62
    5
 10
152.71128600027396
 20
170.36829387927182
 11
136.20128600027391
 21
170.36829387927182
  0
LINE
  8
_0-8_23
  6
CONTINUOUS
 62
    5
 10
153.981286000274
 20
185.6082938792718
 11
148.90128600027396
 21
185.6082938792718
  0
LINE
  8
_0-8_23
  6
CONTINUOUS
 62
    5
 10
152.46128600027396
 20
194.49829387927181
 11
142.55128600027393
 21
194.49829387927181
  0
LINE
  8
_0-8_23
  6
CONTINUOUS
 62
    5
 10
152.46128600027396
 20
197.03829387927181
 11
141.28128600027395
 21
197.03829387927181
  0
LINE
  8
_0-8_23
  6
CONTINUOUS
 62
    5
 10
152.46128600027396
 20
199.5782938792718
 11
141.28128600027395
 21
199.5782938792718
  0
LINE
  8
_0-8_23
  6
CONTINUOUS
 62
    5
 10
141.28128600027395
 20
197.03829387927181
 11
141.28128600027395
 21
199.5782938792718
  0
LINE
  8
_0-8_23
  6
CONTINUOUS
 62
    5
 10
152.46128600027396
 20
202.11829387927182
 11
138.74128600027393
 21
202.11829387927182
  0
LINE
  8
_0-8_23
  6
CONTINUOUS
 62
    5
 10
138.74128600027393
 20
202.11829387927182
 11
138.74128600027393
 21
204.65829387927181
  0
LINE
  8
_0-8_23
  6
CONTINUOUS
 62
    5
 10
138.74128600027393
 20
204.65829387927181
 11
152.46128600027396
 21
204.65829387927181
  0
LINE
  8
_0-8_23
  6
CONTINUOUS
 62
    5
 10
152.46128600027396
 20
207.1982938792718
 11
131.12128600027393
 21
207.1982938792718
  0
LINE
  8
_0-8_23
  6
CONTINUOUS
 62
    5
 10
153.981286000274
 20
209.73829387927179
 11
150.17128600027397
 21
209.73829387927179
  0
LINE
  8
_0-8_23
  6
CONTINUOUS
 62
    5
 10
150.17128600027397
 20
209.73829387927179
 11
150.17128600027397
 21
212.27829387927181
  0
LINE
  8
_0-8_23
  6
CONTINUOUS
 62
    5
 10
150.17128600027397
 20
212.27829387927181
 11
153.981286000274
 21
212.27829387927181
  0
LINE
  8
_0-8_23
  6
CONTINUOUS
 62
    5
 10
152.46128600027396
 20
221.1682938792718
 11
142.55128600027393
 21
221.1682938792718
  0
LINE
  8
_0-8_23
  6
CONTINUOUS
 62
    5
 10
152.46128600027396
 20
223.70829387927179
 11
141.28128600027395
 21
223.70829387927179
  0
LINE
  8
_0-8_23
  6
CONTINUOUS
 62
    5
 10
141.28128600027395
 20
223.70829387927179
 11
141.28128600027395
 21
226.24829387927178
  0
LINE
  8
_0-8_23
  6
CONTINUOUS
 62
    5
 10
141.28128600027395
 20
226.24829387927178
 11
152.46128600027396
 21
226.24829387927178
  0
LINE
  8
_0-8_23
  6
CONTINUOUS
 62
    5
 10
152.46128600027396
 20
228.78829387927181
 11
138.74128600027393
 21
228.78829387927181
  0
LINE
  8
_0-8_23
  6
CONTINUOUS
 62
    5
 10
138.74128600027393
 20
228.78829387927181
 11
138.74128600027393
 21
231.3282938792718
  0
LINE
  8
_0-8_23
  6
CONTINUOUS
 62
    5
 10
138.74128600027393
 20
231.3282938792718
 11
152.46128600027396
 21
231.3282938792718
  0
LINE
  8
_0-8_23
  6
CONTINUOUS
 62
    5
 10
152.46128600027396
 20
233.86829387927179
 11
113.34128600027393
 21
233.86829387927179
  0
LINE
  8
_0-8_23
  6
CONTINUOUS
 62
    5
 10
153.981286000274
 20
236.40829387927181
 11
150.17128600027397
 21
236.40829387927181
  0
LINE
  8
_0-8_23
  6
CONTINUOUS
 62
    5
 10
150.17128600027397
 20
236.40829387927181
 11
150.17128600027397
 21
238.9482938792718
  0
LINE
  8
_0-8_23
  6
CONTINUOUS
 62
    5
 10
150.17128600027397
 20
238.9482938792718
 11
153.981286000274
 21
238.9482938792718
  0
LINE
  8
_0-8_23
  6
CONTINUOUS
 62
    5
 10
153.98128600027394
 20
138.61829387927182
 11
148.90128600027396
 21
138.61829387927182
  0
LINE
  8
_0-8_23
  6
CONTINUOUS
 62
    5
 10
148.90128600027396
 20
136.07829387927183
 11
157.79128600027394
 21
136.07829387927183
  0
LINE
  8
_0-8_23
  6
CONTINUOUS
 62
    5
 10
153.98128600027394
 20
133.53829387927183
 11
138.74128600027393
 21
133.53829387927183
  0
LINE
  8
_0-8_23
  6
CONTINUOUS
 62
    5
 10
138.74128600027393
 20
133.53829387927183
 11
137.22128600027392
 21
135.05829387927184
  0
LINE
  8
_0-8_23
  6
CONTINUOUS
 62
    5
 10
152.46128600027396
 20
130.99829387927181
 11
138.74128600027393
 21
130.99829387927181
  0
LINE
  8
_0-8_23
  6
CONTINUOUS
 62
    5
 10
138.74128600027393
 20
130.99829387927181
 11
134.93128600027393
 21
134.80829387927182
  0
LINE
  8
_0-8_23
  6
CONTINUOUS
 62
    5
 10
152.46128600027396
 20
128.45829387927182
 11
138.74128600027393
 21
128.45829387927182
  0
LINE
  8
_0-8_23
  6
CONTINUOUS
 62
    5
 10
138.74128600027393
 20
128.45829387927182
 11
138.74128600027393
 21
130.99829387927181
  0
LINE
  8
_0-8_23
  6
CONTINUOUS
 62
    5
 10
152.46128600027396
 20
125.91829387927183
 11
140.01128600027394
 21
125.91829387927183
  0
LINE
  8
_0-8_23
  6
CONTINUOUS
 62
    5
 10
152.46128600027396
 20
123.37829387927184
 11
140.01128600027394
 21
123.37829387927184
  0
LINE
  8
_0-8_23
  6
CONTINUOUS
 62
    5
 10
152.46128600027396
 20
120.83829387927182
 11
142.55128600027393
 21
120.83829387927182
  0
LINE
  8
_0-8_23
  6
CONTINUOUS
 62
    5
 10
132.39128600027391
 20
119.56829387927183
 11
132.39128600027391
 21
144.22434510348566
  0
LINE
  8
_0-8_23
  6
CONTINUOUS
 62
    5
 10
134.93128600027393
 20
145.49434510348567
 11
131.72056052919112
 21
148.70507057456845
  0
LINE
  8
_0-8_23
  6
CONTINUOUS
 62
    5
 10
134.93128600027393
 20
124.64829387927182
 11
134.93128600027393
 21
145.49434510348567
  0
LINE
  8
_0-8_23
  6
CONTINUOUS
 62
    5
 10
137.22128600027395
 20
135.05829387927184
 11
137.22128600027395
 21
146.48833010026073
  0
LINE
  8
_0-8_23
  6
CONTINUOUS
 62
    5
 10
137.22128600027395
 20
146.48833010026073
 11
132.39132222126287
 21
151.31829387927181
  0
LINE
  8
_0-8_23
  6
CONTINUOUS
 62
    5
 10
130.37733722448772
 20
146.23829387927182
 11
132.39128600027391
 21
144.22434510348566
  0
LINE
  8
_0-8_23
  6
CONTINUOUS
 62
    5
 10
108.26128600027394
 20
146.23829387927182
 11
108.26128600027394
 21
148.77829387927181
  0
LINE
  8
_0-8_23
  6
CONTINUOUS
 62
    5
 10
108.26128600027394
 20
151.31829387927181
 11
108.26128600027394
 21
153.85829387927183
  0
LINE
  8
_0-8_23
  6
CONTINUOUS
 62
    5
 10
108.26128600027394
 20
156.39829387927182
 11
108.26128600027394
 21
158.93829387927181
  0
LINE
  8
_0-8_23
  6
CONTINUOUS
 62
    5
 10
114.61128600027391
 20
186.87829387927181
 11
110.80128600027393
 21
186.87829387927181
  0
LINE
  8
_0-8_23
  6
CONTINUOUS
 62
    5
 10
113.34128600027393
 20
189.4182938792718
 11
110.80128600027393
 21
189.4182938792718
  0
LINE
  8
_0-8_23
  6
CONTINUOUS
 62
    5
 10
113.34128600027393
 20
191.95829387927182
 11
110.80128600027393
 21
191.95829387927182
  0
LINE
  8
_0-8_23
  6
CONTINUOUS
 62
    5
 10
113.34128600027393
 20
194.49829387927181
 11
110.80128600027393
 21
194.49829387927181
  0
LINE
  8
_0-8_23
  6
CONTINUOUS
 62
    5
 10
113.34128600027393
 20
197.03829387927181
 11
110.80128600027393
 21
197.03829387927181
  0
LINE
  8
_0-8_23
  6
CONTINUOUS
 62
    5
 10
113.34128600027393
 20
199.5782938792718
 11
110.80128600027393
 21
199.5782938792718
  0
LINE
  8
_0-8_23
  6
CONTINUOUS
 62
    5
 10
113.34128600027393
 20
202.11829387927182
 11
110.80128600027393
 21
202.11829387927182
  0
LINE
  8
_0-8_23
  6
CONTINUOUS
 62
    5
 10
113.34128600027393
 20
204.65829387927181
 11
110.80128600027393
 21
204.65829387927181
  0
LINE
  8
_0-8_23
  6
CONTINUOUS
 62
    5
 10
123.35710865888976
 20
158.93829387927181
 11
124.06419732958182
 21
158.23120520857975
  0
LINE
  8
_0-8_23
  6
CONTINUOUS
 62
    5
 10
124.77130411076837
 20
158.93831198976631
 11
124.06419732958182
 21
158.23120520857975
  0
LINE
  8
_0-8_23
  6
CONTINUOUS
 62
    5
 10
122.23128600027388
 20
158.93829387927181
 11
123.35710865888976
 21
158.93829387927181
  0
LINE
  8
_0-8_23
  6
CONTINUOUS
 62
    5
 10
122.23128600027388
 20
158.93829387927181
 11
122.23128600027388
 21
161.47833010026079
  0
LINE
  8
_0-8_23
  6
CONTINUOUS
 62
    5
 10
124.77130411076837
 20
158.93831198976631
 11
122.23128600027388
 21
161.47833010026079
  0
LINE
  8
_0-8_23
  6
CONTINUOUS
 62
    5
 10
122.23132222126287
 20
161.4782938792718
 11
120.96130411076837
 21
162.74831198976631
  0
LINE
  8
_0-8_23
  6
CONTINUOUS
 62
    5
 10
120.9612860002739
 20
162.74829387927181
 11
120.9612860002739
 21
161.4782938792718
  0
LINE
  8
_0-8_23
  6
CONTINUOUS
 62
    5
 10
122.23132222126287
 20
161.4782938792718
 11
120.9612860002739
 21
161.4782938792718
  0
LINE
  8
_0-8_23
  6
CONTINUOUS
 62
    5
 10
131.12128600027393
 20
151.31829387927181
 11
131.12128600027393
 21
152.58829387927182
  0
LINE
  8
_0-8_23
  6
CONTINUOUS
 62
    5
 10
131.12128600027393
 20
152.58829387927182
 11
132.39132222126287
 21
151.31829387927181
  0
LINE
  8
_0-8_23
  6
CONTINUOUS
 62
    5
 10
132.39128600027391
 20
151.31833009922775
 11
131.12128600027393
 21
151.31829387927181
  0
LINE
  8
_0-8_23
  6
CONTINUOUS
 62
    5
 10
129.85128600027389
 20
128.45829387927182
 11
129.85128600027389
 21
141.15829387927181
  0
LINE
  8
_0-8_23
  6
CONTINUOUS
 62
    5
 10
129.85128600027389
 20
141.15829387927181
 11
128.58128600027391
 21
141.15829387927181
  0
LINE
  8
_0-8_23
  6
CONTINUOUS
 62
    5
 10
128.58128600027391
 20
141.15829387927181
 11
128.58128600027391
 21
128.45829387927182
  0
LINE
  8
_0-8_23
  6
CONTINUOUS
 62
    5
 10
128.58128600027391
 20
128.45829387927182
 11
129.85128600027389
 21
128.45829387927182
  0
LINE
  8
_0-8_23
  6
CONTINUOUS
 62
    5
 10
118.42128600027391
 20
132.26829387927182
 11
118.42128600027391
 21
137.34829387927184
  0
LINE
  8
_0-8_23
  6
CONTINUOUS
 62
    5
 10
150.17128600027394
 20
109.40829387927184
 11
150.17128600027394
 21
111.94829387927183
  0
LINE
  8
_0-8_23
  6
CONTINUOUS
 62
    5
 10
150.08272382804012
 20
111.94829387927183
 11
153.98128600027394
 21
111.94829387927183
  0
LINE
  8
_0-8_23
  6
CONTINUOUS
 62
    5
 10
153.98128600027394
 20
109.40829387927184
 11
150.17128600027394
 21
109.40829387927184
  0
LINE
  8
_0-8_23
  6
CONTINUOUS
 62
    5
 10
152.46128600027396
 20
106.86829387927185
 11
134.93128600027393
 21
106.86829387927185
  0
LINE
  8
_0-8_23
  6
CONTINUOUS
 62
    5
 10
134.93128600027393
 20
106.86829387927185
 11
134.93128600027393
 21
115.75829387927183
  0
LINE
  8
_0-8_23
  6
CONTINUOUS
 62
    5
 10
152.46128600027396
 20
104.32829387927183
 11
137.47128600027392
 21
104.32829387927183
  0
LINE
  8
_0-8_23
  6
CONTINUOUS
 62
    5
 10
152.46128600027396
 20
101.78829387927183
 11
137.47128600027392
 21
101.78829387927183
  0
LINE
  8
_0-8_23
  6
CONTINUOUS
 62
    5
 10
152.46128600027396
 20
99.248293879271841
 11
140.01128600027391
 21
99.248293879271841
  0
LINE
  8
_0-8_23
  6
CONTINUOUS
 62
    5
 10
152.46128600027396
 20
96.708293879271821
 11
140.01128600027391
 21
96.708293879271821
  0
LINE
  8
_0-8_23
  6
CONTINUOUS
 62
    5
 10
152.46128600027396
 20
94.168293879271829
 11
142.55128600027393
 21
94.168293879271829
  0
LINE
  8
_0-8_23
  6
CONTINUOUS
 62
    5
 10
153.98128600027394
 20
82.738293879271851
 11
150.17128600027394
 21
82.738293879271851
  0
LINE
  8
_0-8_23
  6
CONTINUOUS
 62
    5
 10
150.17128600027394
 20
82.738293879271851
 11
150.17128600027394
 21
85.278293879271814
  0
LINE
  8
_0-8_23
  6
CONTINUOUS
 62
    5
 10
150.17128600027394
 20
85.278293879271814
 11
153.98128600027394
 21
85.278293879271814
  0
LINE
  8
_0-8_23
  6
CONTINUOUS
 62
    5
 10
152.46128600027396
 20
80.19829387927183
 11
113.34128600027393
 21
80.19829387927183
  0
LINE
  8
_0-8_23
  6
CONTINUOUS
 62
    5
 10
152.46128600027396
 20
77.658293879271866
 11
137.47128600027392
 21
77.658293879271866
  0
LINE
  8
_0-8_23
  6
CONTINUOUS
 62
    5
 10
152.46128600027396
 20
75.118293879271846
 11
137.47128600027392
 21
75.118293879271846
  0
LINE
  8
_0-8_23
  6
CONTINUOUS
 62
    5
 10
152.46128600027396
 20
72.578293879271826
 11
140.01128600027391
 21
72.578293879271826
  0
LINE
  8
_0-8_23
  6
CONTINUOUS
 62
    5
 10
152.46128600027396
 20
70.038293879271862
 11
140.01128600027391
 21
70.038293879271862
  0
LINE
  8
_0-8_23
  6
CONTINUOUS
 62
    5
 10
152.46128600027396
 20
67.498293879271841
 11
142.55128600027393
 21
67.498293879271841
  0
LINE
  8
_0-8_23
  6
CONTINUOUS
 62
    5
 10
153.98128600027394
 20
56.068293879271835
 11
150.17128600027394
 21
56.068293879271835
  0
LINE
  8
_0-8_23
  6
CONTINUOUS
 62
    5
 10
150.17128600027394
 20
56.068293879271835
 11
150.17128600027394
 21
58.608293879271855
  0
LINE
  8
_0-8_23
  6
CONTINUOUS
 62
    5
 10
150.17128600027394
 20
58.608293879271855
 11
153.98128600027394
 21
58.608293879271855
  0
LINE
  8
_0-8_23
  6
CONTINUOUS
 62
    5
 10
152.46128600027396
 20
53.528293879271871
 11
112.07128600027391
 21
53.528293879271871
  0
LINE
  8
_0-8_23
  6
CONTINUOUS
 62
    5
 10
153.98128600027394
 20
50.988293879271851
 11
105.72128600027392
 21
50.988293879271851
  0
LINE
  8
_0-8_23
  6
CONTINUOUS
 62
    5
 10
155.25128600027398
 20
48.44829387927183
 11
138.74128600027393
 21
48.44829387927183
  0
LINE
  8
_0-8_23
  6
CONTINUOUS
 62
    5
 10
138.74128600027393
 20
48.44829387927183
 11
138.74128600027393
 21
50.988293879271851
  0
LINE
  8
_0-8_23
  6
CONTINUOUS
 62
    5
 10
155.25128600027398
 20
35.748293879271841
 11
155.25128600027398
 21
48.44829387927183
  0
LINE
  8
_0-8_23
  6
CONTINUOUS
 62
    5
 10
155.25128600027398
 20
35.748293879271841
 11
100.64128600027394
 21
35.748293879271841
  0
LINE
  8
_0-8_23
  6
CONTINUOUS
 62
    5
 10
100.64128600027396
 20
35.748293879271841
 11
100.64128600027396
 21
110.67829387927182
  0
LINE
  8
_0-8_23
  6
CONTINUOUS
 62
    5
 10
100.64128600027396
 20
110.67829387927182
 11
95.561286000273981
 21
110.67829387927182
  0
LINE
  8
_0-8_23
  6
CONTINUOUS
 62
    5
 10
95.561286000273981
 20
110.67829387927182
 11
95.561286000273981
 21
113.21829387927184
  0
LINE
  8
_0-8_23
  6
CONTINUOUS
 62
    5
 10
95.561286000273981
 20
113.21829387927184
 11
98.101286000273973
 21
113.21829387927184
  0
LINE
  8
_0-8_23
  6
CONTINUOUS
 62
    5
 10
98.101286000273973
 20
113.21829387927184
 11
98.101286000273973
 21
115.75829387927183
  0
LINE
  8
_0-8_23
  6
CONTINUOUS
 62
    5
 10
98.101286000273973
 20
115.75829387927183
 11
86.671286000273994
 21
115.75829387927183
  0
LINE
  8
_0-8_23
  6
CONTINUOUS
 62
    5
 10
152.71128600027396
 20
38.288293879271862
 11
152.71128600027396
 21
45.908293879271866
  0
LINE
  8
_0-8_23
  6
CONTINUOUS
 62
    5
 10
152.71128600027396
 20
38.288293879271862
 11
104.45128600027394
 21
38.288293879271862
  0
LINE
  8
_0-8_23
  6
CONTINUOUS
 62
    5
 10
104.45128600027394
 20
38.288293879271862
 11
104.45128600027394
 21
130.99829387927181
  0
LINE
  8
_0-8_23
  6
CONTINUOUS
 62
    5
 10
104.45128600027394
 20
118.29829387927182
 11
94.291286000273971
 21
118.29829387927182
  0
LINE
  8
_0-8_23
  6
CONTINUOUS
 62
    5
 10
104.45128600027394
 20
120.83829387927182
 11
95.811286000273981
 21
120.83829387927182
  0
LINE
  8
_0-8_23
  6
CONTINUOUS
 62
    5
 10
104.45128600027394
 20
123.37829387927184
 11
95.811286000273981
 21
123.37829387927184
  0
LINE
  8
_0-8_23
  6
CONTINUOUS
 62
    5
 10
104.45128600027394
 20
125.91829387927183
 11
95.811286000273981
 21
125.91829387927183
  0
LINE
  8
_0-8_23
  6
CONTINUOUS
 62
    5
 10
104.45128600027394
 20
128.45829387927182
 11
94.291286000273971
 21
128.45829387927182
  0
LINE
  8
_0-8_23
  6
CONTINUOUS
 62
    5
 10
104.45128600027394
 20
130.99829387927181
 11
87.941286000274005
 21
130.99829387927181
  0
LINE
  8
_0-8_23
  6
CONTINUOUS
 62
    5
 10
152.71128600027396
 20
40.828293879271854
 11
104.45128600027394
 21
40.828293879271854
  0
LINE
  8
_0-8_23
  6
CONTINUOUS
 62
    5
 10
105.72128600027395
 20
43.368293879271846
 11
105.72128600027395
 21
133.53829387927183
  0
LINE
  8
_0-8_23
  6
CONTINUOUS
 62
    5
 10
105.72128600027395
 20
133.53829387927183
 11
86.671286000273994
 21
133.53829387927183
  0
LINE
  8
_0-8_23
  6
CONTINUOUS
 62
    5
 10
152.71128600027396
 20
45.908293879271866
 11
105.72128600027392
 21
45.908293879271866
  0
LINE
  8
_0-8_23
  6
CONTINUOUS
 62
    5
 10
120.96128600027387
 20
40.828293879271854
 11
120.96128600027387
 21
43.368293879271846
  0
LINE
  8
_0-8_23
  6
CONTINUOUS
 62
    5
 10
98.101286000273944
 20
47.178293879271848
 11
98.101286000273944
 21
33.208293879271849
  0
LINE
  8
_0-8_23
  6
CONTINUOUS
 62
    5
 10
106.99128600027393
 20
66.22829387927186
 11
106.99128600027393
 21
136.07829387927183
  0
LINE
  8
_0-8_23
  6
CONTINUOUS
 62
    5
 10
106.99128600027393
 20
136.07829387927183
 11
86.671286000273994
 21
136.07829387927183
  0
LINE
  8
_0-8_23
  6
CONTINUOUS
 62
    5
 10
108.26128600027394
 20
76.388293879271828
 11
108.26128600027394
 21
138.61829387927182
  0
LINE
  8
_0-8_23
  6
CONTINUOUS
 62
    5
 10
108.26128600027394
 20
138.61829387927182
 11
86.671286000273994
 21
138.61829387927182
  0
LINE
  8
_0-8_23
  6
CONTINUOUS
 62
    5
 10
109.53128600027392
 20
92.898293879271847
 11
109.53128600027392
 21
141.15829387927181
  0
LINE
  8
_0-8_23
  6
CONTINUOUS
 62
    5
 10
109.53128600027392
 20
141.15829387927181
 11
86.671286000273994
 21
141.15829387927181
  0
LINE
  8
_0-8_23
  6
CONTINUOUS
 62
    5
 10
110.80128600027393
 20
99.248293879271841
 11
110.80128600027393
 21
143.69829387927183
  0
LINE
  8
_0-8_23
  6
CONTINUOUS
 62
    5
 10
110.80128600027393
 20
143.69829387927183
 11
86.671286000273994
 21
143.69829387927183
  0
LINE
  8
_0-8_23
  6
CONTINUOUS
 62
    5
 10
110.80128600027393
 20
120.83829387927182
 11
114.61128600027391
 21
120.83829387927182
  0
LINE
  8
_0-8_23
  6
CONTINUOUS
 62
    5
 10
113.09128600027393
 20
123.37829387927184
 11
110.80128600027393
 21
123.37829387927184
  0
LINE
  8
_0-8_23
  6
CONTINUOUS
 62
    5
 10
113.09128600027393
 20
125.91829387927183
 11
110.80128600027393
 21
125.91829387927183
  0
LINE
  8
_0-8_23
  6
CONTINUOUS
 62
    5
 10
113.09128600027393
 20
128.45829387927182
 11
110.80128600027393
 21
128.45829387927182
  0
LINE
  8
_0-8_23
  6
CONTINUOUS
 62
    5
 10
113.09128600027393
 20
130.99829387927181
 11
110.80128600027393
 21
130.99829387927181
  0
LINE
  8
_0-8_23
  6
CONTINUOUS
 62
    5
 10
113.09128600027393
 20
133.53829387927183
 11
110.80128600027393
 21
133.53829387927183
  0
LINE
  8
_0-8_23
  6
CONTINUOUS
 62
    5
 10
113.09128600027393
 20
136.07829387927183
 11
110.80128600027393
 21
136.07829387927183
  0
LINE
  8
_0-8_23
  6
CONTINUOUS
 62
    5
 10
113.09128600027393
 20
138.61829387927182
 11
110.80128600027393
 21
138.61829387927182
  0
LINE
  8
_0-8_23
  6
CONTINUOUS
 62
    5
 10
119.69128600027389
 20
118.29829387927182
 11
110.80128600027393
 21
118.29829387927182
  0
LINE
  8
_0-8_23
  6
CONTINUOUS
 62
    5
 10
118.42128600027391
 20
115.75829387927183
 11
110.80128600027393
 21
115.75829387927183
  0
LINE
  8
_0-8_23
  6
CONTINUOUS
 62
    5
 10
117.1512860002739
 20
113.21829387927184
 11
110.80128600027393
 21
113.21829387927184
  0
LINE
  8
_0-8_23
  6
CONTINUOUS
 62
    5
 10
115.63128600027389
 20
110.67829387927182
 11
110.80128600027393
 21
110.67829387927182
  0
LINE
  8
_0-8_23
  6
CONTINUOUS
 62
    5
 10
117.1512860002739
 20
108.13829387927183
 11
110.80128600027393
 21
108.13829387927183
  0
LINE
  8
_0-8_23
  6
CONTINUOUS
 62
    5
 10
118.42128600027391
 20
105.59829387927184
 11
110.80128600027393
 21
105.59829387927184
  0
LINE
  8
_0-8_23
  6
CONTINUOUS
 62
    5
 10
118.42128600027391
 20
103.05829387927184
 11
110.80128600027393
 21
103.05829387927184
  0
LINE
  8
_0-8_23
  6
CONTINUOUS
 62
    5
 10
118.42128600027391
 20
103.05829387927184
 11
120.23190995106475
 21
103.05829387927184
  0
LINE
  8
_0-8_23
  6
CONTINUOUS
 62
    5
 10
120.23190995106475
 20
103.05829387927184
 11
120.23190995106475
 21
104.86891783006268
  0
LINE
  8
_0-8_23
  6
CONTINUOUS
 62
    5
 10
118.42128600027391
 20
103.05829387927184
 11
120.23190995106475
 21
104.86891783006268
  0
CIRCLE
  8
_0-9_24
  6
CONTINUOUS
 62
    1
 10
184.46128600027396
 20
259.26829387927182
 40
0.5
  0
CIRCLE
  8
_0-9_24
  6
CONTINUOUS
 62
    1
 10
184.46128600027396
 20
256.7282938792718
 40
0.5
  0
CIRCLE
  8
_0-9_24
  6
CONTINUOUS
 62
    1
 10
184.46128600027396
 20
254.18829387927178
 40
0.5
  0
CIRCLE
  8
_0-9_24
  6
CONTINUOUS
 62
    1
 10
184.46128600027396
 20
232.59829387927181
 40
0.5
  0
CIRCLE
  8
_0-9_24
  6
CONTINUOUS
 62
    1
 10
184.46128600027396
 20
230.05829387927179
 40
0.5
  0
CIRCLE
  8
_0-9_24
  6
CONTINUOUS
 62
    1
 10
184.46128600027396
 20
227.51829387927179
 40
0.5
  0
CIRCLE
  8
_0-9_24
  6
CONTINUOUS
 62
    1
 10
184.46128600027396
 20
205.92829387927179
 40
0.5
  0
CIRCLE
  8
_0-9_24
  6
CONTINUOUS
 62
    1
 10
184.46128600027396
 20
203.3882938792718
 40
0.5
  0
CIRCLE
  8
_0-9_24
  6
CONTINUOUS
 62
    1
 10
184.46128600027396
 20
200.84829387927181
 40
0.5
  0
CIRCLE
  8
_0-9_24
  6
CONTINUOUS
 62
    1
 10
184.46128600027396
 20
179.2582938792718
 40
0.5
  0
CIRCLE
  8
_0-9_24
  6
CONTINUOUS
 62
    1
 10
184.46128600027396
 20
176.71829387927181
 40
0.5
  0
CIRCLE
  8
_0-9_24
  6
CONTINUOUS
 62
    1
 10
184.46128600027396
 20
174.17829387927182
 40
0.5
  0
CIRCLE
  8
_0-9_24
  6
CONTINUOUS
 62
    1
 10
184.46128600027396
 20
127.18829387927184
 40
0.5
  0
CIRCLE
  8
_0-9_24
  6
CONTINUOUS
 62
    1
 10
184.46128600027396
 20
129.72829387927183
 40
0.5
  0
CIRCLE
  8
_0-9_24
  6
CONTINUOUS
 62
    1
 10
184.46128600027396
 20
132.26829387927182
 40
0.5
  0
CIRCLE
  8
_0-9_24
  6
CONTINUOUS
 62
    1
 10
184.46128600027396
 20
47.178293879271848
 40
0.5
  0
CIRCLE
  8
_0-9_24
  6
CONTINUOUS
 62
    1
 10
184.46128600027396
 20
49.718293879271869
 40
0.5
  0
CIRCLE
  8
_0-9_24
  6
CONTINUOUS
 62
    1
 10
184.46128600027396
 20
52.258293879271832
 40
0.5
  0
CIRCLE
  8
_0-9_24
  6
CONTINUOUS
 62
    1
 10
184.46128600027396
 20
73.848293879271864
 40
0.5
  0
CIRCLE
  8
_0-9_24
  6
CONTINUOUS
 62
    1
 10
184.46128600027396
 20
76.388293879271828
 40
0.5
  0
CIRCLE
  8
_0-9_24
  6
CONTINUOUS
 62
    1
 10
184.46128600027396
 20
78.928293879271848
 40
0.5
  0
CIRCLE
  8
_0-9_24
  6
CONTINUOUS
 62
    1
 10
184.46128600027396
 20
100.51829387927182
 40
0.5
  0
CIRCLE
  8
_0-9_24
  6
CONTINUOUS
 62
    1
 10
184.46128600027396
 20
103.05829387927184
 40
0.5
  0
CIRCLE
  8
_0-9_24
  6
CONTINUOUS
 62
    1
 10
184.46128600027396
 20
105.59829387927184
 40
0.5
  0
CIRCLE
  8
_0-9_24
  6
CONTINUOUS
 62
    1
 10
151.44128600027398
 20
39.558293879271844
 40
0.5
  0
CIRCLE
  8
_0-9_24
  6
CONTINUOUS
 62
    1
 10
151.44128600027398
 20
42.098293879271864
 40
0.5
  0
CIRCLE
  8
_0-9_24
  6
CONTINUOUS
 62
    1
 10
151.44128600027398
 20
44.638293879271856
 40
0.5
  0
CIRCLE
  8
_0-9_24
  6
CONTINUOUS
 62
    1
 10
151.44128600027398
 20
47.178293879271848
 40
0.5
  0
CIRCLE
  8
_0-9_24
  6
CONTINUOUS
 62
    1
 10
151.44128600027398
 20
49.718293879271869
 40
0.5
  0
CIRCLE
  8
_0-9_24
  6
CONTINUOUS
 62
    1
 10
151.44128600027398
 20
52.258293879271832
 40
0.5
  0
CIRCLE
  8
_0-9_24
  6
CONTINUOUS
 62
    1
 10
151.44128600027398
 20
54.798293879271853
 40
0.5
  0
CIRCLE
  8
_0-9_24
  6
CONTINUOUS
 62
    1
 10
151.44128600027398
 20
57.338293879271845
 40
0.5
  0
CIRCLE
  8
_0-9_24
  6
CONTINUOUS
 62
    1
 10
151.44128600027398
 20
59.878293879271837
 40
0.5
  0
CIRCLE
  8
_0-9_24
  6
CONTINUOUS
 62
    1
 10
145.09128600027395
 20
39.558293879271844
 40
0.5
  0
CIRCLE
  8
_0-9_24
  6
CONTINUOUS
 62
    1
 10
143.82128600027391
 20
44.638293879271856
 40
0.5
  0
CIRCLE
  8
_0-9_24
  6
CONTINUOUS
 62
    1
 10
140.01128600027391
 20
49.718293879271869
 40
0.5
  0
CIRCLE
  8
_0-9_24
  6
CONTINUOUS
 62
    1
 10
137.47128600027392
 20
49.718293879271869
 40
0.5
  0
CIRCLE
  8
_0-9_24
  6
CONTINUOUS
 62
    1
 10
137.47128600027392
 20
59.878293879271837
 40
0.5
  0
CIRCLE
  8
_0-9_24
  6
CONTINUOUS
 62
    1
 10
136.20128600027391
 20
59.878293879271837
 40
0.5
  0
CIRCLE
  8
_0-9_24
  6
CONTINUOUS
 62
    1
 10
127.3112860002739
 20
42.098293879271864
 40
0.5
  0
CIRCLE
  8
_0-9_24
  6
CONTINUOUS
 62
    1
 10
119.69128600027389
 20
42.098293879271864
 40
0.5
  0
CIRCLE
  8
_0-9_24
  6
CONTINUOUS
 62
    1
 10
151.44128600027398
 20
66.22829387927186
 40
0.5
  0
CIRCLE
  8
_0-9_24
  6
CONTINUOUS
 62
    1
 10
146.36128600027394
 20
66.22829387927186
 40
0.5
  0
CIRCLE
  8
_0-9_24
  6
CONTINUOUS
 62
    1
 10
145.09128600027395
 20
66.22829387927186
 40
0.5
  0
CIRCLE
  8
_0-9_24
  6
CONTINUOUS
 62
    1
 10
143.82128600027394
 20
71.308293879271844
 40
0.5
  0
CIRCLE
  8
_0-9_24
  6
CONTINUOUS
 62
    1
 10
142.55128600027393
 20
71.308293879271844
 40
0.5
  0
CIRCLE
  8
_0-9_24
  6
CONTINUOUS
 62
    1
 10
151.44128600027398
 20
68.768293879271823
 40
0.5
  0
CIRCLE
  8
_0-9_24
  6
CONTINUOUS
 62
    1
 10
151.44128600027398
 20
71.308293879271844
 40
0.5
  0
CIRCLE
  8
_0-9_24
  6
CONTINUOUS
 62
    1
 10
151.44128600027398
 20
73.848293879271864
 40
0.5
  0
CIRCLE
  8
_0-9_24
  6
CONTINUOUS
 62
    1
 10
151.44128600027398
 20
76.388293879271828
 40
0.5
  0
CIRCLE
  8
_0-9_24
  6
CONTINUOUS
 62
    1
 10
151.44128600027398
 20
78.928293879271848
 40
0.5
  0
CIRCLE
  8
_0-9_24
  6
CONTINUOUS
 62
    1
 10
151.44128600027398
 20
81.46829387927184
 40
0.5
  0
CIRCLE
  8
_0-9_24
  6
CONTINUOUS
 62
    1
 10
151.44128600027398
 20
84.008293879271832
 40
0.5
  0
CIRCLE
  8
_0-9_24
  6
CONTINUOUS
 62
    1
 10
151.44128600027398
 20
86.548293879271853
 40
0.5
  0
CIRCLE
  8
_0-9_24
  6
CONTINUOUS
 62
    1
 10
137.47128600027392
 20
73.848293879271864
 40
0.5
  0
CIRCLE
  8
_0-9_24
  6
CONTINUOUS
 62
    1
 10
136.20128600027391
 20
73.848293879271864
 40
0.5
  0
CIRCLE
  8
_0-9_24
  6
CONTINUOUS
 62
    1
 10
127.3112860002739
 20
68.768293879271823
 40
0.5
  0
CIRCLE
  8
_0-9_24
  6
CONTINUOUS
 62
    1
 10
119.69128600027389
 20
68.768293879271823
 40
0.5
  0
CIRCLE
  8
_0-9_24
  6
CONTINUOUS
 62
    1
 10
141.28128600027395
 20
76.388293879271828
 40
0.5
  0
CIRCLE
  8
_0-9_24
  6
CONTINUOUS
 62
    1
 10
140.01128600027391
 20
76.388293879271828
 40
0.5
  0
CIRCLE
  8
_0-9_24
  6
CONTINUOUS
 62
    1
 10
137.47128600027392
 20
86.548293879271853
 40
0.5
  0
CIRCLE
  8
_0-9_24
  6
CONTINUOUS
 62
    1
 10
136.20128600027391
 20
86.548293879271853
 40
0.5
  0
CIRCLE
  8
_0-9_24
  6
CONTINUOUS
 62
    1
 10
114.61128600027391
 20
39.558293879271844
 40
0.5
  0
CIRCLE
  8
_0-9_24
  6
CONTINUOUS
 62
    1
 10
108.26128600027391
 20
39.558293879271844
 40
0.5
  0
CIRCLE
  8
_0-9_24
  6
CONTINUOUS
 62
    1
 10
108.26128600027391
 20
44.638293879271856
 40
0.5
  0
CIRCLE
  8
_0-9_24
  6
CONTINUOUS
 62
    1
 10
96.831286000273963
 20
39.558293879271844
 40
0.5
  0
CIRCLE
  8
_0-9_24
  6
CONTINUOUS
 62
    1
 10
96.831286000273963
 20
44.638293879271856
 40
0.5
  0
CIRCLE
  8
_0-9_24
  6
CONTINUOUS
 62
    1
 10
106.99128600027393
 20
49.718293879271869
 40
0.5
  0
CIRCLE
  8
_0-9_24
  6
CONTINUOUS
 62
    1
 10
112.07128600027391
 20
44.638293879271856
 40
0.5
  0
CIRCLE
  8
_0-9_24
  6
CONTINUOUS
 62
    1
 10
114.61128600027391
 20
48.44829387927183
 40
0.5
  0
CIRCLE
  8
_0-9_24
  6
CONTINUOUS
 62
    1
 10
115.88128600027392
 20
81.46829387927184
 40
0.5
  0
CIRCLE
  8
_0-9_24
  6
CONTINUOUS
 62
    1
 10
119.69128600027389
 20
95.438293879271839
 40
0.5
  0
CIRCLE
  8
_0-9_24
  6
CONTINUOUS
 62
    1
 10
127.3112860002739
 20
95.438293879271839
 40
0.5
  0
CIRCLE
  8
_0-9_24
  6
CONTINUOUS
 62
    1
 10
119.69128600027389
 20
101.78829387927183
 40
0.5
  0
CIRCLE
  8
_0-9_24
  6
CONTINUOUS
 62
    1
 10
112.07128600027391
 20
101.78829387927183
 40
0.5
  0
CIRCLE
  8
_0-9_24
  6
CONTINUOUS
 62
    1
 10
112.07128600027391
 20
104.32829387927183
 40
0.5
  0
CIRCLE
  8
_0-9_24
  6
CONTINUOUS
 62
    1
 10
112.07128600027391
 20
139.88829387927183
 40
0.5
  0
CIRCLE
  8
_0-9_24
  6
CONTINUOUS
 62
    1
 10
112.07128600027391
 20
137.34829387927184
 40
0.5
  0
CIRCLE
  8
_0-9_24
  6
CONTINUOUS
 62
    1
 10
112.07128600027391
 20
134.80829387927182
 40
0.5
  0
CIRCLE
  8
_0-9_24
  6
CONTINUOUS
 62
    1
 10
112.07128600027391
 20
132.26829387927182
 40
0.5
  0
CIRCLE
  8
_0-9_24
  6
CONTINUOUS
 62
    1
 10
112.07128600027391
 20
129.72829387927183
 40
0.5
  0
CIRCLE
  8
_0-9_24
  6
CONTINUOUS
 62
    1
 10
112.07128600027391
 20
127.18829387927184
 40
0.5
  0
CIRCLE
  8
_0-9_24
  6
CONTINUOUS
 62
    1
 10
112.07128600027391
 20
124.64829387927182
 40
0.5
  0
CIRCLE
  8
_0-9_24
  6
CONTINUOUS
 62
    1
 10
112.07128600027391
 20
122.10829387927183
 40
0.5
  0
CIRCLE
  8
_0-9_24
  6
CONTINUOUS
 62
    1
 10
112.07128600027391
 20
119.56829387927183
 40
0.5
  0
CIRCLE
  8
_0-9_24
  6
CONTINUOUS
 62
    1
 10
118.42128600027391
 20
119.56829387927183
 40
0.5
  0
CIRCLE
  8
_0-9_24
  6
CONTINUOUS
 62
    1
 10
117.1512860002739
 20
117.02829387927184
 40
0.5
  0
CIRCLE
  8
_0-9_24
  6
CONTINUOUS
 62
    1
 10
112.07128600027391
 20
117.02829387927184
 40
0.5
  0
CIRCLE
  8
_0-9_24
  6
CONTINUOUS
 62
    1
 10
112.07128600027391
 20
114.48829387927182
 40
0.5
  0
CIRCLE
  8
_0-9_24
  6
CONTINUOUS
 62
    1
 10
115.88128600027392
 20
114.48829387927182
 40
0.5
  0
CIRCLE
  8
_0-9_24
  6
CONTINUOUS
 62
    1
 10
114.61128600027391
 20
111.94829387927183
 40
0.5
  0
CIRCLE
  8
_0-9_24
  6
CONTINUOUS
 62
    1
 10
112.07128600027391
 20
111.94829387927183
 40
0.5
  0
CIRCLE
  8
_0-9_24
  6
CONTINUOUS
 62
    1
 10
112.07128600027391
 20
109.40829387927184
 40
0.5
  0
CIRCLE
  8
_0-9_24
  6
CONTINUOUS
 62
    1
 10
114.61128600027391
 20
109.40829387927184
 40
0.5
  0
CIRCLE
  8
_0-9_24
  6
CONTINUOUS
 62
    1
 10
115.88128600027392
 20
106.86829387927185
 40
0.5
  0
CIRCLE
  8
_0-9_24
  6
CONTINUOUS
 62
    1
 10
112.07128600027391
 20
106.86829387927185
 40
0.5
  0
CIRCLE
  8
_0-9_24
  6
CONTINUOUS
 62
    1
 10
128.58128600027391
 20
108.13829387927183
 40
0.5
  0
CIRCLE
  8
_0-9_24
  6
CONTINUOUS
 62
    1
 10
119.69128600027389
 20
134.80829387927182
 40
0.5
  0
CIRCLE
  8
_0-9_24
  6
CONTINUOUS
 62
    1
 10
127.3112860002739
 20
139.88829387927183
 40
0.5
  0
CIRCLE
  8
_0-9_24
  6
CONTINUOUS
 62
    1
 10
127.3112860002739
 20
134.80829387927182
 40
0.5
  0
CIRCLE
  8
_0-9_24
  6
CONTINUOUS
 62
    1
 10
127.3112860002739
 20
129.72829387927183
 40
0.5
  0
CIRCLE
  8
_0-9_24
  6
CONTINUOUS
 62
    1
 10
151.44128600027398
 20
113.21829387927184
 40
0.5
  0
CIRCLE
  8
_0-9_24
  6
CONTINUOUS
 62
    1
 10
151.44128600027398
 20
110.67829387927182
 40
0.5
  0
CIRCLE
  8
_0-9_24
  6
CONTINUOUS
 62
    1
 10
151.44128600027398
 20
108.13829387927183
 40
0.5
  0
CIRCLE
  8
_0-9_24
  6
CONTINUOUS
 62
    1
 10
151.44128600027398
 20
105.59829387927184
 40
0.5
  0
CIRCLE
  8
_0-9_24
  6
CONTINUOUS
 62
    1
 10
151.44128600027398
 20
103.05829387927184
 40
0.5
  0
CIRCLE
  8
_0-9_24
  6
CONTINUOUS
 62
    1
 10
151.44128600027398
 20
100.51829387927182
 40
0.5
  0
CIRCLE
  8
_0-9_24
  6
CONTINUOUS
 62
    1
 10
151.44128600027398
 20
97.97829387927186
 40
0.5
  0
CIRCLE
  8
_0-9_24
  6
CONTINUOUS
 62
    1
 10
151.44128600027398
 20
95.438293879271839
 40
0.5
  0
CIRCLE
  8
_0-9_24
  6
CONTINUOUS
 62
    1
 10
151.44128600027398
 20
92.898293879271847
 40
0.5
  0
CIRCLE
  8
_0-9_24
  6
CONTINUOUS
 62
    1
 10
146.36128600027394
 20
92.898293879271847
 40
0.5
  0
CIRCLE
  8
_0-9_24
  6
CONTINUOUS
 62
    1
 10
145.09128600027395
 20
92.898293879271847
 40
0.5
  0
CIRCLE
  8
_0-9_24
  6
CONTINUOUS
 62
    1
 10
143.82128600027394
 20
97.97829387927186
 40
0.5
  0
CIRCLE
  8
_0-9_24
  6
CONTINUOUS
 62
    1
 10
142.55128600027393
 20
97.978293879271831
 40
0.5
  0
CIRCLE
  8
_0-9_24
  6
CONTINUOUS
 62
    1
 10
141.28128600027395
 20
103.05829387927184
 40
0.5
  0
CIRCLE
  8
_0-9_24
  6
CONTINUOUS
 62
    1
 10
140.01128600027391
 20
103.05829387927184
 40
0.5
  0
CIRCLE
  8
_0-9_24
  6
CONTINUOUS
 62
    1
 10
137.47128600027392
 20
100.51829387927182
 40
0.5
  0
CIRCLE
  8
_0-9_24
  6
CONTINUOUS
 62
    1
 10
136.20128600027391
 20
100.51829387927182
 40
0.5
  0
CIRCLE
  8
_0-9_24
  6
CONTINUOUS
 62
    1
 10
136.20128600027391
 20
108.13829387927183
 40
0.5
  0
CIRCLE
  8
_0-9_24
  6
CONTINUOUS
 62
    1
 10
137.47128600027392
 20
113.21829387927184
 40
0.5
  0
CIRCLE
  8
_0-9_24
  6
CONTINUOUS
 62
    1
 10
136.20128600027391
 20
113.21829387927184
 40
0.5
  0
CIRCLE
  8
_0-9_24
  6
CONTINUOUS
 62
    1
 10
146.36128600027394
 20
119.56829387927183
 40
0.5
  0
CIRCLE
  8
_0-9_24
  6
CONTINUOUS
 62
    1
 10
145.09128600027395
 20
119.56829387927183
 40
0.5
  0
CIRCLE
  8
_0-9_24
  6
CONTINUOUS
 62
    1
 10
151.44128600027398
 20
119.56829387927183
 40
0.5
  0
CIRCLE
  8
_0-9_24
  6
CONTINUOUS
 62
    1
 10
151.44128600027398
 20
139.88829387927183
 40
0.5
  0
CIRCLE
  8
_0-9_24
  6
CONTINUOUS
 62
    1
 10
151.44128600027398
 20
137.34829387927184
 40
0.5
  0
CIRCLE
  8
_0-9_24
  6
CONTINUOUS
 62
    1
 10
151.44128600027398
 20
134.80829387927182
 40
0.5
  0
CIRCLE
  8
_0-9_24
  6
CONTINUOUS
 62
    1
 10
151.44128600027398
 20
132.26829387927182
 40
0.5
  0
CIRCLE
  8
_0-9_24
  6
CONTINUOUS
 62
    1
 10
151.44128600027398
 20
129.72829387927183
 40
0.5
  0
CIRCLE
  8
_0-9_24
  6
CONTINUOUS
 62
    1
 10
151.44128600027398
 20
127.18829387927184
 40
0.5
  0
CIRCLE
  8
_0-9_24
  6
CONTINUOUS
 62
    1
 10
151.44128600027398
 20
124.64829387927188
 40
0.5
  0
CIRCLE
  8
_0-9_24
  6
CONTINUOUS
 62
    1
 10
151.44128600027398
 20
122.10829387927183
 40
0.5
  0
CIRCLE
  8
_0-9_24
  6
CONTINUOUS
 62
    1
 10
143.82128600027394
 20
124.64829387927182
 40
0.5
  0
CIRCLE
  8
_0-9_24
  6
CONTINUOUS
 62
    1
 10
142.55128600027393
 20
124.64829387927182
 40
0.5
  0
CIRCLE
  8
_0-9_24
  6
CONTINUOUS
 62
    1
 10
141.28128600027395
 20
129.72829387927183
 40
0.5
  0
CIRCLE
  8
_0-9_24
  6
CONTINUOUS
 62
    1
 10
140.01128600027391
 20
129.72829387927183
 40
0.5
  0
CIRCLE
  8
_0-9_24
  6
CONTINUOUS
 62
    1
 10
140.01128600027391
 20
134.80829387927182
 40
0.5
  0
CIRCLE
  8
_0-9_24
  6
CONTINUOUS
 62
    1
 10
140.01128600027391
 20
139.88829387927183
 40
0.5
  0
CIRCLE
  8
_0-9_24
  6
CONTINUOUS
 62
    1
 10
138.74128600027393
 20
139.88829387927183
 40
0.5
  0
CIRCLE
  8
_0-9_24
  6
CONTINUOUS
 62
    1
 10
136.20128600027391
 20
129.72829387927183
 40
0.5
  0
CIRCLE
  8
_0-9_24
  6
CONTINUOUS
 62
    1
 10
136.20128600027391
 20
127.18829387927184
 40
0.5
  0
CIRCLE
  8
_0-9_24
  6
CONTINUOUS
 62
    1
 10
96.831286000273963
 20
111.94829387927183
 40
0.5
  0
CIRCLE
  8
_0-9_24
  6
CONTINUOUS
 62
    1
 10
96.831286000273963
 20
114.48829387927182
 40
0.5
  0
CIRCLE
  8
_0-9_24
  6
CONTINUOUS
 62
    1
 10
91.751286000273979
 20
114.48829387927182
 40
0.5
  0
CIRCLE
  8
_0-9_24
  6
CONTINUOUS
 62
    1
 10
87.941286000274005
 20
114.48829387927182
 40
0.5
  0
CIRCLE
  8
_0-9_24
  6
CONTINUOUS
 62
    1
 10
96.831286000273963
 20
117.02829387927184
 40
0.5
  0
CIRCLE
  8
_0-9_24
  6
CONTINUOUS
 62
    1
 10
93.021286000273989
 20
117.02829387927184
 40
0.5
  0
CIRCLE
  8
_0-9_24
  6
CONTINUOUS
 62
    1
 10
87.941286000274005
 20
117.02829387927184
 40
0.5
  0
CIRCLE
  8
_0-9_24
  6
CONTINUOUS
 62
    1
 10
96.831286000273963
 20
119.56829387927183
 40
0.5
  0
CIRCLE
  8
_0-9_24
  6
CONTINUOUS
 62
    1
 10
96.831286000273991
 20
122.10829387927183
 40
0.5
  0
CIRCLE
  8
_0-9_24
  6
CONTINUOUS
 62
    1
 10
103.18128600027396
 20
119.56829387927183
 40
0.5
  0
CIRCLE
  8
_0-9_24
  6
CONTINUOUS
 62
    1
 10
101.91128600027395
 20
122.10829387927183
 40
0.5
  0
CIRCLE
  8
_0-9_24
  6
CONTINUOUS
 62
    1
 10
100.64128600027396
 20
124.64829387927182
 40
0.5
  0
CIRCLE
  8
_0-9_24
  6
CONTINUOUS
 62
    1
 10
99.371286000273983
 20
127.18829387927184
 40
0.5
  0
CIRCLE
  8
_0-9_24
  6
CONTINUOUS
 62
    1
 10
96.831286000273963
 20
124.64829387927182
 40
0.5
  0
CIRCLE
  8
_0-9_24
  6
CONTINUOUS
 62
    1
 10
96.831286000273991
 20
127.18829387927184
 40
0.5
  0
CIRCLE
  8
_0-9_24
  6
CONTINUOUS
 62
    1
 10
96.831286000273963
 20
129.72829387927183
 40
0.5
  0
CIRCLE
  8
_0-9_24
  6
CONTINUOUS
 62
    1
 10
90.481286000273997
 20
129.72829387927183
 40
0.5
  0
CIRCLE
  8
_0-9_24
  6
CONTINUOUS
 62
    1
 10
87.941286000274005
 20
132.26829387927182
 40
0.5
  0
CIRCLE
  8
_0-9_24
  6
CONTINUOUS
 62
    1
 10
87.941286000274005
 20
134.80829387927182
 40
0.5
  0
CIRCLE
  8
_0-9_24
  6
CONTINUOUS
 62
    1
 10
87.941286000274005
 20
137.34829387927184
 40
0.5
  0
CIRCLE
  8
_0-9_24
  6
CONTINUOUS
 62
    1
 10
87.941286000274005
 20
139.88829387927183
 40
0.5
  0
CIRCLE
  8
_0-9_24
  6
CONTINUOUS
 62
    1
 10
87.941286000274005
 20
142.42829387927182
 40
0.5
  0
CIRCLE
  8
_0-9_24
  6
CONTINUOUS
 62
    1
 10
87.941286000274005
 20
144.96829387927181
 40
0.5
  0
CIRCLE
  8
_0-9_24
  6
CONTINUOUS
 62
    1
 10
87.941286000274005
 20
147.50829387927183
 40
0.5
  0
CIRCLE
  8
_0-9_24
  6
CONTINUOUS
 62
    1
 10
87.941286000274005
 20
150.04829387927182
 40
0.5
  0
CIRCLE
  8
_0-9_24
  6
CONTINUOUS
 62
    1
 10
87.941286000274005
 20
152.58829387927182
 40
0.5
  0
CIRCLE
  8
_0-9_24
  6
CONTINUOUS
 62
    1
 10
87.941286000274005
 20
155.12829387927181
 40
0.5
  0
CIRCLE
  8
_0-9_24
  6
CONTINUOUS
 62
    1
 10
87.941286000274005
 20
157.66829387927183
 40
0.5
  0
CIRCLE
  8
_0-9_24
  6
CONTINUOUS
 62
    1
 10
87.941286000274005
 20
160.20829387927182
 40
0.5
  0
CIRCLE
  8
_0-9_24
  6
CONTINUOUS
 62
    1
 10
87.941286000274005
 20
162.74829387927181
 40
0.5
  0
CIRCLE
  8
_0-9_24
  6
CONTINUOUS
 62
    1
 10
87.941286000274005
 20
165.28829387927181
 40
0.5
  0
CIRCLE
  8
_0-9_24
  6
CONTINUOUS
 62
    1
 10
87.941286000274005
 20
167.82829387927183
 40
0.5
  0
CIRCLE
  8
_0-9_24
  6
CONTINUOUS
 62
    1
 10
87.941286000274005
 20
170.36829387927182
 40
0.5
  0
CIRCLE
  8
_0-9_24
  6
CONTINUOUS
 62
    1
 10
104.45128600027391
 20
157.66829387927183
 40
0.5
  0
CIRCLE
  8
_0-9_24
  6
CONTINUOUS
 62
    1
 10
104.45128600027391
 20
152.58829387927182
 40
0.5
  0
CIRCLE
  8
_0-9_24
  6
CONTINUOUS
 62
    1
 10
104.45128600027391
 20
147.50829387927183
 40
0.5
  0
CIRCLE
  8
_0-9_24
  6
CONTINUOUS
 62
    1
 10
112.07128600027391
 20
147.50829387927183
 40
0.5
  0
CIRCLE
  8
_0-9_24
  6
CONTINUOUS
 62
    1
 10
112.07128600027391
 20
152.58829387927182
 40
0.5
  0
CIRCLE
  8
_0-9_24
  6
CONTINUOUS
 62
    1
 10
112.07128600027391
 20
157.66829387927183
 40
0.5
  0
CIRCLE
  8
_0-9_24
  6
CONTINUOUS
 62
    1
 10
124.77128600027388
 20
152.58829387927182
 40
0.5
  0
CIRCLE
  8
_0-9_24
  6
CONTINUOUS
 62
    1
 10
123.50128600027389
 20
155.12829387927181
 40
0.5
  0
CIRCLE
  8
_0-9_24
  6
CONTINUOUS
 62
    1
 10
122.23128600027388
 20
157.66829387927183
 40
0.5
  0
CIRCLE
  8
_0-9_24
  6
CONTINUOUS
 62
    1
 10
120.9612860002739
 20
160.20829387927182
 40
0.5
  0
CIRCLE
  8
_0-9_24
  6
CONTINUOUS
 62
    1
 10
112.07128600027391
 20
167.82829387927183
 40
0.5
  0
CIRCLE
  8
_0-9_24
  6
CONTINUOUS
 62
    1
 10
112.07128600027394
 20
170.36829387927182
 40
0.5
  0
CIRCLE
  8
_0-9_24
  6
CONTINUOUS
 62
    1
 10
112.07128600027391
 20
172.90829387927181
 40
0.5
  0
CIRCLE
  8
_0-9_24
  6
CONTINUOUS
 62
    1
 10
112.07128600027391
 20
175.44829387927183
 40
0.5
  0
CIRCLE
  8
_0-9_24
  6
CONTINUOUS
 62
    1
 10
112.07128600027391
 20
177.98829387927182
 40
0.5
  0
CIRCLE
  8
_0-9_24
  6
CONTINUOUS
 62
    1
 10
112.07128600027391
 20
180.52829387927181
 40
0.5
  0
CIRCLE
  8
_0-9_24
  6
CONTINUOUS
 62
    1
 10
112.07128600027391
 20
183.06829387927181
 40
0.5
  0
CIRCLE
  8
_0-9_24
  6
CONTINUOUS
 62
    1
 10
112.07128600027391
 20
185.6082938792718
 40
0.5
  0
CIRCLE
  8
_0-9_24
  6
CONTINUOUS
 62
    1
 10
112.07128600027391
 20
188.14829387927182
 40
0.5
  0
CIRCLE
  8
_0-9_24
  6
CONTINUOUS
 62
    1
 10
112.07128600027391
 20
190.68829387927181
 40
0.5
  0
CIRCLE
  8
_0-9_24
  6
CONTINUOUS
 62
    1
 10
118.42128600027391
 20
188.14829387927182
 40
0.5
  0
CIRCLE
  8
_0-9_24
  6
CONTINUOUS
 62
    1
 10
112.07128600027391
 20
193.2282938792718
 40
0.5
  0
CIRCLE
  8
_0-9_24
  6
CONTINUOUS
 62
    1
 10
112.07128600027391
 20
195.76829387927182
 40
0.5
  0
CIRCLE
  8
_0-9_24
  6
CONTINUOUS
 62
    1
 10
112.07128600027391
 20
198.30829387927182
 40
0.5
  0
CIRCLE
  8
_0-9_24
  6
CONTINUOUS
 62
    1
 10
112.07128600027391
 20
200.84829387927181
 40
0.5
  0
CIRCLE
  8
_0-9_24
  6
CONTINUOUS
 62
    1
 10
112.07128600027391
 20
203.3882938792718
 40
0.5
  0
CIRCLE
  8
_0-9_24
  6
CONTINUOUS
 62
    1
 10
112.07128600027391
 20
205.92829387927179
 40
0.5
  0
CIRCLE
  8
_0-9_24
  6
CONTINUOUS
 62
    1
 10
103.18128600027396
 20
185.6082938792718
 40
0.5
  0
CIRCLE
  8
_0-9_24
  6
CONTINUOUS
 62
    1
 10
101.91128600027398
 20
188.14829387927182
 40
0.5
  0
CIRCLE
  8
_0-9_24
  6
CONTINUOUS
 62
    1
 10
100.64128600027396
 20
190.68829387927181
 40
0.5
  0
CIRCLE
  8
_0-9_24
  6
CONTINUOUS
 62
    1
 10
99.371286000273955
 20
193.2282938792718
 40
0.5
  0
CIRCLE
  8
_0-9_24
  6
CONTINUOUS
 62
    1
 10
96.831286000273963
 20
195.76829387927182
 40
0.5
  0
CIRCLE
  8
_0-9_24
  6
CONTINUOUS
 62
    1
 10
96.831286000273963
 20
193.2282938792718
 40
0.5
  0
CIRCLE
  8
_0-9_24
  6
CONTINUOUS
 62
    1
 10
96.831286000273963
 20
190.68829387927181
 40
0.5
  0
CIRCLE
  8
_0-9_24
  6
CONTINUOUS
 62
    1
 10
96.831286000273963
 20
188.14829387927182
 40
0.5
  0
CIRCLE
  8
_0-9_24
  6
CONTINUOUS
 62
    1
 10
96.831286000273991
 20
185.6082938792718
 40
0.5
  0
CIRCLE
  8
_0-9_24
  6
CONTINUOUS
 62
    1
 10
96.831286000273963
 20
183.06829387927181
 40
0.5
  0
CIRCLE
  8
_0-9_24
  6
CONTINUOUS
 62
    1
 10
96.831286000273963
 20
180.52829387927181
 40
0.5
  0
CIRCLE
  8
_0-9_24
  6
CONTINUOUS
 62
    1
 10
96.831286000273963
 20
177.98829387927182
 40
0.5
  0
CIRCLE
  8
_0-9_24
  6
CONTINUOUS
 62
    1
 10
94.291286000273971
 20
175.44829387927183
 40
0.5
  0
CIRCLE
  8
_0-9_24
  6
CONTINUOUS
 62
    1
 10
93.021286000273989
 20
177.98829387927182
 40
0.5
  0
CIRCLE
  8
_0-9_24
  6
CONTINUOUS
 62
    1
 10
91.751286000273979
 20
180.52829387927181
 40
0.5
  0
CIRCLE
  8
_0-9_24
  6
CONTINUOUS
 62
    1
 10
93.021286000273989
 20
193.2282938792718
 40
0.5
  0
CIRCLE
  8
_0-9_24
  6
CONTINUOUS
 62
    1
 10
87.941286000274005
 20
180.52829387927181
 40
0.5
  0
CIRCLE
  8
_0-9_24
  6
CONTINUOUS
 62
    1
 10
87.941286000274005
 20
183.06829387927181
 40
0.5
  0
CIRCLE
  8
_0-9_24
  6
CONTINUOUS
 62
    1
 10
90.481286000273997
 20
183.06829387927181
 40
0.5
  0
CIRCLE
  8
_0-9_24
  6
CONTINUOUS
 62
    1
 10
87.941286000274005
 20
185.6082938792718
 40
0.5
  0
CIRCLE
  8
_0-9_24
  6
CONTINUOUS
 62
    1
 10
87.941286000274005
 20
198.30829387927182
 40
0.5
  0
CIRCLE
  8
_0-9_24
  6
CONTINUOUS
 62
    1
 10
87.941286000274005
 20
200.84829387927181
 40
0.5
  0
CIRCLE
  8
_0-9_24
  6
CONTINUOUS
 62
    1
 10
87.941286000274005
 20
203.3882938792718
 40
0.5
  0
CIRCLE
  8
_0-9_24
  6
CONTINUOUS
 62
    1
 10
87.941286000274005
 20
205.92829387927179
 40
0.5
  0
CIRCLE
  8
_0-9_24
  6
CONTINUOUS
 62
    1
 10
87.941286000274005
 20
216.08829387927182
 40
0.5
  0
CIRCLE
  8
_0-9_24
  6
CONTINUOUS
 62
    1
 10
87.941286000274005
 20
213.5482938792718
 40
0.5
  0
CIRCLE
  8
_0-9_24
  6
CONTINUOUS
 62
    1
 10
87.941286000274005
 20
211.0082938792718
 40
0.5
  0
CIRCLE
  8
_0-9_24
  6
CONTINUOUS
 62
    1
 10
87.941286000274005
 20
208.46829387927181
 40
0.5
  0
CIRCLE
  8
_0-9_24
  6
CONTINUOUS
 62
    1
 10
94.291286000273971
 20
208.46829387927181
 40
0.5
  0
CIRCLE
  8
_0-9_24
  6
CONTINUOUS
 62
    1
 10
93.021286000273989
 20
211.0082938792718
 40
0.5
  0
CIRCLE
  8
_0-9_24
  6
CONTINUOUS
 62
    1
 10
117.1512860002739
 20
222.43829387927181
 40
0.5
  0
CIRCLE
  8
_0-9_24
  6
CONTINUOUS
 62
    1
 10
115.88128600027392
 20
235.1382938792718
 40
0.5
  0
CIRCLE
  8
_0-9_24
  6
CONTINUOUS
 62
    1
 10
151.44128600027398
 20
166.55829387927182
 40
0.5
  0
CIRCLE
  8
_0-9_24
  6
CONTINUOUS
 62
    1
 10
151.44128600027398
 20
169.09829387927181
 40
0.5
  0
CIRCLE
  8
_0-9_24
  6
CONTINUOUS
 62
    1
 10
151.44128600027398
 20
171.6382938792718
 40
0.5
  0
CIRCLE
  8
_0-9_24
  6
CONTINUOUS
 62
    1
 10
151.44128600027398
 20
174.17829387927182
 40
0.5
  0
CIRCLE
  8
_0-9_24
  6
CONTINUOUS
 62
    1
 10
151.44128600027398
 20
176.71829387927181
 40
0.5
  0
CIRCLE
  8
_0-9_24
  6
CONTINUOUS
 62
    1
 10
151.44128600027398
 20
179.2582938792718
 40
0.5
  0
CIRCLE
  8
_0-9_24
  6
CONTINUOUS
 62
    1
 10
151.44128600027398
 20
181.79829387927182
 40
0.5
  0
CIRCLE
  8
_0-9_24
  6
CONTINUOUS
 62
    1
 10
151.44128600027398
 20
184.33829387927182
 40
0.5
  0
CIRCLE
  8
_0-9_24
  6
CONTINUOUS
 62
    1
 10
151.44128600027398
 20
186.87829387927181
 40
0.5
  0
CIRCLE
  8
_0-9_24
  6
CONTINUOUS
 62
    1
 10
138.74128600027393
 20
186.87829387927181
 40
0.5
  0
CIRCLE
  8
_0-9_24
  6
CONTINUOUS
 62
    1
 10
137.47128600027395
 20
186.87829387927181
 40
0.5
  0
CIRCLE
  8
_0-9_24
  6
CONTINUOUS
 62
    1
 10
141.28128600027395
 20
176.71829387927181
 40
0.5
  0
CIRCLE
  8
_0-9_24
  6
CONTINUOUS
 62
    1
 10
140.01128600027394
 20
176.71829387927181
 40
0.5
  0
CIRCLE
  8
_0-9_24
  6
CONTINUOUS
 62
    1
 10
132.39128600027391
 20
179.2582938792718
 40
0.5
  0
CIRCLE
  8
_0-9_24
  6
CONTINUOUS
 62
    1
 10
138.74128600027393
 20
174.17829387927182
 40
0.5
  0
CIRCLE
  8
_0-9_24
  6
CONTINUOUS
 62
    1
 10
140.01128600027394
 20
174.17829387927182
 40
0.5
  0
CIRCLE
  8
_0-9_24
  6
CONTINUOUS
 62
    1
 10
143.82128600027394
 20
171.63829387927183
 40
0.5
  0
CIRCLE
  8
_0-9_24
  6
CONTINUOUS
 62
    1
 10
142.55128600027393
 20
171.63829387927183
 40
0.5
  0
CIRCLE
  8
_0-9_24
  6
CONTINUOUS
 62
    1
 10
137.47128600027395
 20
169.09829387927181
 40
0.5
  0
CIRCLE
  8
_0-9_24
  6
CONTINUOUS
 62
    1
 10
146.36128600027394
 20
166.55829387927182
 40
0.5
  0
CIRCLE
  8
_0-9_24
  6
CONTINUOUS
 62
    1
 10
145.09128600027395
 20
166.55829387927182
 40
0.5
  0
CIRCLE
  8
_0-9_24
  6
CONTINUOUS
 62
    1
 10
151.44128600027398
 20
193.2282938792718
 40
0.5
  0
CIRCLE
  8
_0-9_24
  6
CONTINUOUS
 62
    1
 10
146.36128600027394
 20
193.2282938792718
 40
0.5
  0
CIRCLE
  8
_0-9_24
  6
CONTINUOUS
 62
    1
 10
145.09128600027395
 20
193.2282938792718
 40
0.5
  0
CIRCLE
  8
_0-9_24
  6
CONTINUOUS
 62
    1
 10
151.44128600027398
 20
195.76829387927182
 40
0.5
  0
CIRCLE
  8
_0-9_24
  6
CONTINUOUS
 62
    1
 10
143.82128600027394
 20
198.3082938792719
 40
0.5
  0
CIRCLE
  8
_0-9_24
  6
CONTINUOUS
 62
    1
 10
133.66128600027392
 20
195.76829387927182
 40
0.5
  0
CIRCLE
  8
_0-9_24
  6
CONTINUOUS
 62
    1
 10
142.55128600027393
 20
198.3082938792719
 40
0.5
  0
CIRCLE
  8
_0-9_24
  6
CONTINUOUS
 62
    1
 10
138.74128600027393
 20
200.84829387927181
 40
0.5
  0
CIRCLE
  8
_0-9_24
  6
CONTINUOUS
 62
    1
 10
137.47128600027395
 20
200.84829387927181
 40
0.5
  0
CIRCLE
  8
_0-9_24
  6
CONTINUOUS
 62
    1
 10
151.44128600027398
 20
200.84829387927181
 40
0.5
  0
CIRCLE
  8
_0-9_24
  6
CONTINUOUS
 62
    1
 10
151.44128600027398
 20
198.30829387927182
 40
0.5
  0
CIRCLE
  8
_0-9_24
  6
CONTINUOUS
 62
    1
 10
151.44128600027398
 20
203.3882938792718
 40
0.5
  0
CIRCLE
  8
_0-9_24
  6
CONTINUOUS
 62
    1
 10
141.28128600027395
 20
203.3882938792718
 40
0.5
  0
CIRCLE
  8
_0-9_24
  6
CONTINUOUS
 62
    1
 10
140.01128600027394
 20
203.3882938792718
 40
0.5
  0
CIRCLE
  8
_0-9_24
  6
CONTINUOUS
 62
    1
 10
133.66128600027392
 20
205.92829387927179
 40
0.5
  0
CIRCLE
  8
_0-9_24
  6
CONTINUOUS
 62
    1
 10
151.44128600027398
 20
205.92829387927179
 40
0.5
  0
CIRCLE
  8
_0-9_24
  6
CONTINUOUS
 62
    1
 10
151.44128600027398
 20
208.46829387927181
 40
0.5
  0
CIRCLE
  8
_0-9_24
  6
CONTINUOUS
 62
    1
 10
117.1512860002739
 20
208.46829387927181
 40
0.5
  0
CIRCLE
  8
_0-9_24
  6
CONTINUOUS
 62
    1
 10
151.44128600027398
 20
211.0082938792718
 40
0.5
  0
CIRCLE
  8
_0-9_24
  6
CONTINUOUS
 62
    1
 10
151.44128600027398
 20
213.5482938792718
 40
0.5
  0
CIRCLE
  8
_0-9_24
  6
CONTINUOUS
 62
    1
 10
138.74128600027393
 20
213.5482938792718
 40
0.5
  0
CIRCLE
  8
_0-9_24
  6
CONTINUOUS
 62
    1
 10
137.47128600027395
 20
213.5482938792718
 40
0.5
  0
CIRCLE
  8
_0-9_24
  6
CONTINUOUS
 62
    1
 10
124.7712860002739
 20
222.43829387927181
 40
0.5
  0
CIRCLE
  8
_0-9_24
  6
CONTINUOUS
 62
    1
 10
151.44128600027398
 20
219.89829387927179
 40
0.5
  0
CIRCLE
  8
_0-9_24
  6
CONTINUOUS
 62
    1
 10
146.36128600027394
 20
219.89829387927179
 40
0.5
  0
CIRCLE
  8
_0-9_24
  6
CONTINUOUS
 62
    1
 10
145.09128600027395
 20
219.89829387927179
 40
0.5
  0
CIRCLE
  8
_0-9_24
  6
CONTINUOUS
 62
    1
 10
151.44128600027398
 20
222.43829387927181
 40
0.5
  0
CIRCLE
  8
_0-9_24
  6
CONTINUOUS
 62
    1
 10
151.44128600027398
 20
224.9782938792718
 40
0.5
  0
CIRCLE
  8
_0-9_24
  6
CONTINUOUS
 62
    1
 10
143.82128600027394
 20
224.9782938792718
 40
0.5
  0
CIRCLE
  8
_0-9_24
  6
CONTINUOUS
 62
    1
 10
142.55128600027393
 20
224.9782938792718
 40
0.5
  0
CIRCLE
  8
_0-9_24
  6
CONTINUOUS
 62
    1
 10
151.44128600027398
 20
227.51829387927179
 40
0.5
  0
CIRCLE
  8
_0-9_24
  6
CONTINUOUS
 62
    1
 10
138.74128600027393
 20
227.51829387927179
 40
0.5
  0
CIRCLE
  8
_0-9_24
  6
CONTINUOUS
 62
    1
 10
137.47128600027395
 20
227.51829387927179
 40
0.5
  0
CIRCLE
  8
_0-9_24
  6
CONTINUOUS
 62
    1
 10
140.01128600027394
 20
230.05829387927179
 40
0.5
  0
CIRCLE
  8
_0-9_24
  6
CONTINUOUS
 62
    1
 10
141.28128600027395
 20
230.05829387927179
 40
0.5
  0
CIRCLE
  8
_0-9_24
  6
CONTINUOUS
 62
    1
 10
151.44128600027398
 20
230.05829387927179
 40
0.5
  0
CIRCLE
  8
_0-9_24
  6
CONTINUOUS
 62
    1
 10
151.44128600027398
 20
232.59829387927181
 40
0.5
  0
CIRCLE
  8
_0-9_24
  6
CONTINUOUS
 62
    1
 10
151.44128600027398
 20
235.1382938792718
 40
0.5
  0
CIRCLE
  8
_0-9_24
  6
CONTINUOUS
 62
    1
 10
151.44128600027398
 20
237.67829387927179
 40
0.5
  0
CIRCLE
  8
_0-9_24
  6
CONTINUOUS
 62
    1
 10
151.44128600027398
 20
240.21829387927178
 40
0.5
  0
CIRCLE
  8
_0-9_24
  6
CONTINUOUS
 62
    1
 10
138.74128600027393
 20
240.21829387927178
 40
0.5
  0
CIRCLE
  8
_0-9_24
  6
CONTINUOUS
 62
    1
 10
137.47128600027395
 20
240.21829387927178
 40
0.5
  0
CIRCLE
  8
_0-9_24
  6
CONTINUOUS
 62
    1
 10
151.44128600027398
 20
246.56829387927178
 40
0.5
  0
CIRCLE
  8
_0-9_24
  6
CONTINUOUS
 62
    1
 10
145.09128600027395
 20
246.56829387927178
 40
0.5
  0
CIRCLE
  8
_0-9_24
  6
CONTINUOUS
 62
    1
 10
151.44128600027398
 20
249.1082938792718
 40
0.5
  0
CIRCLE
  8
_0-9_24
  6
CONTINUOUS
 62
    1
 10
124.7712860002739
 20
249.1082938792718
 40
0.5
  0
CIRCLE
  8
_0-9_24
  6
CONTINUOUS
 62
    1
 10
117.1512860002739
 20
249.1082938792718
 40
0.5
  0
CIRCLE
  8
_0-9_24
  6
CONTINUOUS
 62
    1
 10
151.44128600027398
 20
251.64829387927179
 40
0.5
  0
CIRCLE
  8
_0-9_24
  6
CONTINUOUS
 62
    1
 10
143.82128600027394
 20
251.64829387927179
 40
0.5
  0
CIRCLE
  8
_0-9_24
  6
CONTINUOUS
 62
    1
 10
151.44128600027398
 20
254.18829387927178
 40
0.5
  0
CIRCLE
  8
_0-9_24
  6
CONTINUOUS
 62
    1
 10
138.74128600027393
 20
254.18829387927178
 40
0.5
  0
CIRCLE
  8
_0-9_24
  6
CONTINUOUS
 62
    1
 10
137.47128600027395
 20
254.18829387927178
 40
0.5
  0
CIRCLE
  8
_0-9_24
  6
CONTINUOUS
 62
    1
 10
140.01128600027394
 20
256.7282938792718
 40
0.5
  0
CIRCLE
  8
_0-9_24
  6
CONTINUOUS
 62
    1
 10
151.44128600027398
 20
256.7282938792718
 40
0.5
  0
CIRCLE
  8
_0-9_24
  6
CONTINUOUS
 62
    1
 10
151.44128600027398
 20
259.26829387927182
 40
0.5
  0
CIRCLE
  8
_0-9_24
  6
CONTINUOUS
 62
    1
 10
151.44128600027398
 20
261.80829387927179
 40
0.5
  0
CIRCLE
  8
_0-9_24
  6
CONTINUOUS
 62
    1
 10
151.44128600027398
 20
264.34829387927175
 40
0.5
  0
CIRCLE
  8
_0-9_24
  6
CONTINUOUS
 62
    1
 10
151.44128600027398
 20
266.88829387927177
 40
0.5
  0
CIRCLE
  8
_0-9_24
  6
CONTINUOUS
 62
    1
 10
138.74128600027393
 20
266.88829387927177
 40
0.5
  0
CIRCLE
  8
_0-9_24
  6
CONTINUOUS
 62
    1
 10
114.61128600027391
 20
261.80829387927179
 40
0.5
  0
LINE
  8
_0-8_23
  6
CONTINUOUS
 62
    5
 10
122.23128600027388
 20
158.93829387927181
 11
86.671286000273994
 21
158.93829387927181
  0
LINE
  8
_0-8_23
  6
CONTINUOUS
 62
    5
 10
124.77128600027388
 20
156.39829387927182
 11
86.671286000273994
 21
156.39829387927182
  0
LINE
  8
_0-8_23
  6
CONTINUOUS
 62
    5
 10
126.04128600027389
 20
153.85829387927183
 11
86.671286000273994
 21
153.85829387927183
  0
LINE
  8
_0-8_23
  6
CONTINUOUS
 62
    5
 10
131.12128600027393
 20
151.31829387927181
 11
86.671286000273994
 21
151.31829387927181
  0
LINE
  8
_0-8_23
  6
CONTINUOUS
 62
    5
 10
131.72056052919112
 20
148.70507057456845
 11
86.671286000273994
 21
148.70507057456845
  0
LINE
  8
_0-8_23
  6
CONTINUOUS
 62
    5
 10
130.37733722448772
 20
146.23829387927182
 11
86.671286000273994
 21
146.23829387927182
  0
ENDSEC
  0
EOF
