  0
SECTION
  2
HEADER
  9
$ACADVER
  1
AC1009
  9
$INSBASE
 10
0
 20
0
 30
0
  9
$EXTMIN
 10
0
 20
0
  9
$EXTMAX
 10
148.5
 20
105
  9
$LIMMIN
 10
0
 20
0
  9
$LIMMAX
 10
148.5
 20
105
  9
$LTSCALE
 40
0.5
  0
ENDSEC
  0
SECTION
  2
TABLES
  0
TABLE
  2
LTYPE
 70
     9
  0
LTYPE
  2
CONTINUOUS
 70
    64
  3
実線
 72
    65
 73
     0
 40
0.0
  0
LTYPE
  2
DASHED1
 70
    64
  3
--  --  --  --  --  --  --  --  
 72
    65
 73
     2
 40
2.5
 49
1.25
 49
-1.25
  0
LTYPE
  2
DASHED2
 70
    64
  3
----    ----    ----    ----    
 72
    65
 73
     2
 40
5.0
 49
2.5
 49
-2.5
  0
LTYPE
  2
DASHED3
 70
    64
  3
------  ------  ------  ------  
 72
    65
 73
     2
 40
5.0
 49
3.75
 49
-1.25
  0
LTYPE
  2
CENTER1
 70
    64
  3
----- - ----- - ----- - ----- - 
 72
    65
 73
     4
 40
10.0
 49
6.25
 49
-1.25
 49
1.25
 49
-1.25
  0
LTYPE
  2
CENTER2
 70
    64
  3
----------  --  ----------  --  
 72
    65
 73
     4
 40
20.0
 49
12.5
 49
-2.5
 49
2.5
 49
-2.5
  0
LTYPE
  2
PHANTOM1
 70
    64
  3
--- - - --- - - --- - - --- - - 
 72
    65
 73
     6
 40
10.0
 49
3.25
 49
-1.25
 49
1.25
 49
-1.25
 49
1.25
 49
-1.25
  0
LTYPE
  2
PHANTOM2
 70
    64
  3
--------  -  -  --------  -  -  
 72
    65
 73
     6
 40
20.0
 49
10.0
 49
-2.5
 49
1.25
 49
-2.5
 49
1.25
 49
-2.5
  0
LTYPE
  2
DOT
 70
    64
  3
-   -   -   -   -   -   -   -   
 72
    65
 73
     2
 40
2.5
 49
0.625
 49
-1.875
  0
LTYPE
  2
DUMMY
 70
    64
  3
ダミー
 72
    65
 73
     0
 40
0.0
  0
LTYPE
  2
RAND1
 70
    64
  3
ランダム線1
 72
    65
 73
     4
 40
10.0
 49
1.0
 49
-2.0
 49
3.0
 49
-4.0
  0
LTYPE
  2
RAND2
 70
    64
  3
ランダム線2
 72
    65
 73
     4
 40
14.0
 49
2.0
 49
-3.0
 49
4.0
 49
-5.0
  0
LTYPE
  2
RAND3
 70
    64
  3
ランダム線3
 72
    65
 73
     4
 40
18.0
 49
3.0
 49
-4.0
 49
5.0
 49
-6.0
  0
LTYPE
  2
RAND4
 70
    64
  3
ランダム線4
 72
    65
 73
     4
 40
22.0
 49
4.0
 49
-5.0
 49
6.0
 49
-7.0
  0
LTYPE
  2
RAND5
 70
    64
  3
ランダム線5
 72
    65
 73
     4
 40
26.0
 49
5.0
 49
-6.0
 49
7.0
 49
-8.0
  0
LTYPE
  2
LONG1
 70
    64
  3
----------  --  ----------  --  
 72
    65
 73
     4
 40
40.0
 49
32.5
 49
-2.5
 49
2.5
 49
-2.5
  0
LTYPE
  2
LONG2
 70
    64
  3
--------  -  -  --------  -  -  
 72
    65
 73
     6
 40
40.0
 49
30.0
 49
-2.5
 49
1.25
 49
-2.5
 49
1.25
 49
-2.5
  0
LTYPE
  2
LONG3
 70
    64
  3
+++++++++++++++..+++++++++++++++
 72
    65
 73
     2
 40
40.0
 49
37.5
 49
-2.5
  0
LTYPE
  2
LONG4
 70
    64
  3
+++++++++++++++..+++++++++++++++
 72
    65
 73
     2
 40
80.0
 49
75.0
 49
-5.0
  0
LTYPE
  2
LONG5
 70
    64
  3
----------  --  ----------  --  
 72
    65
 73
     4
 40
60.0
 49
37.5
 49
-7.5
 49
7.5
 49
-7.5
  0
LTYPE
  2
dashed
 70
   64
  3
-------   -------------   ------
 72
   65
 73
    2
 40
7.5
 49
6
 49
-1.5
  0
LTYPE
  2
dashed_spaced
 70
   64
  3
----        --------        ----
 72
   65
 73
    2
 40
12
 49
6
 49
-6
  0
LTYPE
  2
long_dashed_dotted
 70
   64
  3
------------- --- --------------
 72
   65
 73
    4
 40
15.25
 49
12
 49
-1.5
 49
0.25
 49
-1.5
  0
LTYPE
  2
long_dashed_double-dotted
 70
   64
  3
----------- --- --- ------------
 72
   65
 73
    6
 40
17
 49
12
 49
-1.5
 49
0.25
 49
-1.5
 49
0.25
 49
-1.5
  0
LTYPE
  2
long_dashed_triplicate-dotted
 70
   64
  3
--------- --- --- --- ----------
 72
   65
 73
    8
 40
18.75
 49
12
 49
-1.5
 49
0.25
 49
-1.5
 49
0.25
 49
-1.5
 49
0.25
 49
-1.5
  0
LTYPE
  2
dotted
 70
   64
  3
   -       -       -       -    
 72
   65
 73
    2
 40
1.75
 49
0.25
 49
-1.5
  0
LTYPE
  2
chain
 70
   64
  3
-------------- -- --------------
 72
   65
 73
    4
 40
18.5
 49
12
 49
-1.5
 49
3.5
 49
-1.5
  0
LTYPE
  2
chain_double_dash
 70
   64
  3
------------ -- -- -------------
 72
   65
 73
    6
 40
23.5
 49
12
 49
-1.5
 49
3.5
 49
-1.5
 49
3.5
 49
-1.5
  0
LTYPE
  2
dashed_dotted
 70
   64
  3
-----------     -     ----------
 72
   65
 73
    4
 40
9.25
 49
6
 49
-1.5
 49
0.25
 49
-1.5
  0
LTYPE
  2
double-dashed_dotted
 70
   64
  3
------   -----------   -   -----
 72
   65
 73
    6
 40
16.75
 49
6
 49
-1.5
 49
6
 49
-1.5
 49
0.25
 49
-1.5
  0
LTYPE
  2
dashed_double-dotted
 70
   64
  3
---------    -    -    ---------
 72
   65
 73
    6
 40
11
 49
6
 49
-1.5
 49
0.25
 49
-1.5
 49
0.25
 49
-1.5
  0
LTYPE
  2
double-dashed_double-dotted
 70
   64
  3
-----   ---------   -   -   ----
 72
   65
 73
    8
 40
18.5
 49
6
 49
-1.5
 49
6
 49
-1.5
 49
0.25
 49
-1.5
 49
0.25
 49
-1.5
  0
LTYPE
  2
dashed_triplicate-dotted
 70
   64
  3
-------    -    -    -    ------
 72
   65
 73
    8
 40
12.75
 49
6
 49
-1.5
 49
0.25
 49
-1.5
 49
0.25
 49
-1.5
 49
0.25
 49
-1.5
  0
LTYPE
  2
double-dashed_triplicate-dotted
 70
   64
  3
-----  ---------  -  -  -  -----
 72
   65
 73
   10
 40
20.25
 49
6
 49
-1.5
 49
6
 49
-1.5
 49
0.25
 49
-1.5
 49
0.25
 49
-1.5
 49
0.25
 49
-1.5
  0
LTYPE
  2
undefined
 70
   64
  3
--------------------------------
 72
   65
 73
    0
 40
0
  0
ENDTAB
  0
TABLE
  2
STYLE
  5
3
100
AcDbSymbolTable
 70
     1
  0
STYLE
  5
10
100
AcDbSymbolTableRecord
100
AcDbTextStyleTableRecord
  2
STANDARD
 70
     0
 40
0.0
 41
1.0
 50
0.0
 71
     0
 42
0.2
  3
txt
  4
bigfont.shx
  0
STYLE
  5
26
100
AcDbSymbolTableRecord
100
AcDbTextStyleTableRecord
  2
TATEGAKI
 70
    68
 40
0.0
 41
1.0
 50
0.0
 71
     0
 42
1.0
  3
txt
  4
bigfont.shx
  0
ENDTAB
  0
TABLE
  2
LAYER
 70
    3
  0
LAYER
  2
_0-6_21
 70
   64
 62
    7
  6
CONTINUOUS
  0
LAYER
  2
_0-7_22
 70
   64
 62
    7
  6
CONTINUOUS
  0
LAYER
  2
ADD_LINE
 70
   64
 62
    7
  6
CONTINUOUS
  0
ENDTAB
  0
ENDSEC
  0
SECTION
  2
BLOCKS
  0
ENDSEC
  0
SECTION
  2
ENTITIES
  0
LINE
  8
_0-6_21
  6
CONTINUOUS
 62
    1
 10
170.24128600027396
 20
272.98829387927179
 11
170.24128600027396
 21
30.918293879271857
  0
ARC
  8
_0-6_21
  6
CONTINUOUS
 62
    1
 10
164.66128600027395
 20
55.318293879271835
 40
1
 50
0
 51
90
  0
LINE
  8
_0-6_21
  6
CONTINUOUS
 62
    1
 10
153.46128600027396
 20
56.318293879271835
 11
164.66128600027395
 21
56.318293879271835
  0
ARC
  8
_0-6_21
  6
CONTINUOUS
 62
    1
 10
153.46128600027396
 20
55.318293879271835
 40
1
 50
90.000000000000014
 51
180
  0
LINE
  8
_0-6_21
  6
CONTINUOUS
 62
    1
 10
153.46128600027396
 20
50.738293879271851
 11
157.54128600027394
 21
50.738293879271851
  0
LINE
  8
_0-6_21
  6
CONTINUOUS
 62
    1
 10
152.46128600027396
 20
51.738293879271851
 11
152.46128600027396
 21
55.318293879271835
  0
ARC
  8
_0-6_21
  6
CONTINUOUS
 62
    1
 10
153.46128600027396
 20
51.738293879271851
 40
1
 50
180
 51
270
  0
LINE
  8
_0-6_21
  6
CONTINUOUS
 62
    1
 10
157.54128600027394
 20
33.958293879271849
 11
157.54128600027394
 21
50.738293879271851
  0
ARC
  8
_0-6_21
  6
CONTINUOUS
 62
    1
 10
158.54128600027394
 20
33.958293879271849
 40
1
 50
180
 51
270
  0
LINE
  8
_0-6_21
  6
CONTINUOUS
 62
    1
 10
165.66128600027395
 20
33.958293879271849
 11
165.66128600027395
 21
55.318293879271835
  0
LINE
  8
_0-6_21
  6
CONTINUOUS
 62
    1
 10
164.66128600027395
 20
32.958293879271849
 11
158.54128600027394
 21
32.958293879271849
  0
ARC
  8
_0-6_21
  6
CONTINUOUS
 62
    1
 10
164.66128600027395
 20
33.958293879271849
 40
1
 50
270
 51
0
  0
ARC
  8
_0-6_21
  6
CONTINUOUS
 62
    1
 10
149.42128600027394
 20
56.818293879271835
 40
1
 50
270
 51
0
  0
LINE
  8
_0-6_21
  6
CONTINUOUS
 62
    1
 10
150.42128600027394
 20
57.858293879271855
 11
150.42128600027394
 21
56.818293879271835
  0
ARC
  8
_0-6_21
  6
CONTINUOUS
 62
    1
 10
149.42128600027394
 20
57.858293879271855
 40
1
 50
0
 51
90
  0
ARC
  8
_0-6_21
  6
CONTINUOUS
 62
    1
 10
112.5912860002739
 20
54.278293879271843
 40
1
 50
270
 51
0
  0
LINE
  8
_0-6_21
  6
CONTINUOUS
 62
    1
 10
107.74128600027393
 20
53.278293879271843
 11
112.5912860002739
 21
53.278293879271843
  0
ARC
  8
_0-6_21
  6
CONTINUOUS
 62
    1
 10
107.74128600027393
 20
54.278293879271843
 40
1
 50
180
 51
270
  0
LINE
  8
_0-6_21
  6
CONTINUOUS
 62
    1
 10
106.74128600027393
 20
66.748293879271841
 11
106.74128600027393
 21
54.278293879271843
  0
ARC
  8
_0-6_21
  6
CONTINUOUS
 62
    1
 10
107.74128600027393
 20
66.748293879271841
 40
1
 50
90
 51
180
  0
ARC
  8
_0-6_21
  6
CONTINUOUS
 62
    1
 10
109.01128600027394
 20
70.788293879271862
 40
1
 50
180
 51
270
  0
LINE
  8
_0-6_21
  6
CONTINUOUS
 62
    1
 10
108.01128600027394
 20
76.908293879271866
 11
108.01128600027394
 21
70.788293879271862
  0
ARC
  8
_0-6_21
  6
CONTINUOUS
 62
    1
 10
109.01128600027394
 20
76.908293879271866
 40
1
 50
90
 51
180
  0
LINE
  8
_0-6_21
  6
CONTINUOUS
 62
    1
 10
137.99128600027393
 20
77.908293879271866
 11
109.01128600027394
 21
77.908293879271866
  0
ARC
  8
_0-6_21
  6
CONTINUOUS
 62
    1
 10
137.99128600027393
 20
76.908293879271866
 40
1
 50
0
 51
90
  0
LINE
  8
_0-6_21
  6
CONTINUOUS
 62
    1
 10
138.99128600027393
 20
75.868293879271846
 11
138.99128600027393
 21
76.908293879271866
  0
ARC
  8
_0-6_21
  6
CONTINUOUS
 62
    1
 10
137.99128600027393
 20
75.868293879271846
 40
1
 50
270
 51
0
  0
ARC
  8
_0-6_21
  6
CONTINUOUS
 62
    1
 10
140.53128600027395
 20
71.828293879271826
 40
1
 50
0
 51
90
  0
LINE
  8
_0-6_21
  6
CONTINUOUS
 62
    1
 10
141.53128600027395
 20
70.788293879271862
 11
141.53128600027395
 21
71.828293879271826
  0
ARC
  8
_0-6_21
  6
CONTINUOUS
 62
    1
 10
140.53128600027395
 20
70.788293879271862
 40
1
 50
270
 51
0
  0
ARC
  8
_0-6_21
  6
CONTINUOUS
 62
    1
 10
143.07128600027394
 20
66.748293879271841
 40
1
 50
0
 51
90
  0
ARC
  8
_0-6_21
  6
CONTINUOUS
 62
    1
 10
153.46128600027396
 20
81.988293879271851
 40
1
 50
90
 51
180
  0
LINE
  8
_0-6_21
  6
CONTINUOUS
 62
    1
 10
162.12128600027398
 20
82.988293879271851
 11
153.46128600027396
 21
82.988293879271851
  0
ARC
  8
_0-6_21
  6
CONTINUOUS
 62
    1
 10
162.12128600027398
 20
81.988293879271851
 40
1
 50
0
 51
90
  0
LINE
  8
_0-6_21
  6
CONTINUOUS
 62
    1
 10
163.12128600027398
 20
59.358293879271855
 11
163.12128600027398
 21
81.988293879271851
  0
ARC
  8
_0-6_21
  6
CONTINUOUS
 62
    1
 10
162.12128600027398
 20
59.358293879271855
 40
1
 50
270
 51
0
  0
LINE
  8
_0-6_21
  6
CONTINUOUS
 62
    1
 10
153.46128600027396
 20
58.358293879271855
 11
162.12128600027398
 21
58.358293879271855
  0
ARC
  8
_0-6_21
  6
CONTINUOUS
 62
    1
 10
153.46128600027396
 20
59.358293879271855
 40
1
 50
180
 51
270
  0
LINE
  8
_0-6_21
  6
CONTINUOUS
 62
    1
 10
152.46128600027396
 20
59.358293879271855
 11
152.46128600027396
 21
60.898293879271819
  0
LINE
  8
_0-6_21
  6
CONTINUOUS
 62
    1
 10
152.46128600027396
 20
81.988293879271851
 11
152.46128600027396
 21
65.208293879271821
  0
LINE
  8
_0-6_21
  6
CONTINUOUS
 62
    1
 10
152.46128600027396
 20
65.208293879271821
 11
144.07128600027394
 21
65.208293879271821
  0
LINE
  8
_0-6_21
  6
CONTINUOUS
 62
    1
 10
144.07128600027394
 20
66.748293879271841
 11
144.07128600027394
 21
65.208293879271821
  0
LINE
  8
_0-6_21
  6
CONTINUOUS
 62
    1
 10
152.46128600027396
 20
60.898293879271819
 11
135.18128600027393
 21
60.898293879271819
  0
LINE
  8
_0-6_21
  6
CONTINUOUS
 62
    1
 10
135.18128600027393
 20
60.898293879271819
 11
135.18128600027393
 21
58.858293879271855
  0
LINE
  8
_0-6_21
  6
CONTINUOUS
 62
    1
 10
149.42128600027394
 20
58.858293879271855
 11
135.18128600027393
 21
58.858293879271855
  0
LINE
  8
_0-6_21
  6
CONTINUOUS
 62
    1
 10
149.42128600027394
 20
55.818293879271835
 11
113.5912860002739
 21
55.818293879271835
  0
LINE
  8
_0-6_21
  6
CONTINUOUS
 62
    1
 10
113.5912860002739
 20
54.278293879271843
 11
113.5912860002739
 21
55.818293879271835
  0
LINE
  8
_0-6_21
  6
CONTINUOUS
 62
    1
 10
107.74128600027393
 20
67.748293879271841
 11
120.7112860002739
 21
67.748293879271841
  0
LINE
  8
_0-6_21
  6
CONTINUOUS
 62
    1
 10
109.01128600027394
 20
69.788293879271862
 11
120.7112860002739
 21
69.788293879271862
  0
LINE
  8
_0-6_21
  6
CONTINUOUS
 62
    1
 10
120.7112860002739
 20
67.748293879271841
 11
120.7112860002739
 21
69.788293879271862
  0
LINE
  8
_0-6_21
  6
CONTINUOUS
 62
    1
 10
137.99128600027393
 20
74.868293879271846
 11
135.18128600027393
 21
74.868293879271846
  0
LINE
  8
_0-6_21
  6
CONTINUOUS
 62
    1
 10
140.53128600027395
 20
72.828293879271826
 11
135.18128600027393
 21
72.828293879271826
  0
LINE
  8
_0-6_21
  6
CONTINUOUS
 62
    1
 10
135.18128600027393
 20
72.828293879271826
 11
135.18128600027393
 21
74.868293879271846
  0
LINE
  8
_0-6_21
  6
CONTINUOUS
 62
    1
 10
140.53128600027395
 20
69.788293879271862
 11
126.29128600027389
 21
69.788293879271862
  0
LINE
  8
_0-6_21
  6
CONTINUOUS
 62
    1
 10
126.29128600027389
 20
69.788293879271862
 11
126.29128600027389
 21
67.748293879271841
  0
LINE
  8
_0-6_21
  6
CONTINUOUS
 62
    1
 10
126.29128600027389
 20
67.748293879271841
 11
143.07128600027394
 21
67.748293879271841
  0
ARC
  8
_0-6_21
  6
CONTINUOUS
 62
    1
 10
149.42128600027394
 20
84.528293879271814
 40
1
 50
0
 51
90
  0
ARC
  8
_0-6_21
  6
CONTINUOUS
 62
    1
 10
159.58128600027396
 20
86.028293879271871
 40
1
 50
270
 51
0
  0
LINE
  8
_0-6_21
  6
CONTINUOUS
 62
    1
 10
160.58128600027396
 20
108.65829387927184
 11
160.58128600027396
 21
86.028293879271871
  0
ARC
  8
_0-6_21
  6
CONTINUOUS
 62
    1
 10
159.58128600027396
 20
108.65829387927184
 40
1
 50
0
 51
90
  0
LINE
  8
_0-6_21
  6
CONTINUOUS
 62
    1
 10
153.46128600027396
 20
109.65829387927184
 11
159.58128600027396
 21
109.65829387927184
  0
ARC
  8
_0-6_21
  6
CONTINUOUS
 62
    1
 10
153.46128600027396
 20
108.65829387927184
 40
1
 50
90.000000000000014
 51
180
  0
LINE
  8
_0-6_21
  6
CONTINUOUS
 62
    1
 10
144.07128600027394
 20
93.418293879271829
 11
144.07128600027394
 21
91.878293879271837
  0
ARC
  8
_0-6_21
  6
CONTINUOUS
 62
    1
 10
143.07128600027394
 20
93.418293879271829
 40
1
 50
0
 51
90
  0
LINE
  8
_0-6_21
  6
CONTINUOUS
 62
    1
 10
153.46128600027396
 20
85.028293879271871
 11
159.58128600027396
 21
85.028293879271871
  0
LINE
  8
_0-6_21
  6
CONTINUOUS
 62
    1
 10
152.46128600027396
 20
86.028293879271871
 11
152.46128600027396
 21
87.568293879271835
  0
ARC
  8
_0-6_21
  6
CONTINUOUS
 62
    1
 10
153.46128600027396
 20
86.028293879271871
 40
1
 50
180
 51
270
  0
LINE
  8
_0-6_21
  6
CONTINUOUS
 62
    1
 10
149.42128600027394
 20
85.528293879271814
 11
135.18128600027393
 21
85.528293879271814
  0
LINE
  8
_0-6_21
  6
CONTINUOUS
 62
    1
 10
135.18128600027393
 20
85.528293879271814
 11
135.18128600027393
 21
87.568293879271835
  0
LINE
  8
_0-6_21
  6
CONTINUOUS
 62
    1
 10
135.18128600027393
 20
87.568293879271835
 11
152.46128600027396
 21
87.568293879271835
  0
LINE
  8
_0-6_21
  6
CONTINUOUS
 62
    1
 10
152.46128600027396
 20
91.878293879271837
 11
144.07128600027394
 21
91.878293879271837
  0
LINE
  8
_0-6_21
  6
CONTINUOUS
 62
    1
 10
152.46128600027396
 20
108.65829387927184
 11
152.46128600027396
 21
91.878293879271837
  0
LINE
  8
_0-6_21
  6
CONTINUOUS
 62
    1
 10
120.7112860002739
 20
94.418293879271829
 11
120.7112860002739
 21
96.458293879271821
  0
ARC
  8
_0-6_21
  6
CONTINUOUS
 62
    1
 10
120.23190995106475
 20
103.80829387927184
 40
1
 50
135.00000000000011
 51
270
  0
LINE
  8
_0-6_21
  6
CONTINUOUS
 62
    1
 10
120.7112860002739
 20
100.76829387927182
 11
120.7112860002739
 21
102.80829387927184
  0
LINE
  8
_0-6_21
  6
CONTINUOUS
 62
    1
 10
120.23190995106475
 20
102.80829387927184
 11
120.7112860002739
 21
102.80829387927184
  0
LINE
  8
_0-6_21
  6
CONTINUOUS
 62
    1
 10
121.8348031698782
 20
106.8254006604584
 11
119.5248031698782
 21
104.5154006604584
  0
LINE
  8
_0-6_21
  6
CONTINUOUS
 62
    1
 10
122.54190995106475
 20
107.11829387927185
 11
129.60128600027389
 21
107.11829387927185
  0
ARC
  8
_0-6_21
  6
CONTINUOUS
 62
    1
 10
122.54190995106475
 20
106.11829387927185
 40
1
 50
89.999999999999972
 51
135.00000000000006
  0
LINE
  8
_0-6_21
  6
CONTINUOUS
 62
    1
 10
129.60128600027389
 20
107.11829387927185
 11
129.60128600027389
 21
109.15829387927184
  0
LINE
  8
_0-6_21
  6
CONTINUOUS
 62
    1
 10
129.60128600027389
 20
109.15829387927184
 11
122.33487561185612
 21
109.15829387927184
  0
LINE
  8
_0-6_21
  6
CONTINUOUS
 62
    1
 10
119.44128600027389
 20
118.54829387927182
 11
119.44128600027389
 21
120.58829387927182
  0
LINE
  8
_0-6_21
  6
CONTINUOUS
 62
    1
 10
116.13128600027392
 20
128.70829387927185
 11
116.13128600027392
 21
140.90829387927181
  0
LINE
  8
_0-6_21
  6
CONTINUOUS
 62
    1
 10
118.17128600027388
 20
117.54829387927182
 11
118.17128600027388
 21
116.00829387927186
  0
LINE
  8
_0-6_21
  6
CONTINUOUS
 62
    1
 10
119.17128600027388
 20
118.54829387927182
 11
119.44128600027389
 21
118.54829387927182
  0
ARC
  8
_0-6_21
  6
CONTINUOUS
 62
    1
 10
119.17128600027388
 20
117.54829387927182
 40
1
 50
90
 51
180
  0
LINE
  8
_0-6_21
  6
CONTINUOUS
 62
    1
 10
116.90128600027387
 20
115.00829387927186
 11
116.90128600027387
 21
113.46829387927184
  0
LINE
  8
_0-6_21
  6
CONTINUOUS
 62
    1
 10
117.90128600027387
 20
116.00829387927186
 11
118.17128600027388
 21
116.00829387927186
  0
ARC
  8
_0-6_21
  6
CONTINUOUS
 62
    1
 10
117.90128600027387
 20
115.00829387927186
 40
1
 50
90
 51
180
  0
LINE
  8
_0-6_21
  6
CONTINUOUS
 62
    1
 10
116.63128600027389
 20
113.46829387927184
 11
116.90128600027387
 21
113.46829387927184
  0
ARC
  8
_0-6_21
  6
CONTINUOUS
 62
    1
 10
116.63128600027389
 20
112.46829387927184
 40
1
 50
89.999999999999972
 51
179.99999999999989
  0
LINE
  8
_0-6_21
  6
CONTINUOUS
 62
    1
 10
115.63128600027389
 20
108.88829387927188
 11
115.63128600027389
 21
112.46829387927184
  0
LINE
  8
_0-6_21
  6
CONTINUOUS
 62
    1
 10
116.63128600027389
 20
107.88829387927188
 11
116.90128600027387
 21
107.88829387927188
  0
ARC
  8
_0-6_21
  6
CONTINUOUS
 62
    1
 10
116.63128600027389
 20
108.88829387927188
 40
1
 50
179.99999999999989
 51
270
  0
LINE
  8
_0-6_21
  6
CONTINUOUS
 62
    1
 10
116.90128600027387
 20
106.34829387927186
 11
116.90128600027387
 21
107.88829387927188
  0
ARC
  8
_0-6_21
  6
CONTINUOUS
 62
    1
 10
117.90128600027387
 20
106.34829387927186
 40
1
 50
180
 51
270
  0
LINE
  8
_0-6_21
  6
CONTINUOUS
 62
    1
 10
118.11066204948307
 20
105.34829387927186
 11
117.90128600027387
 21
105.34829387927186
  0
LINE
  8
_0-6_21
  6
CONTINUOUS
 62
    1
 10
118.81776883066962
 20
105.64118709808531
 11
122.33487561185612
 21
109.15829387927184
  0
ARC
  8
_0-6_21
  6
CONTINUOUS
 62
    1
 10
118.11066204948307
 20
106.34829387927186
 40
1
 50
270
 51
315.00000000000011
  0
LINE
  8
_0-6_21
  6
CONTINUOUS
 62
    1
 10
111.55128600027393
 20
100.76829387927182
 11
120.7112860002739
 21
100.76829387927182
  0
ARC
  8
_0-6_21
  6
CONTINUOUS
 62
    1
 10
111.55128600027393
 20
99.768293879271823
 40
1
 50
90
 51
180
  0
LINE
  8
_0-6_21
  6
CONTINUOUS
 62
    1
 10
111.55128600027393
 20
96.458293879271821
 11
120.7112860002739
 21
96.458293879271821
  0
LINE
  8
_0-6_21
  6
CONTINUOUS
 62
    1
 10
110.55128600027393
 20
97.458293879271821
 11
110.55128600027393
 21
99.768293879271823
  0
ARC
  8
_0-6_21
  6
CONTINUOUS
 62
    1
 10
111.55128600027393
 20
97.458293879271821
 40
1
 50
180
 51
270
  0
LINE
  8
_0-6_21
  6
CONTINUOUS
 62
    1
 10
110.28128600027392
 20
94.418293879271829
 11
120.7112860002739
 21
94.418293879271829
  0
ARC
  8
_0-6_21
  6
CONTINUOUS
 62
    1
 10
110.28128600027392
 20
93.418293879271829
 40
1
 50
90.000000000000014
 51
180
  0
LINE
  8
_0-6_21
  6
CONTINUOUS
 62
    1
 10
109.28128600027392
 20
80.94829387927183
 11
109.28128600027392
 21
93.418293879271829
  0
ARC
  8
_0-6_21
  6
CONTINUOUS
 62
    1
 10
110.28128600027392
 20
80.94829387927183
 40
1
 50
180
 51
270
  0
LINE
  8
_0-6_21
  6
CONTINUOUS
 62
    1
 10
114.86128600027391
 20
80.94829387927183
 11
114.86128600027391
 21
82.488293879271851
  0
LINE
  8
_0-6_21
  6
CONTINUOUS
 62
    1
 10
113.86128600027391
 20
79.94829387927183
 11
110.28128600027392
 21
79.94829387927183
  0
ARC
  8
_0-6_21
  6
CONTINUOUS
 62
    1
 10
113.86128600027391
 20
80.94829387927183
 40
1
 50
270
 51
0
  0
LINE
  8
_0-6_21
  6
CONTINUOUS
 62
    1
 10
150.42128600027394
 20
83.488293879271851
 11
150.42128600027394
 21
84.528293879271814
  0
LINE
  8
_0-6_21
  6
CONTINUOUS
 62
    1
 10
149.42128600027394
 20
82.488293879271851
 11
114.86128600027391
 21
82.488293879271851
  0
ARC
  8
_0-6_21
  6
CONTINUOUS
 62
    1
 10
149.42128600027394
 20
83.488293879271851
 40
1
 50
270
 51
0
  0
LINE
  8
_0-6_21
  6
CONTINUOUS
 62
    1
 10
126.29128600027389
 20
94.418293879271829
 11
126.29128600027389
 21
96.458293879271821
  0
LINE
  8
_0-6_21
  6
CONTINUOUS
 62
    1
 10
135.18128600027393
 20
99.498293879271841
 11
135.18128600027393
 21
101.53829387927183
  0
ARC
  8
_0-6_21
  6
CONTINUOUS
 62
    1
 10
119.17128600027391
 20
136.82829387927183
 40
1
 50
180
 51
270
  0
LINE
  8
_0-6_21
  6
CONTINUOUS
 62
    1
 10
118.17128600027391
 20
137.86829387927182
 11
118.17128600027391
 21
136.82829387927183
  0
ARC
  8
_0-6_21
  6
CONTINUOUS
 62
    1
 10
119.17128600027391
 20
137.86829387927182
 40
1
 50
90.000000000000014
 51
180
  0
ARC
  8
_0-6_21
  6
CONTINUOUS
 62
    1
 10
119.17128600027391
 20
132.78829387927183
 40
1
 50
90.000000000000014
 51
180
  0
LINE
  8
_0-6_21
  6
CONTINUOUS
 62
    1
 10
118.17128600027391
 20
131.74829387927184
 11
118.17128600027391
 21
132.78829387927183
  0
ARC
  8
_0-6_21
  6
CONTINUOUS
 62
    1
 10
119.17128600027391
 20
131.74829387927184
 40
1
 50
180
 51
270
  0
LINE
  8
_0-6_21
  6
CONTINUOUS
 62
    1
 10
129.10128600027392
 20
135.82829387927183
 11
119.17128600027391
 21
135.82829387927183
  0
ARC
  8
_0-6_21
  6
CONTINUOUS
 62
    1
 10
129.10128600027392
 20
136.82829387927183
 40
1
 50
270
 51
0
  0
LINE
  8
_0-6_21
  6
CONTINUOUS
 62
    1
 10
130.10128600027392
 20
127.70829387927185
 11
130.10128600027392
 21
119.67188349085407
  0
LINE
  8
_0-6_21
  6
CONTINUOUS
 62
    1
 10
129.10128600027392
 20
128.70829387927185
 11
116.13128600027392
 21
128.70829387927185
  0
ARC
  8
_0-6_21
  6
CONTINUOUS
 62
    1
 10
129.10128600027392
 20
127.70829387927185
 40
1
 50
0
 51
90
  0
LINE
  8
_0-6_21
  6
CONTINUOUS
 62
    1
 10
129.10128600027392
 20
130.74829387927184
 11
119.17128600027391
 21
130.74829387927184
  0
ARC
  8
_0-6_21
  6
CONTINUOUS
 62
    1
 10
129.10128600027392
 20
131.74829387927184
 40
1
 50
270
 51
0
  0
LINE
  8
_0-6_21
  6
CONTINUOUS
 62
    1
 10
130.10128600027392
 20
132.78829387927183
 11
130.10128600027392
 21
131.74829387927184
  0
LINE
  8
_0-6_21
  6
CONTINUOUS
 62
    1
 10
129.10128600027392
 20
133.78829387927183
 11
119.17128600027391
 21
133.78829387927183
  0
ARC
  8
_0-6_21
  6
CONTINUOUS
 62
    1
 10
129.10128600027392
 20
132.78829387927183
 40
1
 50
0
 51
90
  0
LINE
  8
_0-6_21
  6
CONTINUOUS
 62
    1
 10
130.10128600027392
 20
137.86829387927182
 11
130.10128600027392
 21
136.82829387927183
  0
LINE
  8
_0-6_21
  6
CONTINUOUS
 62
    1
 10
129.10128600027392
 20
138.86829387927182
 11
119.17128600027391
 21
138.86829387927182
  0
ARC
  8
_0-6_21
  6
CONTINUOUS
 62
    1
 10
129.10128600027392
 20
137.86829387927182
 40
1
 50
0
 51
90
  0
ARC
  8
_0-6_21
  6
CONTINUOUS
 62
    1
 10
129.10128600027392
 20
142.94829387927183
 40
1
 50
0
 51
90
  0
LINE
  8
_0-6_21
  6
CONTINUOUS
 62
    1
 10
130.10128600027392
 20
141.90829387927181
 11
130.10128600027392
 21
142.94829387927183
  0
LINE
  8
_0-6_21
  6
CONTINUOUS
 62
    1
 10
129.10128600027392
 20
140.90829387927181
 11
116.13128600027392
 21
140.90829387927181
  0
ARC
  8
_0-6_21
  6
CONTINUOUS
 62
    1
 10
129.10128600027392
 20
141.90829387927181
 40
1
 50
270
 51
0
  0
ARC
  8
_0-6_21
  6
CONTINUOUS
 62
    1
 10
135.68128600027393
 20
110.15829387927181
 40
1
 50
180
 51
270
  0
LINE
  8
_0-6_21
  6
CONTINUOUS
 62
    1
 10
134.68128600027393
 20
111.19829387927183
 11
134.68128600027393
 21
110.15829387927181
  0
ARC
  8
_0-6_21
  6
CONTINUOUS
 62
    1
 10
135.68128600027393
 20
111.19829387927183
 40
1
 50
90.000000000000014
 51
180
  0
LINE
  8
_0-6_21
  6
CONTINUOUS
 62
    1
 10
149.42128600027394
 20
109.15829387927181
 11
135.68128600027393
 21
109.15829387927181
  0
ARC
  8
_0-6_21
  6
CONTINUOUS
 62
    1
 10
149.42128600027394
 20
110.15829387927181
 40
1
 50
270
 51
0
  0
LINE
  8
_0-6_21
  6
CONTINUOUS
 62
    1
 10
150.42128600027394
 20
111.19829387927183
 11
150.42128600027394
 21
110.15829387927181
  0
LINE
  8
_0-6_21
  6
CONTINUOUS
 62
    1
 10
149.42128600027394
 20
112.19829387927183
 11
135.68128600027393
 21
112.19829387927183
  0
ARC
  8
_0-6_21
  6
CONTINUOUS
 62
    1
 10
149.42128600027394
 20
111.19829387927183
 40
1
 50
0
 51
90
  0
LINE
  8
_0-6_21
  6
CONTINUOUS
 62
    1
 10
132.64128600027391
 20
116.71766992848097
 11
132.64128600027391
 21
104.57829387927183
  0
LINE
  8
_0-6_21
  6
CONTINUOUS
 62
    1
 10
132.34839278146046
 20
117.42477670966753
 11
130.10128600027392
 21
119.67188349085407
  0
ARC
  8
_0-6_21
  6
CONTINUOUS
 62
    1
 10
131.64128600027391
 20
116.71766992848097
 40
1
 50
359.99999999999994
 51
45.00000000000005
  0
LINE
  8
_0-6_21
  6
CONTINUOUS
 62
    1
 10
137.99128600027393
 20
104.57829387927183
 11
132.64128600027391
 21
104.57829387927183
  0
ARC
  8
_0-6_21
  6
CONTINUOUS
 62
    1
 10
137.99128600027393
 20
103.57829387927183
 40
1
 50
0
 51
90
  0
LINE
  8
_0-6_21
  6
CONTINUOUS
 62
    1
 10
138.99128600027393
 20
102.53829387927183
 11
138.99128600027393
 21
103.57829387927183
  0
LINE
  8
_0-6_21
  6
CONTINUOUS
 62
    1
 10
137.99128600027393
 20
101.53829387927183
 11
135.18128600027393
 21
101.53829387927183
  0
ARC
  8
_0-6_21
  6
CONTINUOUS
 62
    1
 10
137.99128600027393
 20
102.53829387927183
 40
1
 50
270
 51
0
  0
LINE
  8
_0-6_21
  6
CONTINUOUS
 62
    1
 10
140.53128600027395
 20
99.498293879271841
 11
135.18128600027393
 21
99.498293879271841
  0
ARC
  8
_0-6_21
  6
CONTINUOUS
 62
    1
 10
140.53128600027395
 20
98.498293879271841
 40
1
 50
0
 51
90
  0
LINE
  8
_0-6_21
  6
CONTINUOUS
 62
    1
 10
141.53128600027395
 20
97.458293879271821
 11
141.53128600027395
 21
98.498293879271841
  0
LINE
  8
_0-6_21
  6
CONTINUOUS
 62
    1
 10
140.53128600027395
 20
96.458293879271821
 11
126.29128600027389
 21
96.458293879271821
  0
ARC
  8
_0-6_21
  6
CONTINUOUS
 62
    1
 10
140.53128600027395
 20
97.458293879271821
 40
1
 50
270
 51
0
  0
LINE
  8
_0-6_21
  6
CONTINUOUS
 62
    1
 10
143.07128600027394
 20
94.418293879271829
 11
126.29128600027389
 21
94.418293879271829
  0
LINE
  8
_0-6_21
  6
CONTINUOUS
 62
    1
 10
144.07128600027394
 20
118.54829387927182
 11
152.46128600027396
 21
118.54829387927182
  0
LINE
  8
_0-6_21
  6
CONTINUOUS
 62
    1
 10
152.46128600027396
 20
112.69829387927183
 11
152.46128600027396
 21
114.23829387927185
  0
ARC
  8
_0-6_21
  6
CONTINUOUS
 62
    1
 10
153.46128600027396
 20
112.69829387927183
 40
1
 50
180
 51
270
  0
LINE
  8
_0-6_21
  6
CONTINUOUS
 62
    1
 10
157.04128600027394
 20
111.69829387927183
 11
153.46128600027396
 21
111.69829387927183
  0
ARC
  8
_0-6_21
  6
CONTINUOUS
 62
    1
 10
157.04128600027394
 20
112.69829387927183
 40
1
 50
270
 51
0
  0
LINE
  8
_0-6_21
  6
CONTINUOUS
 62
    1
 10
158.04128600027394
 20
135.32829387927183
 11
158.04128600027394
 21
112.69829387927183
  0
ARC
  8
_0-6_21
  6
CONTINUOUS
 62
    1
 10
157.04128600027394
 20
135.32829387927183
 40
1
 50
0
 51
90
  0
LINE
  8
_0-6_21
  6
CONTINUOUS
 62
    1
 10
156.00128600027398
 20
136.32829387927183
 11
157.04128600027394
 21
136.32829387927183
  0
LINE
  8
_0-6_21
  6
CONTINUOUS
 62
    1
 10
155.00128600027398
 20
135.32829387927183
 11
155.00128600027398
 21
133.78829387927186
  0
ARC
  8
_0-6_21
  6
CONTINUOUS
 62
    1
 10
156.00128600027398
 20
135.32829387927183
 40
1
 50
90.000000000000014
 51
180
  0
LINE
  8
_0-6_21
  6
CONTINUOUS
 62
    1
 10
153.46128600027396
 20
133.78829387927186
 11
155.00128600027398
 21
133.78829387927186
  0
LINE
  8
_0-6_21
  6
CONTINUOUS
 62
    1
 10
152.46128600027396
 20
132.78829387927183
 11
152.46128600027396
 21
118.54829387927182
  0
ARC
  8
_0-6_21
  6
CONTINUOUS
 62
    1
 10
153.46128600027396
 20
132.78829387927183
 40
1
 50
90.000000000000242
 51
180
  0
LINE
  8
_0-6_21
  6
CONTINUOUS
 62
    1
 10
144.07128600027394
 20
120.08829387927182
 11
144.07128600027394
 21
118.54829387927182
  0
ARC
  8
_0-6_21
  6
CONTINUOUS
 62
    1
 10
143.07128600027394
 20
120.08829387927182
 40
1
 50
0
 51
90
  0
LINE
  8
_0-6_21
  6
CONTINUOUS
 62
    1
 10
132.22480316987827
 20
119.38118709808526
 11
134.68128600027393
 21
116.92470426768961
  0
LINE
  8
_0-6_21
  6
CONTINUOUS
 62
    1
 10
132.9319099510648
 20
121.08829387927182
 11
143.07128600027394
 21
121.08829387927182
  0
ARC
  8
_0-6_21
  6
CONTINUOUS
 62
    1
 10
132.9319099510648
 20
120.08829387927182
 40
1
 50
90
 51
224.99999999999986
  0
LINE
  8
_0-6_21
  6
CONTINUOUS
 62
    1
 10
135.68128600027393
 20
114.23829387927185
 11
152.46128600027396
 21
114.23829387927185
  0
LINE
  8
_0-6_21
  6
CONTINUOUS
 62
    1
 10
134.68128600027393
 20
115.23829387927185
 11
134.68128600027393
 21
116.92470426768961
  0
ARC
  8
_0-6_21
  6
CONTINUOUS
 62
    1
 10
135.68128600027393
 20
115.23829387927185
 40
1
 50
180
 51
270
  0
ARC
  8
_0-6_21
  6
CONTINUOUS
 62
    1
 10
140.53128600027395
 20
124.12829387927184
 40
1
 50
270
 51
0
  0
LINE
  8
_0-6_21
  6
CONTINUOUS
 62
    1
 10
141.53128600027395
 20
125.16829387927183
 11
141.53128600027395
 21
124.12829387927184
  0
ARC
  8
_0-6_21
  6
CONTINUOUS
 62
    1
 10
140.53128600027395
 20
125.16829387927183
 40
1
 50
0
 51
90
  0
LINE
  8
_0-6_21
  6
CONTINUOUS
 62
    1
 10
135.68128600027393
 20
123.12829387927184
 11
140.53128600027395
 21
123.12829387927184
  0
ARC
  8
_0-6_21
  6
CONTINUOUS
 62
    1
 10
135.68128600027393
 20
124.12829387927184
 40
1
 50
180
 51
270
  0
LINE
  8
_0-6_21
  6
CONTINUOUS
 62
    1
 10
135.68128600027393
 20
126.16829387927183
 11
140.53128600027395
 21
126.16829387927183
  0
LINE
  8
_0-6_21
  6
CONTINUOUS
 62
    1
 10
134.68128600027393
 20
125.16829387927183
 11
134.68128600027393
 21
124.12829387927184
  0
ARC
  8
_0-6_21
  6
CONTINUOUS
 62
    1
 10
135.68128600027393
 20
125.16829387927183
 40
1
 50
90.000000000000014
 51
180
  0
ARC
  8
_0-6_21
  6
CONTINUOUS
 62
    1
 10
137.97128600027392
 20
136.82829387927183
 40
1
 50
180
 51
270
  0
LINE
  8
_0-6_21
  6
CONTINUOUS
 62
    1
 10
136.97128600027392
 20
137.86829387927182
 11
136.97128600027392
 21
136.82829387927183
  0
ARC
  8
_0-6_21
  6
CONTINUOUS
 62
    1
 10
137.97128600027392
 20
137.86829387927182
 40
1
 50
90.000000000000014
 51
180
  0
LINE
  8
_0-6_21
  6
CONTINUOUS
 62
    1
 10
149.42128600027394
 20
138.86829387927182
 11
137.97128600027392
 21
138.86829387927182
  0
ARC
  8
_0-6_21
  6
CONTINUOUS
 62
    1
 10
149.42128600027394
 20
137.86829387927182
 40
1
 50
0
 51
90
  0
LINE
  8
_0-6_21
  6
CONTINUOUS
 62
    1
 10
150.42128600027394
 20
136.82829387927183
 11
150.42128600027394
 21
137.86829387927182
  0
LINE
  8
_0-6_21
  6
CONTINUOUS
 62
    1
 10
149.42128600027394
 20
135.82829387927183
 11
137.97128600027392
 21
135.82829387927183
  0
ARC
  8
_0-6_21
  6
CONTINUOUS
 62
    1
 10
149.42128600027394
 20
136.82829387927183
 40
1
 50
270
 51
0
  0
LINE
  8
_0-6_21
  6
CONTINUOUS
 62
    1
 10
152.46128600027396
 20
139.36829387927182
 11
152.46128600027396
 21
140.90829387927181
  0
ARC
  8
_0-6_21
  6
CONTINUOUS
 62
    1
 10
153.46128600027396
 20
139.36829387927182
 40
1
 50
180
 51
270
  0
LINE
  8
_0-6_21
  6
CONTINUOUS
 62
    1
 10
138.67839278146047
 20
145.38477670966745
 11
140.11487561185612
 21
143.94829387927183
  0
ARC
  8
_0-6_21
  6
CONTINUOUS
 62
    1
 10
137.97128600027392
 20
144.6776699284809
 40
1
 50
45.000000000000078
 51
180
  0
LINE
  8
_0-6_21
  6
CONTINUOUS
 62
    1
 10
137.97128600027392
 20
140.90829387927181
 11
152.46128600027396
 21
140.90829387927181
  0
LINE
  8
_0-6_21
  6
CONTINUOUS
 62
    1
 10
136.97128600027392
 20
141.90829387927181
 11
136.97128600027392
 21
144.6776699284809
  0
ARC
  8
_0-6_21
  6
CONTINUOUS
 62
    1
 10
137.97128600027392
 20
141.90829387927181
 40
1
 50
180
 51
270
  0
LINE
  8
_0-6_21
  6
CONTINUOUS
 62
    1
 10
154.50128600027398
 20
138.36829387927182
 11
153.46128600027396
 21
138.36829387927182
  0
ARC
  8
_0-6_21
  6
CONTINUOUS
 62
    1
 10
154.50128600027398
 20
139.36829387927182
 40
1
 50
270
 51
0
  0
LINE
  8
_0-6_21
  6
CONTINUOUS
 62
    1
 10
155.50128600027398
 20
142.94829387927183
 11
155.50128600027398
 21
139.36829387927182
  0
LINE
  8
_0-6_21
  6
CONTINUOUS
 62
    1
 10
154.50128600027398
 20
143.94829387927183
 11
140.11487561185612
 21
143.94829387927183
  0
ARC
  8
_0-6_21
  6
CONTINUOUS
 62
    1
 10
154.50128600027398
 20
142.94829387927183
 40
1
 50
0
 51
90
  0
ARC
  8
_0-6_21
  6
CONTINUOUS
 62
    1
 10
114.09128600027393
 20
121.58829387927182
 40
1
 50
180
 51
270
  0
LINE
  8
_0-6_21
  6
CONTINUOUS
 62
    1
 10
113.09128600027393
 20
121.58829387927182
 11
113.09128600027393
 21
140.90829387927181
  0
LINE
  8
_0-6_21
  6
CONTINUOUS
 62
    1
 10
112.07128600027391
 20
140.90829387927181
 11
111.05128600027393
 21
140.90829387927181
  0
LINE
  8
_0-6_21
  6
CONTINUOUS
 62
    1
 10
111.55128600027393
 20
140.90829387927181
 11
113.09128600027393
 21
140.90829387927181
  0
ARC
  8
_0-6_21
  6
CONTINUOUS
 62
    1
 10
111.55128600027393
 20
141.90829387927181
 40
1
 50
180
 51
270
  0
LINE
  8
_0-6_21
  6
CONTINUOUS
 62
    1
 10
111.55128600027393
 20
143.94829387927183
 11
129.10128600027392
 21
143.94829387927183
  0
LINE
  8
_0-6_21
  6
CONTINUOUS
 62
    1
 10
110.55128600027393
 20
142.94829387927183
 11
110.55128600027393
 21
141.90829387927181
  0
ARC
  8
_0-6_21
  6
CONTINUOUS
 62
    1
 10
111.55128600027393
 20
142.94829387927183
 40
1
 50
90.000000000000014
 51
180
  0
LINE
  8
_0-6_21
  6
CONTINUOUS
 62
    1
 10
114.09128600027393
 20
120.58829387927182
 11
119.44128600027389
 21
120.58829387927182
  0
ARC
  8
_0-6_21
  6
CONTINUOUS
 62
    1
 10
135.45128600027391
 20
169.63891783006264
 40
1
 50
225
 51
0
  0
LINE
  8
_0-6_21
  6
CONTINUOUS
 62
    1
 10
136.45128600027391
 20
177.23829387927182
 11
136.45128600027391
 21
169.63891783006264
  0
LINE
  8
_0-6_21
  6
CONTINUOUS
 62
    1
 10
135.45128600027391
 20
178.23829387927182
 11
131.37128600027393
 21
178.23829387927182
  0
ARC
  8
_0-6_21
  6
CONTINUOUS
 62
    1
 10
135.45128600027391
 20
177.23829387927182
 40
1
 50
0
 51
90
  0
LINE
  8
_0-6_21
  6
CONTINUOUS
 62
    1
 10
131.37128600027393
 20
179.77829387927181
 11
131.37128600027393
 21
178.23829387927188
  0
ARC
  8
_0-6_21
  6
CONTINUOUS
 62
    1
 10
130.37128600027393
 20
179.77829387927181
 40
1
 50
0
 51
90
  0
LINE
  8
_0-6_21
  6
CONTINUOUS
 62
    1
 10
124.60480316987821
 20
179.07118709808526
 11
134.74417921908739
 21
168.93181104887611
  0
LINE
  8
_0-6_21
  6
CONTINUOUS
 62
    1
 10
125.31190995106476
 20
180.77829387927181
 11
130.37128600027393
 21
180.77829387927181
  0
ARC
  8
_0-6_21
  6
CONTINUOUS
 62
    1
 10
125.31190995106476
 20
179.77829387927181
 40
1
 50
90
 51
224.99999999999997
  0
LINE
  8
_0-6_21
  6
CONTINUOUS
 62
    1
 10
119.34331702195223
 20
189.4182938792718
 11
117.1512860002739
 21
189.4182938792718
  0
LINE
  8
_0-6_21
  6
CONTINUOUS
 62
    1
 10
118.17128600027391
 20
221.4182938792718
 11
118.17128600027391
 21
223.45829387927179
  0
LINE
  8
_0-6_21
  6
CONTINUOUS
 62
    1
 10
136.45128600027391
 20
228.53829387927181
 11
136.45128600027391
 21
226.49829387927178
  0
LINE
  8
_0-6_21
  6
CONTINUOUS
 62
    1
 10
123.75128600027389
 20
223.45829387927179
 11
123.75128600027389
 21
221.4182938792718
  0
LINE
  8
_0-6_21
  6
CONTINUOUS
 62
    1
 10
144.07128600027394
 20
218.87829387927178
 11
152.46128600027396
 21
218.87829387927178
  0
LINE
  8
_0-6_21
  6
CONTINUOUS
 62
    1
 10
152.46128600027396
 20
214.56829387927178
 11
136.45128600027391
 21
214.56829387927178
  0
LINE
  8
_0-6_21
  6
CONTINUOUS
 62
    1
 10
136.45128600027391
 20
214.56829387927181
 11
136.45128600027391
 21
212.52829387927179
  0
LINE
  8
_0-6_21
  6
CONTINUOUS
 62
    1
 10
116.13128600027392
 20
209.48829387927179
 11
116.13128600027392
 21
207.4482938792718
  0
LINE
  8
_0-6_21
  6
CONTINUOUS
 62
    1
 10
136.45128600027391
 20
201.86829387927182
 11
136.45128600027391
 21
199.8282938792718
  0
LINE
  8
_0-6_21
  6
CONTINUOUS
 62
    1
 10
132.64128600027391
 20
196.78829387927181
 11
132.64128600027391
 21
194.74829387927181
  0
LINE
  8
_0-6_21
  6
CONTINUOUS
 62
    1
 10
144.07128600027394
 20
192.20829387927179
 11
152.46128600027396
 21
192.20829387927179
  0
LINE
  8
_0-6_21
  6
CONTINUOUS
 62
    1
 10
152.46128600027396
 20
187.89829387927182
 11
136.45128600027391
 21
187.89829387927182
  0
LINE
  8
_0-6_21
  6
CONTINUOUS
 62
    1
 10
136.45128600027391
 20
187.89829387927182
 11
136.45128600027391
 21
185.8582938792718
  0
ARC
  8
_0-6_21
  6
CONTINUOUS
 62
    1
 10
159.58128600027396
 20
213.02829387927181
 40
1
 50
270
 51
0
  0
LINE
  8
_0-6_21
  6
CONTINUOUS
 62
    1
 10
160.58128600027396
 20
235.65829387927181
 11
160.58128600027396
 21
213.02829387927181
  0
ARC
  8
_0-6_21
  6
CONTINUOUS
 62
    1
 10
159.58128600027396
 20
235.65829387927181
 40
1
 50
0
 51
90
  0
LINE
  8
_0-6_21
  6
CONTINUOUS
 62
    1
 10
152.46128600027396
 20
235.65829387927181
 11
152.46128600027396
 21
218.87829387927178
  0
LINE
  8
_0-6_21
  6
CONTINUOUS
 62
    1
 10
153.46128600027396
 20
236.65829387927181
 11
159.58128600027396
 21
236.65829387927181
  0
ARC
  8
_0-6_21
  6
CONTINUOUS
 62
    1
 10
153.46128600027396
 20
235.65829387927181
 40
1
 50
90
 51
180
  0
LINE
  8
_0-6_21
  6
CONTINUOUS
 62
    1
 10
144.07128600027394
 20
220.4182938792718
 11
144.07128600027394
 21
218.87829387927178
  0
LINE
  8
_0-6_21
  6
CONTINUOUS
 62
    1
 10
143.07128600027394
 20
221.4182938792718
 11
123.75128600027389
 21
221.4182938792718
  0
ARC
  8
_0-6_21
  6
CONTINUOUS
 62
    1
 10
143.07128600027394
 20
220.4182938792718
 40
1
 50
0
 51
90
  0
LINE
  8
_0-6_21
  6
CONTINUOUS
 62
    1
 10
140.53128600027395
 20
223.45829387927179
 11
123.75128600027389
 21
223.45829387927179
  0
ARC
  8
_0-6_21
  6
CONTINUOUS
 62
    1
 10
140.53128600027395
 20
224.45829387927179
 40
1
 50
270
 51
0
  0
LINE
  8
_0-6_21
  6
CONTINUOUS
 62
    1
 10
141.53128600027395
 20
225.49829387927178
 11
141.53128600027395
 21
224.45829387927179
  0
LINE
  8
_0-6_21
  6
CONTINUOUS
 62
    1
 10
140.53128600027395
 20
226.49829387927178
 11
136.45128600027391
 21
226.49829387927178
  0
ARC
  8
_0-6_21
  6
CONTINUOUS
 62
    1
 10
140.53128600027395
 20
225.49829387927178
 40
1
 50
0
 51
90
  0
LINE
  8
_0-6_21
  6
CONTINUOUS
 62
    1
 10
137.99128600027393
 20
228.53829387927181
 11
136.45128600027391
 21
228.53829387927181
  0
ARC
  8
_0-6_21
  6
CONTINUOUS
 62
    1
 10
137.99128600027393
 20
229.53829387927181
 40
1
 50
270
 51
0
  0
LINE
  8
_0-6_21
  6
CONTINUOUS
 62
    1
 10
138.99128600027393
 20
230.5782938792718
 11
138.99128600027393
 21
229.53829387927181
  0
ARC
  8
_0-6_21
  6
CONTINUOUS
 62
    1
 10
137.99128600027393
 20
230.5782938792718
 40
1
 50
0
 51
90
  0
LINE
  8
_0-6_21
  6
CONTINUOUS
 62
    1
 10
109.64628600027393
 20
231.5782938792718
 11
137.99128600027393
 21
231.5782938792718
  0
ARC
  8
_0-6_21
  6
CONTINUOUS
 62
    1
 10
109.64628600027393
 20
230.5782938792718
 40
1
 50
90
 51
180
  0
LINE
  8
_0-6_21
  6
CONTINUOUS
 62
    1
 10
109.64628600027393
 20
223.45829387927179
 11
118.17128600027391
 21
223.45829387927179
  0
LINE
  8
_0-6_21
  6
CONTINUOUS
 62
    1
 10
108.64628600027393
 20
224.45829387927179
 11
108.64628600027393
 21
230.5782938792718
  0
ARC
  8
_0-6_21
  6
CONTINUOUS
 62
    1
 10
109.64628600027393
 20
224.45829387927179
 40
1
 50
180
 51
270
  0
LINE
  8
_0-6_21
  6
CONTINUOUS
 62
    1
 10
111.55128600027393
 20
221.4182938792718
 11
118.17128600027391
 21
221.4182938792718
  0
ARC
  8
_0-6_21
  6
CONTINUOUS
 62
    1
 10
111.55128600027393
 20
220.4182938792718
 40
1
 50
90.000000000000014
 51
180
  0
LINE
  8
_0-6_21
  6
CONTINUOUS
 62
    1
 10
111.55128600027393
 20
206.94829387927177
 11
113.09128600027393
 21
206.94829387927177
  0
LINE
  8
_0-6_21
  6
CONTINUOUS
 62
    1
 10
110.55128600027393
 20
207.94829387927177
 11
110.55128600027393
 21
220.4182938792718
  0
ARC
  8
_0-6_21
  6
CONTINUOUS
 62
    1
 10
111.55128600027393
 20
207.94829387927177
 40
1
 50
180
 51
270
  0
LINE
  8
_0-6_21
  6
CONTINUOUS
 62
    1
 10
113.09128600027393
 20
187.62829387927181
 11
113.09128600027393
 21
206.94829387927177
  0
ARC
  8
_0-6_21
  6
CONTINUOUS
 62
    1
 10
114.09128600027393
 20
187.62829387927181
 40
1
 50
180
 51
270
  0
LINE
  8
_0-6_21
  6
CONTINUOUS
 62
    1
 10
116.1512860002739
 20
186.62829387927181
 11
114.09128600027393
 21
186.62829387927181
  0
LINE
  8
_0-6_21
  6
CONTINUOUS
 62
    1
 10
117.1512860002739
 20
187.62829387927181
 11
117.1512860002739
 21
189.4182938792718
  0
ARC
  8
_0-6_21
  6
CONTINUOUS
 62
    1
 10
116.1512860002739
 20
187.62829387927181
 40
1
 50
270
 51
0
  0
LINE
  8
_0-6_21
  6
CONTINUOUS
 62
    1
 10
125.65042380313875
 20
183.11118709808525
 11
119.34331702195223
 21
189.4182938792718
  0
ARC
  8
_0-6_21
  6
CONTINUOUS
 62
    1
 10
126.3575305843253
 20
183.81829387927181
 40
1
 50
224.99999999999994
 51
270
  0
LINE
  8
_0-6_21
  6
CONTINUOUS
 62
    1
 10
149.42128600027397
 20
182.81829387927181
 11
126.3575305843253
 21
182.81829387927181
  0
ARC
  8
_0-6_21
  6
CONTINUOUS
 62
    1
 10
149.42128600027397
 20
183.81829387927181
 40
1
 50
270
 51
0
  0
LINE
  8
_0-6_21
  6
CONTINUOUS
 62
    1
 10
150.42128600027397
 20
184.8582938792718
 11
150.42128600027397
 21
183.81829387927181
  0
LINE
  8
_0-6_21
  6
CONTINUOUS
 62
    1
 10
149.42128600027397
 20
185.8582938792718
 11
136.45128600027391
 21
185.8582938792718
  0
ARC
  8
_0-6_21
  6
CONTINUOUS
 62
    1
 10
149.42128600027397
 20
184.8582938792718
 40
1
 50
0
 51
90
  0
LINE
  8
_0-6_21
  6
CONTINUOUS
 62
    1
 10
152.46128600027396
 20
186.3582938792718
 11
152.46128600027396
 21
187.89829387927182
  0
ARC
  8
_0-6_21
  6
CONTINUOUS
 62
    1
 10
153.46128600027396
 20
186.3582938792718
 40
1
 50
180
 51
270
  0
LINE
  8
_0-6_21
  6
CONTINUOUS
 62
    1
 10
157.041286000274
 20
185.3582938792718
 11
153.46128600027396
 21
185.3582938792718
  0
ARC
  8
_0-6_21
  6
CONTINUOUS
 62
    1
 10
157.041286000274
 20
186.3582938792718
 40
1
 50
270
 51
0
  0
LINE
  8
_0-6_21
  6
CONTINUOUS
 62
    1
 10
158.041286000274
 20
208.98829387927179
 11
158.041286000274
 21
186.3582938792718
  0
ARC
  8
_0-6_21
  6
CONTINUOUS
 62
    1
 10
157.041286000274
 20
208.98829387927179
 40
1
 50
0
 51
90
  0
LINE
  8
_0-6_21
  6
CONTINUOUS
 62
    1
 10
152.46128600027396
 20
208.98829387927179
 11
152.46128600027396
 21
192.20829387927179
  0
LINE
  8
_0-6_21
  6
CONTINUOUS
 62
    1
 10
153.46128600027396
 20
209.98829387927179
 11
157.041286000274
 21
209.98829387927179
  0
ARC
  8
_0-6_21
  6
CONTINUOUS
 62
    1
 10
153.46128600027396
 20
208.98829387927179
 40
1
 50
90
 51
180
  0
LINE
  8
_0-6_21
  6
CONTINUOUS
 62
    1
 10
144.07128600027394
 20
193.74829387927181
 11
144.07128600027394
 21
192.20829387927179
  0
LINE
  8
_0-6_21
  6
CONTINUOUS
 62
    1
 10
143.07128600027394
 20
194.74829387927181
 11
132.64128600027391
 21
194.74829387927181
  0
ARC
  8
_0-6_21
  6
CONTINUOUS
 62
    1
 10
143.07128600027394
 20
193.74829387927181
 40
1
 50
0
 51
90
  0
LINE
  8
_0-6_21
  6
CONTINUOUS
 62
    1
 10
140.53128600027395
 20
196.78829387927181
 11
132.64128600027391
 21
196.78829387927181
  0
ARC
  8
_0-6_21
  6
CONTINUOUS
 62
    1
 10
140.53128600027395
 20
197.78829387927181
 40
1
 50
270
 51
0
  0
LINE
  8
_0-6_21
  6
CONTINUOUS
 62
    1
 10
141.53128600027395
 20
198.8282938792718
 11
141.53128600027395
 21
197.78829387927181
  0
LINE
  8
_0-6_21
  6
CONTINUOUS
 62
    1
 10
140.53128600027395
 20
199.8282938792718
 11
136.45128600027391
 21
199.8282938792718
  0
ARC
  8
_0-6_21
  6
CONTINUOUS
 62
    1
 10
140.53128600027395
 20
198.8282938792718
 40
1
 50
0
 51
90
  0
LINE
  8
_0-6_21
  6
CONTINUOUS
 62
    1
 10
137.99128600027393
 20
201.86829387927182
 11
136.45128600027391
 21
201.86829387927182
  0
ARC
  8
_0-6_21
  6
CONTINUOUS
 62
    1
 10
137.99128600027393
 20
202.86829387927182
 40
1
 50
270
 51
0
  0
LINE
  8
_0-6_21
  6
CONTINUOUS
 62
    1
 10
138.99128600027393
 20
203.90829387927181
 11
138.99128600027393
 21
202.86829387927182
  0
LINE
  8
_0-6_21
  6
CONTINUOUS
 62
    1
 10
137.99128600027393
 20
204.90829387927181
 11
132.64128600027391
 21
204.90829387927181
  0
ARC
  8
_0-6_21
  6
CONTINUOUS
 62
    1
 10
137.99128600027393
 20
203.90829387927181
 40
1
 50
0
 51
90
  0
LINE
  8
_0-6_21
  6
CONTINUOUS
 62
    1
 10
132.64128600027391
 20
206.4482938792718
 11
132.64128600027391
 21
204.90829387927181
  0
LINE
  8
_0-6_21
  6
CONTINUOUS
 62
    1
 10
131.64128600027391
 20
207.4482938792718
 11
116.13128600027392
 21
207.4482938792718
  0
ARC
  8
_0-6_21
  6
CONTINUOUS
 62
    1
 10
131.64128600027391
 20
206.4482938792718
 40
1
 50
0
 51
90
  0
LINE
  8
_0-6_21
  6
CONTINUOUS
 62
    1
 10
149.42128600027397
 20
209.48829387927179
 11
116.13128600027392
 21
209.48829387927179
  0
ARC
  8
_0-6_21
  6
CONTINUOUS
 62
    1
 10
149.42128600027397
 20
210.48829387927179
 40
1
 50
270
 51
0
  0
LINE
  8
_0-6_21
  6
CONTINUOUS
 62
    1
 10
150.42128600027397
 20
211.52829387927179
 11
150.42128600027397
 21
210.48829387927179
  0
LINE
  8
_0-6_21
  6
CONTINUOUS
 62
    1
 10
149.42128600027397
 20
212.52829387927179
 11
136.45128600027391
 21
212.52829387927179
  0
ARC
  8
_0-6_21
  6
CONTINUOUS
 62
    1
 10
149.42128600027397
 20
211.52829387927179
 40
1
 50
0
 51
90
  0
LINE
  8
_0-6_21
  6
CONTINUOUS
 62
    1
 10
153.46128600027396
 20
212.02829387927181
 11
159.58128600027396
 21
212.02829387927181
  0
LINE
  8
_0-6_21
  6
CONTINUOUS
 62
    1
 10
152.46128600027396
 20
213.02829387927181
 11
152.46128600027396
 21
214.56829387927181
  0
ARC
  8
_0-6_21
  6
CONTINUOUS
 62
    1
 10
153.46128600027396
 20
213.02829387927181
 40
1
 50
180
 51
270
  0
LINE
  8
_0-6_21
  6
CONTINUOUS
 62
    1
 10
118.17128600027391
 20
248.08829387927179
 11
118.17128600027391
 21
250.12829387927178
  0
LINE
  8
_0-6_21
  6
CONTINUOUS
 62
    1
 10
136.45128600027391
 20
255.20829387927179
 11
136.45128600027391
 21
253.16829387927177
  0
LINE
  8
_0-6_21
  6
CONTINUOUS
 62
    1
 10
123.75128600027389
 20
250.12829387927178
 11
123.75128600027389
 21
248.08829387927179
  0
LINE
  8
_0-6_21
  6
CONTINUOUS
 62
    1
 10
144.07128600027394
 20
245.5482938792718
 11
152.46128600027396
 21
245.5482938792718
  0
LINE
  8
_0-6_21
  6
CONTINUOUS
 62
    1
 10
152.46128600027396
 20
241.23829387927179
 11
136.45128600027391
 21
241.23829387927179
  0
LINE
  8
_0-6_21
  6
CONTINUOUS
 62
    1
 10
136.45128600027391
 20
241.23829387927179
 11
136.45128600027391
 21
239.19829387927177
  0
LINE
  8
_0-6_21
  6
CONTINUOUS
 62
    1
 10
149.42128600027397
 20
236.15829387927178
 11
114.86128600027391
 21
236.15829387927178
  0
ARC
  8
_0-6_21
  6
CONTINUOUS
 62
    1
 10
149.42128600027397
 20
237.15829387927178
 40
1
 50
270
 51
0
  0
LINE
  8
_0-6_21
  6
CONTINUOUS
 62
    1
 10
150.42128600027397
 20
238.19829387927177
 11
150.42128600027397
 21
237.15829387927178
  0
LINE
  8
_0-6_21
  6
CONTINUOUS
 62
    1
 10
149.42128600027397
 20
239.19829387927177
 11
136.45128600027391
 21
239.19829387927177
  0
ARC
  8
_0-6_21
  6
CONTINUOUS
 62
    1
 10
149.42128600027397
 20
238.19829387927177
 40
1
 50
0
 51
90
  0
LINE
  8
_0-6_21
  6
CONTINUOUS
 62
    1
 10
152.46128600027396
 20
239.6982938792718
 11
152.46128600027396
 21
241.23829387927177
  0
ARC
  8
_0-6_21
  6
CONTINUOUS
 62
    1
 10
153.46128600027396
 20
239.6982938792718
 40
1
 50
180
 51
270
  0
LINE
  8
_0-6_21
  6
CONTINUOUS
 62
    1
 10
162.12128600027398
 20
238.6982938792718
 11
153.46128600027396
 21
238.6982938792718
  0
ARC
  8
_0-6_21
  6
CONTINUOUS
 62
    1
 10
162.12128600027398
 20
239.6982938792718
 40
1
 50
270
 51
0
  0
LINE
  8
_0-6_21
  6
CONTINUOUS
 62
    1
 10
163.12128600027398
 20
262.32829387927177
 11
163.12128600027398
 21
239.6982938792718
  0
ARC
  8
_0-6_21
  6
CONTINUOUS
 62
    1
 10
162.12128600027398
 20
262.32829387927177
 40
1
 50
0
 51
90
  0
LINE
  8
_0-6_21
  6
CONTINUOUS
 62
    1
 10
153.46128600027396
 20
263.32829387927177
 11
162.12128600027398
 21
263.32829387927177
  0
LINE
  8
_0-6_21
  6
CONTINUOUS
 62
    1
 10
152.46128600027396
 20
262.32829387927177
 11
152.46128600027396
 21
245.5482938792718
  0
ARC
  8
_0-6_21
  6
CONTINUOUS
 62
    1
 10
153.46128600027396
 20
262.32829387927177
 40
1
 50
90.000000000000014
 51
180
  0
LINE
  8
_0-6_21
  6
CONTINUOUS
 62
    1
 10
144.07128600027394
 20
247.08829387927179
 11
144.07128600027394
 21
245.5482938792718
  0
LINE
  8
_0-6_21
  6
CONTINUOUS
 62
    1
 10
143.07128600027394
 20
248.08829387927179
 11
123.75128600027389
 21
248.08829387927179
  0
ARC
  8
_0-6_21
  6
CONTINUOUS
 62
    1
 10
143.07128600027394
 20
247.08829387927179
 40
1
 50
0
 51
90
  0
LINE
  8
_0-6_21
  6
CONTINUOUS
 62
    1
 10
141.80128600027393
 20
250.12829387927178
 11
123.75128600027389
 21
250.12829387927178
  0
ARC
  8
_0-6_21
  6
CONTINUOUS
 62
    1
 10
141.80128600027393
 20
251.12829387927178
 40
1
 50
270
 51
0
  0
LINE
  8
_0-6_21
  6
CONTINUOUS
 62
    1
 10
142.80128600027393
 20
252.16829387927177
 11
142.80128600027393
 21
251.12829387927178
  0
LINE
  8
_0-6_21
  6
CONTINUOUS
 62
    1
 10
141.80128600027393
 20
253.16829387927177
 11
136.45128600027391
 21
253.16829387927177
  0
ARC
  8
_0-6_21
  6
CONTINUOUS
 62
    1
 10
141.80128600027393
 20
252.16829387927177
 40
1
 50
0
 51
90
  0
LINE
  8
_0-6_21
  6
CONTINUOUS
 62
    1
 10
137.99128600027393
 20
255.20829387927179
 11
136.45128600027391
 21
255.20829387927179
  0
ARC
  8
_0-6_21
  6
CONTINUOUS
 62
    1
 10
137.99128600027393
 20
256.20829387927176
 40
1
 50
270
 51
0
  0
LINE
  8
_0-6_21
  6
CONTINUOUS
 62
    1
 10
138.99128600027393
 20
257.38329387927178
 11
138.99128600027393
 21
256.20829387927176
  0
ARC
  8
_0-6_21
  6
CONTINUOUS
 62
    1
 10
137.99128600027393
 20
257.38329387927178
 40
1
 50
0
 51
90
  0
LINE
  8
_0-6_21
  6
CONTINUOUS
 62
    1
 10
107.10628600027394
 20
258.38329387927178
 11
137.99128600027393
 21
258.38329387927178
  0
ARC
  8
_0-6_21
  6
CONTINUOUS
 62
    1
 10
107.10628600027394
 20
257.38329387927178
 40
1
 50
90
 51
180
  0
LINE
  8
_0-6_21
  6
CONTINUOUS
 62
    1
 10
107.10628600027394
 20
250.12829387927178
 11
118.17128600027391
 21
250.12829387927178
  0
LINE
  8
_0-6_21
  6
CONTINUOUS
 62
    1
 10
106.10628600027394
 20
251.12829387927178
 11
106.10628600027394
 21
257.38329387927178
  0
ARC
  8
_0-6_21
  6
CONTINUOUS
 62
    1
 10
107.10628600027394
 20
251.12829387927178
 40
1
 50
180
 51
270
  0
LINE
  8
_0-6_21
  6
CONTINUOUS
 62
    1
 10
108.37628600027395
 20
248.08829387927179
 11
118.17128600027391
 21
248.08829387927179
  0
ARC
  8
_0-6_21
  6
CONTINUOUS
 62
    1
 10
108.37628600027395
 20
247.08829387927179
 40
1
 50
90.000000000000014
 51
180
  0
LINE
  8
_0-6_21
  6
CONTINUOUS
 62
    1
 10
107.37628600027395
 20
234.61829387927179
 11
107.37628600027395
 21
247.08829387927179
  0
ARC
  8
_0-6_21
  6
CONTINUOUS
 62
    1
 10
108.37628600027395
 20
234.61829387927179
 40
1
 50
180
 51
270
  0
LINE
  8
_0-6_21
  6
CONTINUOUS
 62
    1
 10
114.86128600027391
 20
234.61829387927179
 11
114.86128600027391
 21
236.15829387927178
  0
LINE
  8
_0-6_21
  6
CONTINUOUS
 62
    1
 10
113.86128600027391
 20
233.61829387927179
 11
108.37628600027395
 21
233.61829387927179
  0
ARC
  8
_0-6_21
  6
CONTINUOUS
 62
    1
 10
113.86128600027391
 20
234.61829387927179
 40
1
 50
270
 51
0
  0
LINE
  8
_0-6_21
  6
CONTINUOUS
 62
    1
 10
105.33628600027396
 20
207.9482938792718
 11
105.33628600027396
 21
260.15329387927181
  0
ARC
  8
_0-6_21
  6
CONTINUOUS
 62
    1
 10
104.33628600027396
 20
207.9482938792718
 40
1
 50
270
 51
0
  0
LINE
  8
_0-6_21
  6
CONTINUOUS
 62
    1
 10
96.311286000273981
 20
206.9482938792718
 11
104.33628600027396
 21
206.9482938792718
  0
ARC
  8
_0-6_21
  6
CONTINUOUS
 62
    1
 10
96.311286000273981
 20
207.9482938792718
 40
1
 50
180
 51
270
  0
LINE
  8
_0-6_21
  6
CONTINUOUS
 62
    1
 10
95.311286000273981
 20
211.52829387927181
 11
95.311286000273981
 21
207.9482938792718
  0
LINE
  8
_0-6_21
  6
CONTINUOUS
 62
    1
 10
96.311286000273981
 20
212.52829387927181
 11
102.93128600027396
 21
212.52829387927181
  0
ARC
  8
_0-6_21
  6
CONTINUOUS
 62
    1
 10
96.311286000273981
 20
211.52829387927181
 40
1
 50
90
 51
180
  0
LINE
  8
_0-6_21
  6
CONTINUOUS
 62
    1
 10
112.59128600027393
 20
260.15329387927181
 11
105.33628600027396
 21
260.15329387927181
  0
ARC
  8
_0-6_21
  6
CONTINUOUS
 62
    1
 10
112.59128600027393
 20
261.15329387927181
 40
1
 50
270
 51
0
  0
LINE
  8
_0-6_21
  6
CONTINUOUS
 62
    1
 10
113.59128600027393
 20
261.15329387927181
 11
113.59128600027393
 21
262.82829387927177
  0
LINE
  8
_0-6_21
  6
CONTINUOUS
 62
    1
 10
149.42128600027397
 20
262.82829387927177
 11
113.59128600027393
 21
262.82829387927177
  0
ARC
  8
_0-6_21
  6
CONTINUOUS
 62
    1
 10
149.42128600027397
 20
263.82829387927177
 40
1
 50
270
 51
0
  0
LINE
  8
_0-6_21
  6
CONTINUOUS
 62
    1
 10
150.42128600027397
 20
264.86829387927173
 11
150.42128600027397
 21
263.82829387927177
  0
LINE
  8
_0-6_21
  6
CONTINUOUS
 62
    1
 10
149.42128600027397
 20
265.86829387927173
 11
136.45128600027391
 21
265.86829387927173
  0
ARC
  8
_0-6_21
  6
CONTINUOUS
 62
    1
 10
149.42128600027397
 20
264.86829387927173
 40
1
 50
0
 51
90
  0
LINE
  8
_0-6_21
  6
CONTINUOUS
 62
    1
 10
136.45128600027391
 20
267.40829387927181
 11
136.45128600027391
 21
265.86829387927173
  0
ARC
  8
_0-6_21
  6
CONTINUOUS
 62
    1
 10
135.45128600027391
 20
267.40829387927181
 40
1
 50
0
 51
90
  0
LINE
  8
_0-6_21
  6
CONTINUOUS
 62
    1
 10
102.93128600027396
 20
267.40829387927181
 11
102.93128600027396
 21
212.52829387927181
  0
LINE
  8
_0-6_21
  6
CONTINUOUS
 62
    1
 10
103.93128600027396
 20
268.40829387927181
 11
135.45128600027391
 21
268.40829387927181
  0
ARC
  8
_0-6_21
  6
CONTINUOUS
 62
    1
 10
103.93128600027396
 20
267.40829387927181
 40
1
 50
90
 51
180
  0
ARC
  8
_0-6_21
  6
CONTINUOUS
 62
    1
 10
164.66128600027395
 20
266.36829387927179
 40
1
 50
270
 51
0
  0
LINE
  8
_0-6_21
  6
CONTINUOUS
 62
    1
 10
153.46128600027396
 20
265.36829387927179
 11
164.66128600027395
 21
265.36829387927179
  0
ARC
  8
_0-6_21
  6
CONTINUOUS
 62
    1
 10
153.46128600027396
 20
266.36829387927179
 40
1
 50
180
 51
270
  0
LINE
  8
_0-6_21
  6
CONTINUOUS
 62
    1
 10
152.46128600027396
 20
267.40829387927181
 11
152.46128600027396
 21
266.36829387927179
  0
ARC
  8
_0-6_21
  6
CONTINUOUS
 62
    1
 10
153.46128600027396
 20
267.40829387927181
 40
1
 50
90.000000000000014
 51
180
  0
LINE
  8
_0-6_21
  6
CONTINUOUS
 62
    1
 10
165.66128600027395
 20
267.40829387927181
 11
165.66128600027395
 21
266.36829387927179
  0
LINE
  8
_0-6_21
  6
CONTINUOUS
 62
    1
 10
164.66128600027395
 20
268.40829387927181
 11
153.46128600027396
 21
268.40829387927181
  0
ARC
  8
_0-6_21
  6
CONTINUOUS
 62
    1
 10
164.66128600027395
 20
267.40829387927181
 40
1
 50
0
 51
90
  0
LINE
  8
_0-6_21
  6
CONTINUOUS
 62
    1
 10
98.351286000273973
 20
272.98829387927179
 11
170.24128600027399
 21
272.98829387927179
  0
LINE
  8
_0-6_21
  6
CONTINUOUS
 62
    1
 10
170.24128600027393
 20
30.918293879271857
 11
94.541286000273971
 21
30.918293879271857
  0
LINE
  8
_0-6_21
  6
CONTINUOUS
 62
    1
 10
94.541286000273971
 20
30.918293879271857
 11
94.541286000273971
 21
45.658293879271866
  0
LINE
  8
_0-6_21
  6
CONTINUOUS
 62
    1
 10
93.271286000273989
 20
112.46829387927184
 11
93.271286000273989
 21
108.62496060977185
  0
ARC
  8
_0-6_21
  6
CONTINUOUS
 62
    1
 10
92.271286000273989
 20
112.46829387927184
 40
1
 50
0
 51
90
  0
LINE
  8
_0-6_21
  6
CONTINUOUS
 62
    1
 10
97.351286000273973
 20
108.62496060977185
 11
93.271286000273989
 21
108.62496060977185
  0
ARC
  8
_0-6_21
  6
CONTINUOUS
 62
    1
 10
97.351286000273973
 20
107.62496060977185
 40
1
 50
0
 51
90
  0
LINE
  8
_0-6_21
  6
CONTINUOUS
 62
    1
 10
98.351286000273973
 20
46.658293879271866
 11
98.351286000273973
 21
107.62496060977185
  0
LINE
  8
_0-6_21
  6
CONTINUOUS
 62
    1
 10
97.351286000273944
 20
45.658293879271866
 11
94.541286000273971
 21
45.658293879271866
  0
ARC
  8
_0-6_21
  6
CONTINUOUS
 62
    1
 10
97.351286000273944
 20
46.658293879271866
 40
1
 50
270
 51
0
  0
LINE
  8
_0-6_21
  6
CONTINUOUS
 62
    1
 10
183.44128600027398
 20
46.158293879271866
 11
183.44128600027398
 21
53.278293879271956
  0
ARC
  8
_0-6_21
  6
CONTINUOUS
 62
    1
 10
187.00128600027398
 20
29.918293879271857
 40
1
 50
270
 51
0
  0
LINE
  8
_0-6_21
  6
CONTINUOUS
 62
    1
 10
188.00128600027398
 20
45.158293879271866
 11
188.00128600027398
 21
29.918293879271857
  0
LINE
  8
_0-6_21
  6
CONTINUOUS
 62
    1
 10
187.00128600027398
 20
46.158293879271866
 11
183.44128600027398
 21
46.158293879271866
  0
ARC
  8
_0-6_21
  6
CONTINUOUS
 62
    1
 10
187.00128600027398
 20
45.158293879271866
 40
1
 50
0
 51
90
  0
LINE
  8
_0-6_21
  6
CONTINUOUS
 62
    1
 10
187.00128600027398
 20
53.278293879271956
 11
183.44128600027398
 21
53.278293879271956
  0
ARC
  8
_0-6_21
  6
CONTINUOUS
 62
    1
 10
187.00128600027398
 20
54.278293879271956
 40
1
 50
270
 51
0
  0
LINE
  8
_0-6_21
  6
CONTINUOUS
 62
    1
 10
183.44128600027398
 20
72.828293879271854
 11
183.44128600027398
 21
79.948293879271944
  0
LINE
  8
_0-6_21
  6
CONTINUOUS
 62
    1
 10
183.44128600027398
 20
99.498293879271841
 11
183.44128600027398
 21
106.61829387927182
  0
LINE
  8
_0-6_21
  6
CONTINUOUS
 62
    1
 10
183.44128600027398
 20
126.16829387927183
 11
183.44128600027398
 21
133.28829387927192
  0
LINE
  8
_0-6_21
  6
CONTINUOUS
 62
    1
 10
188.00128600027398
 20
71.828293879271854
 11
188.00128600027398
 21
54.278293879271956
  0
LINE
  8
_0-6_21
  6
CONTINUOUS
 62
    1
 10
187.00128600027398
 20
72.828293879271854
 11
183.44128600027398
 21
72.828293879271854
  0
ARC
  8
_0-6_21
  6
CONTINUOUS
 62
    1
 10
187.00128600027398
 20
71.828293879271854
 40
1
 50
0
 51
90
  0
LINE
  8
_0-6_21
  6
CONTINUOUS
 62
    1
 10
187.00128600027398
 20
79.948293879271944
 11
183.44128600027398
 21
79.948293879271944
  0
ARC
  8
_0-6_21
  6
CONTINUOUS
 62
    1
 10
187.00128600027398
 20
80.948293879271944
 40
1
 50
270
 51
0
  0
LINE
  8
_0-6_21
  6
CONTINUOUS
 62
    1
 10
188.00128600027398
 20
98.498293879271841
 11
188.00128600027398
 21
80.948293879271944
  0
LINE
  8
_0-6_21
  6
CONTINUOUS
 62
    1
 10
187.00128600027398
 20
99.498293879271841
 11
183.44128600027398
 21
99.498293879271841
  0
ARC
  8
_0-6_21
  6
CONTINUOUS
 62
    1
 10
187.00128600027398
 20
98.498293879271841
 40
1
 50
0
 51
90
  0
LINE
  8
_0-6_21
  6
CONTINUOUS
 62
    1
 10
187.00128600027398
 20
106.61829387927193
 11
183.44128600027398
 21
106.61829387927193
  0
ARC
  8
_0-6_21
  6
CONTINUOUS
 62
    1
 10
187.00128600027398
 20
107.61829387927193
 40
1
 50
270
 51
0
  0
LINE
  8
_0-6_21
  6
CONTINUOUS
 62
    1
 10
188.00128600027398
 20
125.16829387927183
 11
188.00128600027398
 21
107.61829387927193
  0
LINE
  8
_0-6_21
  6
CONTINUOUS
 62
    1
 10
187.00128600027398
 20
126.16829387927183
 11
183.44128600027398
 21
126.16829387927183
  0
ARC
  8
_0-6_21
  6
CONTINUOUS
 62
    1
 10
187.00128600027398
 20
125.16829387927183
 40
1
 50
0
 51
90
  0
LINE
  8
_0-6_21
  6
CONTINUOUS
 62
    1
 10
187.00128600027398
 20
133.28829387927181
 11
183.44128600027398
 21
133.28829387927181
  0
ARC
  8
_0-6_21
  6
CONTINUOUS
 62
    1
 10
187.00128600027398
 20
134.28829387927181
 40
1
 50
270
 51
0
  0
LINE
  8
_0-6_21
  6
CONTINUOUS
 62
    1
 10
183.44128600027398
 20
173.15829387927181
 11
183.44128600027398
 21
180.27829387927179
  0
LINE
  8
_0-6_21
  6
CONTINUOUS
 62
    1
 10
183.44128600027398
 20
199.8282938792718
 11
183.44128600027398
 21
206.94829387927189
  0
LINE
  8
_0-6_21
  6
CONTINUOUS
 62
    1
 10
183.44128600027398
 20
226.49829387927181
 11
183.44128600027398
 21
233.6182938792719
  0
LINE
  8
_0-6_21
  6
CONTINUOUS
 62
    1
 10
183.44128600027398
 20
253.1682938792718
 11
183.44128600027398
 21
260.28829387927192
  0
LINE
  8
_0-6_21
  6
CONTINUOUS
 62
    1
 10
188.00128600027398
 20
172.15829387927181
 11
188.00128600027398
 21
134.28829387927181
  0
LINE
  8
_0-6_21
  6
CONTINUOUS
 62
    1
 10
187.00128600027398
 20
173.15829387927181
 11
183.44128600027398
 21
173.15829387927181
  0
ARC
  8
_0-6_21
  6
CONTINUOUS
 62
    1
 10
187.00128600027398
 20
172.15829387927181
 40
1
 50
0
 51
90
  0
LINE
  8
_0-6_21
  6
CONTINUOUS
 62
    1
 10
187.00128600027398
 20
180.27829387927179
 11
183.44128600027398
 21
180.27829387927179
  0
ARC
  8
_0-6_21
  6
CONTINUOUS
 62
    1
 10
187.00128600027398
 20
181.27829387927179
 40
1
 50
270
 51
0
  0
LINE
  8
_0-6_21
  6
CONTINUOUS
 62
    1
 10
188.00128600027398
 20
198.8282938792718
 11
188.00128600027398
 21
181.27829387927179
  0
LINE
  8
_0-6_21
  6
CONTINUOUS
 62
    1
 10
187.00128600027398
 20
199.8282938792718
 11
183.44128600027398
 21
199.8282938792718
  0
ARC
  8
_0-6_21
  6
CONTINUOUS
 62
    1
 10
187.00128600027398
 20
198.8282938792718
 40
1
 50
0
 51
90
  0
LINE
  8
_0-6_21
  6
CONTINUOUS
 62
    1
 10
187.00128600027398
 20
206.94829387927189
 11
183.44128600027398
 21
206.94829387927189
  0
ARC
  8
_0-6_21
  6
CONTINUOUS
 62
    1
 10
187.00128600027398
 20
207.94829387927189
 40
1
 50
270
 51
0
  0
LINE
  8
_0-6_21
  6
CONTINUOUS
 62
    1
 10
188.00128600027398
 20
225.49829387927181
 11
188.00128600027398
 21
207.94829387927189
  0
LINE
  8
_0-6_21
  6
CONTINUOUS
 62
    1
 10
187.00128600027398
 20
226.49829387927181
 11
183.44128600027398
 21
226.49829387927181
  0
ARC
  8
_0-6_21
  6
CONTINUOUS
 62
    1
 10
187.00128600027398
 20
225.49829387927181
 40
1
 50
0
 51
90
  0
LINE
  8
_0-6_21
  6
CONTINUOUS
 62
    1
 10
187.00128600027398
 20
233.61829387927179
 11
183.44128600027398
 21
233.61829387927179
  0
ARC
  8
_0-6_21
  6
CONTINUOUS
 62
    1
 10
187.00128600027398
 20
234.61829387927179
 40
1
 50
270
 51
0
  0
LINE
  8
_0-6_21
  6
CONTINUOUS
 62
    1
 10
188.00128600027398
 20
252.1682938792718
 11
188.00128600027398
 21
234.61829387927179
  0
LINE
  8
_0-6_21
  6
CONTINUOUS
 62
    1
 10
187.00128600027398
 20
253.1682938792718
 11
183.44128600027398
 21
253.1682938792718
  0
ARC
  8
_0-6_21
  6
CONTINUOUS
 62
    1
 10
187.00128600027398
 20
252.1682938792718
 40
1
 50
0
 51
90
  0
LINE
  8
_0-6_21
  6
CONTINUOUS
 62
    1
 10
187.00128600027398
 20
260.28829387927192
 11
183.44128600027398
 21
260.28829387927192
  0
ARC
  8
_0-6_21
  6
CONTINUOUS
 62
    1
 10
187.00128600027398
 20
261.28829387927192
 40
1
 50
270
 51
0
  0
ARC
  8
_0-6_21
  6
CONTINUOUS
 62
    1
 10
86.671286000274023
 20
218.1082938792718
 40
1
 50
180
 51
270
  0
LINE
  8
_0-6_21
  6
CONTINUOUS
 62
    1
 10
85.671286000274023
 20
278.58829387927176
 11
85.671286000274023
 21
218.1082938792718
  0
ARC
  8
_0-6_21
  6
CONTINUOUS
 62
    1
 10
86.671286000274023
 20
278.58829387927176
 40
1
 50
90.000000000000014
 51
180
  0
LINE
  8
_0-6_21
  6
CONTINUOUS
 62
    1
 10
188.00128600027398
 20
278.58829387927176
 11
188.00128600027398
 21
261.28829387927192
  0
LINE
  8
_0-6_21
  6
CONTINUOUS
 62
    1
 10
187.00128600027398
 20
279.58829387927176
 11
86.671286000274023
 21
279.58829387927176
  0
ARC
  8
_0-6_21
  6
CONTINUOUS
 62
    1
 10
187.00128600027398
 20
278.58829387927176
 40
1
 50
0
 51
90
  0
LINE
  8
_0-6_21
  6
CONTINUOUS
 62
    1
 10
98.351286000273973
 20
218.1082938792718
 11
98.351286000273973
 21
272.98829387927179
  0
LINE
  8
_0-6_21
  6
CONTINUOUS
 62
    1
 10
97.351286000273973
 20
217.1082938792718
 11
86.671286000274023
 21
217.1082938792718
  0
ARC
  8
_0-6_21
  6
CONTINUOUS
 62
    1
 10
97.351286000273973
 20
218.1082938792718
 40
1
 50
270
 51
0
  0
ARC
  8
_0-6_21
  6
CONTINUOUS
 62
    1
 10
88.461286000273986
 20
187.62829387927181
 40
1
 50
270
 51
0
  0
LINE
  8
_0-6_21
  6
CONTINUOUS
 62
    1
 10
89.461286000273986
 20
196.28829387927181
 11
89.461286000273986
 21
187.62829387927181
  0
ARC
  8
_0-6_21
  6
CONTINUOUS
 62
    1
 10
88.461286000273986
 20
196.28829387927181
 40
1
 50
0
 51
90
  0
LINE
  8
_0-6_21
  6
CONTINUOUS
 62
    1
 10
86.671286000273994
 20
186.62829387927181
 11
88.461286000273986
 21
186.62829387927181
  0
ARC
  8
_0-6_21
  6
CONTINUOUS
 62
    1
 10
86.671286000273994
 20
187.62829387927181
 40
1
 50
180
 51
270
  0
LINE
  8
_0-6_21
  6
CONTINUOUS
 62
    1
 10
86.671286000273994
 20
197.28829387927181
 11
88.461286000273986
 21
197.28829387927181
  0
LINE
  8
_0-6_21
  6
CONTINUOUS
 62
    1
 10
85.671286000273994
 20
196.28829387927181
 11
85.671286000273994
 21
187.62829387927181
  0
ARC
  8
_0-6_21
  6
CONTINUOUS
 62
    1
 10
86.671286000273994
 20
196.28829387927181
 40
1
 50
90.000000000000014
 51
180
  0
LINE
  8
_0-6_21
  6
CONTINUOUS
 62
    1
 10
95.311286000273981
 20
174.42829387927182
 11
93.271286000273989
 21
174.42829387927182
  0
ARC
  8
_0-6_21
  6
CONTINUOUS
 62
    1
 10
86.671286000273994
 20
172.25329387927184
 40
1
 50
180
 51
270
  0
LINE
  8
_0-6_21
  6
CONTINUOUS
 62
    1
 10
85.671286000273994
 20
178.5082938792718
 11
85.671286000273994
 21
172.25329387927181
  0
ARC
  8
_0-6_21
  6
CONTINUOUS
 62
    1
 10
86.671286000273994
 20
178.5082938792718
 40
1
 50
90.000000000000014
 51
180
  0
LINE
  8
_0-6_21
  6
CONTINUOUS
 62
    1
 10
88.191286000274005
 20
178.5082938792718
 11
88.191286000274005
 21
176.96829387927181
  0
LINE
  8
_0-6_21
  6
CONTINUOUS
 62
    1
 10
87.191286000274005
 20
179.5082938792718
 11
86.671286000273994
 21
179.5082938792718
  0
ARC
  8
_0-6_21
  6
CONTINUOUS
 62
    1
 10
87.191286000274005
 20
178.5082938792718
 40
1
 50
0
 51
90
  0
LINE
  8
_0-6_21
  6
CONTINUOUS
 62
    1
 10
93.271286000273989
 20
175.96829387927181
 11
93.271286000273989
 21
174.42829387927182
  0
LINE
  8
_0-6_21
  6
CONTINUOUS
 62
    1
 10
92.271286000273989
 20
176.96829387927181
 11
88.191286000274005
 21
176.96829387927181
  0
ARC
  8
_0-6_21
  6
CONTINUOUS
 62
    1
 10
92.271286000273989
 20
175.96829387927181
 40
1
 50
0
 51
90
  0
LINE
  8
_0-6_21
  6
CONTINUOUS
 62
    1
 10
95.311286000273981
 20
175.96829387927181
 11
95.311286000273981
 21
174.42829387927182
  0
LINE
  8
_0-6_21
  6
CONTINUOUS
 62
    1
 10
96.311286000273981
 20
176.96829387927181
 11
100.39128600027396
 21
176.96829387927181
  0
ARC
  8
_0-6_21
  6
CONTINUOUS
 62
    1
 10
96.311286000273981
 20
175.96829387927181
 40
1
 50
90
 51
180
  0
LINE
  8
_0-6_21
  6
CONTINUOUS
 62
    1
 10
100.39128600027396
 20
183.58829387927179
 11
100.39128600027396
 21
176.96829387927181
  0
ARC
  8
_0-6_21
  6
CONTINUOUS
 62
    1
 10
101.39128600027396
 20
183.58829387927179
 40
1
 50
90
 51
180
  0
LINE
  8
_0-6_21
  6
CONTINUOUS
 62
    1
 10
104.33628600027396
 20
184.58829387927179
 11
101.39128600027396
 21
184.58829387927179
  0
ARC
  8
_0-6_21
  6
CONTINUOUS
 62
    1
 10
104.33628600027396
 20
183.58829387927179
 40
1
 50
0
 51
90
  0
LINE
  8
_0-6_21
  6
CONTINUOUS
 62
    1
 10
105.33628600027396
 20
172.25329387927184
 11
105.33628600027396
 21
183.58829387927179
  0
LINE
  8
_0-6_21
  6
CONTINUOUS
 62
    1
 10
104.33628600027393
 20
171.25329387927184
 11
86.671286000273994
 21
171.25329387927184
  0
ARC
  8
_0-6_21
  6
CONTINUOUS
 62
    1
 10
104.33628600027393
 20
172.25329387927184
 40
1
 50
270
 51
0
  0
ARC
  8
_0-6_21
  6
CONTINUOUS
 62
    1
 10
94.811286000273981
 20
119.04829387927182
 40
1
 50
270
 51
0
  0
LINE
  8
_0-6_21
  6
CONTINUOUS
 62
    1
 10
95.811286000273981
 20
127.70829387927182
 11
95.811286000273981
 21
119.04829387927182
  0
LINE
  8
_0-6_21
  6
CONTINUOUS
 62
    1
 10
94.811286000273981
 20
128.70829387927182
 11
89.461286000273986
 21
128.70829387927182
  0
ARC
  8
_0-6_21
  6
CONTINUOUS
 62
    1
 10
94.811286000273981
 20
127.70829387927182
 40
1
 50
0
 51
90
  0
LINE
  8
_0-6_21
  6
CONTINUOUS
 62
    1
 10
89.461286000273986
 20
130.24829387927181
 11
89.461286000273986
 21
128.70829387927182
  0
ARC
  8
_0-6_21
  6
CONTINUOUS
 62
    1
 10
88.461286000273986
 20
130.24829387927181
 40
1
 50
0
 51
90
  0
LINE
  8
_0-6_21
  6
CONTINUOUS
 62
    1
 10
86.671286000273994
 20
118.04829387927182
 11
94.811286000273981
 21
118.04829387927182
  0
ARC
  8
_0-6_21
  6
CONTINUOUS
 62
    1
 10
86.671286000273994
 20
119.04829387927182
 40
1
 50
180
 51
270
  0
LINE
  8
_0-6_21
  6
CONTINUOUS
 62
    1
 10
86.671286000273994
 20
131.24829387927181
 11
88.461286000273986
 21
131.24829387927181
  0
LINE
  8
_0-6_21
  6
CONTINUOUS
 62
    1
 10
85.671286000273994
 20
130.24829387927181
 11
85.671286000273994
 21
119.04829387927182
  0
ARC
  8
_0-6_21
  6
CONTINUOUS
 62
    1
 10
86.671286000273994
 20
130.24829387927181
 40
1
 50
90.000000000000014
 51
180
  0
ARC
  8
_0-6_21
  6
CONTINUOUS
 62
    1
 10
86.671286000273994
 20
29.918293879271857
 40
1
 50
180
 51
270
  0
LINE
  8
_0-6_21
  6
CONTINUOUS
 62
    1
 10
85.671286000273994
 20
112.46829387927184
 11
85.671286000273994
 21
29.918293879271857
  0
ARC
  8
_0-6_21
  6
CONTINUOUS
 62
    1
 10
86.671286000273994
 20
112.46829387927184
 40
1
 50
90
 51
180
  0
LINE
  8
_0-6_21
  6
CONTINUOUS
 62
    1
 10
187.00128600027398
 20
28.918293879271857
 11
86.671286000273994
 21
28.918293879271857
  0
LINE
  8
_0-6_21
  6
CONTINUOUS
 62
    1
 10
92.271286000273989
 20
113.46829387927184
 11
86.671286000273994
 21
113.46829387927184
  0
ARC
  8
_0-6_21
  6
CONTINUOUS
 62
    1
 10
111.55128600027393
 20
162.2282938792718
 40
1
 50
180
 51
270
  0
LINE
  8
_0-6_21
  6
CONTINUOUS
 62
    1
 10
120.42066204948307
 20
161.2282938792718
 11
111.55128600027393
 21
161.2282938792718
  0
ARC
  8
_0-6_21
  6
CONTINUOUS
 62
    1
 10
120.42066204948307
 20
162.2282938792718
 40
1
 50
270
 51
44.99999999999995
  0
LINE
  8
_0-6_21
  6
CONTINUOUS
 62
    1
 10
117.54776883066961
 20
166.51540066045837
 11
121.12776883066962
 21
162.93540066045836
  0
ARC
  8
_0-6_21
  6
CONTINUOUS
 62
    1
 10
116.84066204948306
 20
165.80829387927182
 40
1
 50
45
 51
90
  0
LINE
  8
_0-6_21
  6
CONTINUOUS
 62
    1
 10
110.55128600027393
 20
165.80829387927182
 11
110.55128600027393
 21
162.2282938792718
  0
LINE
  8
_0-6_21
  6
CONTINUOUS
 62
    1
 10
111.55128600027393
 20
166.80829387927182
 11
116.84066204948306
 21
166.80829387927182
  0
ARC
  8
_0-6_21
  6
CONTINUOUS
 62
    1
 10
111.55128600027393
 20
165.80829387927182
 40
1
 50
90
 51
180
  0
ARC
  8
_0-6_21
  6
CONTINUOUS
 62
    1
 10
130.58066204948304
 20
152.06829387927181
 40
1
 50
270
 51
44.99999999999995
  0
LINE
  8
_0-6_21
  6
CONTINUOUS
 62
    1
 10
126.79128600027389
 20
151.06829387927181
 11
130.58066204948304
 21
151.06829387927181
  0
LINE
  8
_0-6_21
  6
CONTINUOUS
 62
    1
 10
125.79128600027389
 20
152.06829387927181
 11
125.79128600027389
 21
153.60829387927183
  0
ARC
  8
_0-6_21
  6
CONTINUOUS
 62
    1
 10
126.79128600027389
 20
152.06829387927181
 40
1
 50
180
 51
270
  0
LINE
  8
_0-6_21
  6
CONTINUOUS
 62
    1
 10
125.52128600027388
 20
153.60829387927183
 11
125.79128600027389
 21
153.60829387927183
  0
LINE
  8
_0-6_21
  6
CONTINUOUS
 62
    1
 10
124.52128600027388
 20
154.60829387927183
 11
124.52128600027388
 21
156.14829387927182
  0
ARC
  8
_0-6_21
  6
CONTINUOUS
 62
    1
 10
125.52128600027388
 20
154.60829387927183
 40
1
 50
180
 51
270
  0
LINE
  8
_0-6_21
  6
CONTINUOUS
 62
    1
 10
124.25128600027389
 20
156.14829387927182
 11
124.52128600027388
 21
156.14829387927182
  0
ARC
  8
_0-6_21
  6
CONTINUOUS
 62
    1
 10
124.25128600027389
 20
157.14829387927182
 40
1
 50
180
 51
270
  0
LINE
  8
_0-6_21
  6
CONTINUOUS
 62
    1
 10
123.25128600027389
 20
158.39766992848098
 11
123.25128600027389
 21
157.14829387927182
  0
LINE
  8
_0-6_21
  6
CONTINUOUS
 62
    1
 10
124.95839278146042
 20
159.10477670966753
 11
131.28776883066959
 21
152.77540066045836
  0
ARC
  8
_0-6_21
  6
CONTINUOUS
 62
    1
 10
124.25128600027389
 20
158.39766992848098
 40
1
 50
44.999999999999972
 51
180
  0
CIRCLE
  8
_0-7_22
  6
CONTINUOUS
 62
    1
 10
183.19128600027398
 20
274.50829387927178
 40
1.7500000000000002
  0
CIRCLE
  8
_0-7_22
  6
CONTINUOUS
 62
    1
 10
183.19128600027398
 20
153.85829387927183
 40
1.7500000000000002
  0
CIRCLE
  8
_0-7_22
  6
CONTINUOUS
 62
    1
 10
183.19128600027398
 20
33.208293879271849
 40
1.7500000000000002
  0
CIRCLE
  8
_0-7_22
  6
CONTINUOUS
 62
    1
 10
90.481286000273968
 20
33.208293879271849
 40
1.7500000000000002
  0
CIRCLE
  8
_0-7_22
  6
CONTINUOUS
 62
    1
 10
90.481286000273968
 20
81.46829387927184
 40
1.7500000000000002
  0
CIRCLE
  8
_0-7_22
  6
CONTINUOUS
 62
    1
 10
124.77128600027388
 20
114.48829387927182
 40
1.7500000000000002
  0
CIRCLE
  8
_0-7_22
  6
CONTINUOUS
 62
    1
 10
124.7712860002739
 20
193.2282938792718
 40
1.7500000000000002
  0
CIRCLE
  8
_0-7_22
  6
CONTINUOUS
 62
    1
 10
90.481286000273997
 20
226.24829387927178
 40
1.7500000000000002
  0
CIRCLE
  8
_0-7_22
  6
CONTINUOUS
 62
    1
 10
90.481286000273997
 20
274.50829387927178
 40
1.7500000000000002
  0
LINE
  8
_0-7_22
  6
CONTINUOUS
 62
    1
 10
86.671286000273994
 20
279.58829387927176
 11
86.671286000273994
 21
29.398293879271847
  0
LINE
  8
_0-7_22
  6
CONTINUOUS
 62
    1
 10
86.671286000273994
 20
29.398293879271847
 11
187.00128600027398
 21
29.398293879271847
  0
LINE
  8
_0-7_22
  6
CONTINUOUS
 62
    1
 10
187.00128600027398
 20
29.398293879271847
 11
187.00128600027398
 21
279.58829387927176
  0
LINE
  8
_0-7_22
  6
CONTINUOUS
 62
    1
 10
187.00128600027398
 20
279.58829387927176
 11
86.671286000274023
 21
279.58829387927176
  0
ENDSEC
  0
EOF
